<?xml version="1.0" encoding="utf-8" standalone="no"?>
<!DOCTYPE svg PUBLIC "-//W3C//DTD SVG 1.1//EN"
  "http://www.w3.org/Graphics/SVG/1.1/DTD/svg11.dtd">
<!-- Created with matplotlib (https://matplotlib.org/) -->
<svg height="714.792969pt" version="1.1" viewBox="0 0 742 714.792969" width="742pt" xmlns="http://www.w3.org/2000/svg" xmlns:xlink="http://www.w3.org/1999/xlink">
 <metadata>
  <rdf:RDF xmlns:cc="http://creativecommons.org/ns#" xmlns:dc="http://purl.org/dc/elements/1.1/" xmlns:rdf="http://www.w3.org/1999/02/22-rdf-syntax-ns#">
   <cc:Work>
    <dc:type rdf:resource="http://purl.org/dc/dcmitype/StillImage"/>
    <dc:date>2022-06-21T14:28:34.383199</dc:date>
    <dc:format>image/svg+xml</dc:format>
    <dc:creator>
     <cc:Agent>
      <dc:title>Matplotlib v3.3.4, https://matplotlib.org/</dc:title>
     </cc:Agent>
    </dc:creator>
   </cc:Work>
  </rdf:RDF>
 </metadata>
 <defs>
  <style type="text/css">*{stroke-linecap:butt;stroke-linejoin:round;}</style>
 </defs>
 <g id="figure_1">
  <g id="patch_1">
   <path d="M 0 714.792969 
L 742 714.792969 
L 742 0 
L 0 0 
z
" style="fill:#ffffff;"/>
  </g>
  <g id="axes_1">
   <g id="patch_2">
    <path d="M 176.8 579.494531 
L 734.8 579.494531 
L 734.8 25.094531 
L 176.8 25.094531 
z
" style="fill:#ffffff;"/>
   </g>
   <g id="PolyCollection_1">
    <path clip-path="url(#pcd9b6470c4)" d="M 83.8 217.916524 
L 83.8 243.24515 
L 202.84 288.534952 
L 321.88 333.824754 
L 440.92 379.114555 
L 559.96 424.404357 
L 827.8 526.306411 
L 827.8 432.505313 
L 827.8 432.505313 
L 559.96 355.253349 
L 440.92 320.919142 
L 321.88 286.584936 
L 202.84 252.25073 
L 83.8 217.916524 
z
" style="fill:#5f9ea0;fill-opacity:0.1;stroke:#5f9ea0;stroke-opacity:0.1;"/>
   </g>
   <g id="line2d_1">
    <path clip-path="url(#pcd9b6470c4)" d="M 83.8 230.580837 
L 202.84 270.392841 
L 321.88 310.204845 
L 440.92 350.016849 
L 559.96 389.828853 
L 743 451.04516 
" style="fill:none;stroke:#5f9ea0;stroke-dasharray:18.5,8;stroke-dashoffset:0;stroke-width:5;"/>
   </g>
   <g id="PolyCollection_2">
    <defs>
     <path d="M 210.34415 -235.646269 
L 210.21585 -235.646269 
L 210.187632 -239.778168 
L 210.162842 -243.910068 
L 210.147457 -248.041967 
L 210.143856 -252.173867 
L 210.14917 -256.305767 
L 210.156454 -260.437666 
L 210.157806 -264.569566 
L 210.148495 -268.701465 
L 210.130287 -272.833365 
L 210.110208 -276.965265 
L 210.094504 -281.097164 
L 210.083956 -285.229064 
L 210.075323 -289.360964 
L 210.065819 -293.492863 
L 210.055565 -297.624763 
L 210.047441 -301.756662 
L 210.0443 -305.888562 
L 210.043374 -310.020462 
L 210.034056 -314.152361 
L 210.005939 -318.284261 
L 209.960542 -322.416161 
L 209.911971 -326.54806 
L 209.874274 -330.67996 
L 209.849196 -334.811859 
L 209.825821 -338.943759 
L 209.789748 -343.075659 
L 209.733286 -347.207558 
L 209.660894 -351.339458 
L 209.586303 -355.471357 
L 209.52182 -359.603257 
L 209.468519 -363.735157 
L 209.416897 -367.867056 
L 209.357269 -371.998956 
L 209.289616 -376.130856 
L 209.223362 -380.262755 
L 209.168162 -384.394655 
L 209.125963 -388.526554 
L 209.088608 -392.658454 
L 209.03673 -396.790354 
L 208.94433 -400.922253 
L 208.796572 -405.054153 
L 208.607383 -409.186053 
L 208.413792 -413.317952 
L 208.247655 -417.449852 
L 208.111217 -421.581751 
L 207.979369 -425.713651 
L 207.823934 -429.845551 
L 207.635582 -433.97745 
L 207.425913 -438.10935 
L 207.211098 -442.241249 
L 206.992897 -446.373149 
L 206.756839 -450.505049 
L 206.490773 -454.636948 
L 206.20211 -458.768848 
L 205.91106 -462.900748 
L 205.625692 -467.032647 
L 205.330429 -471.164547 
L 205.002659 -475.296446 
L 204.629868 -479.428346 
L 204.202675 -483.560246 
L 203.705548 -487.692145 
L 203.131874 -491.824045 
L 202.50143 -495.955944 
L 201.842667 -500.087844 
L 201.154382 -504.219744 
L 200.397231 -508.351643 
L 199.524415 -512.483543 
L 198.516156 -516.615443 
L 197.391002 -520.747342 
L 196.184691 -524.879242 
L 194.909092 -529.011141 
L 193.532788 -533.143041 
L 192.004456 -537.274941 
L 190.296526 -541.40684 
L 188.443651 -545.53874 
L 186.557867 -549.67064 
L 184.811827 -553.802539 
L 183.408188 -557.934439 
L 182.547016 -562.066338 
L 182.38 -566.198238 
L 182.967889 -570.330138 
L 184.282131 -574.462037 
L 186.248151 -578.593937 
L 188.777751 -582.725836 
L 191.753079 -586.857736 
L 194.987722 -590.989636 
L 198.225961 -595.121535 
L 201.204722 -599.253435 
L 203.737865 -603.385335 
L 205.757012 -607.517234 
L 207.284448 -611.649134 
L 208.381987 -615.781033 
L 209.125776 -619.912933 
L 209.600953 -624.044833 
L 209.889905 -628.176732 
L 210.058174 -632.308632 
L 210.152021 -636.440531 
L 210.203504 -640.572431 
L 210.23354 -644.704331 
L 210.32646 -644.704331 
L 210.32646 -644.704331 
L 210.356496 -640.572431 
L 210.407979 -636.440531 
L 210.501826 -632.308632 
L 210.670095 -628.176732 
L 210.959047 -624.044833 
L 211.434224 -619.912933 
L 212.178013 -615.781033 
L 213.275552 -611.649134 
L 214.802988 -607.517234 
L 216.822135 -603.385335 
L 219.355278 -599.253435 
L 222.334039 -595.121535 
L 225.572278 -590.989636 
L 228.806921 -586.857736 
L 231.782249 -582.725836 
L 234.311849 -578.593937 
L 236.277869 -574.462037 
L 237.592111 -570.330138 
L 238.18 -566.198238 
L 238.012984 -562.066338 
L 237.151812 -557.934439 
L 235.748173 -553.802539 
L 234.002133 -549.67064 
L 232.116349 -545.53874 
L 230.263474 -541.40684 
L 228.555544 -537.274941 
L 227.027212 -533.143041 
L 225.650908 -529.011141 
L 224.375309 -524.879242 
L 223.168998 -520.747342 
L 222.043844 -516.615443 
L 221.035585 -512.483543 
L 220.162769 -508.351643 
L 219.405618 -504.219744 
L 218.717333 -500.087844 
L 218.05857 -495.955944 
L 217.428126 -491.824045 
L 216.854452 -487.692145 
L 216.357325 -483.560246 
L 215.930132 -479.428346 
L 215.557341 -475.296446 
L 215.229571 -471.164547 
L 214.934308 -467.032647 
L 214.64894 -462.900748 
L 214.35789 -458.768848 
L 214.069227 -454.636948 
L 213.803161 -450.505049 
L 213.567103 -446.373149 
L 213.348902 -442.241249 
L 213.134087 -438.10935 
L 212.924418 -433.97745 
L 212.736066 -429.845551 
L 212.580631 -425.713651 
L 212.448783 -421.581751 
L 212.312345 -417.449852 
L 212.146208 -413.317952 
L 211.952617 -409.186053 
L 211.763428 -405.054153 
L 211.61567 -400.922253 
L 211.52327 -396.790354 
L 211.471392 -392.658454 
L 211.434037 -388.526554 
L 211.391838 -384.394655 
L 211.336638 -380.262755 
L 211.270384 -376.130856 
L 211.202731 -371.998956 
L 211.143103 -367.867056 
L 211.091481 -363.735157 
L 211.03818 -359.603257 
L 210.973697 -355.471357 
L 210.899106 -351.339458 
L 210.826714 -347.207558 
L 210.770252 -343.075659 
L 210.734179 -338.943759 
L 210.710804 -334.811859 
L 210.685726 -330.67996 
L 210.648029 -326.54806 
L 210.599458 -322.416161 
L 210.554061 -318.284261 
L 210.525944 -314.152361 
L 210.516626 -310.020462 
L 210.5157 -305.888562 
L 210.512559 -301.756662 
L 210.504435 -297.624763 
L 210.494181 -293.492863 
L 210.484677 -289.360964 
L 210.476044 -285.229064 
L 210.465496 -281.097164 
L 210.449792 -276.965265 
L 210.429713 -272.833365 
L 210.411505 -268.701465 
L 210.402194 -264.569566 
L 210.403546 -260.437666 
L 210.41083 -256.305767 
L 210.416144 -252.173867 
L 210.412543 -248.041967 
L 210.397158 -243.910068 
L 210.372368 -239.778168 
L 210.34415 -235.646269 
z
" id="md96a25f25a" style="stroke:#000000;stroke-width:3;"/>
    </defs>
    <g clip-path="url(#pcd9b6470c4)">
     <use style="fill:#483d8b;stroke:#000000;stroke-width:3;" x="0" xlink:href="#md96a25f25a" y="714.792969"/>
    </g>
   </g>
   <g id="PolyCollection_3">
    <defs>
     <path d="M 392.70121 -234.767751 
L 392.41879 -234.767751 
L 392.364305 -238.152445 
L 392.329794 -241.53714 
L 392.312719 -244.921834 
L 392.293463 -248.306529 
L 392.260505 -251.691223 
L 392.229372 -255.075918 
L 392.223162 -258.460612 
L 392.236459 -261.845307 
L 392.234339 -265.230001 
L 392.189552 -268.614695 
L 392.112619 -271.99939 
L 392.038025 -275.384084 
L 391.977719 -278.768779 
L 391.902947 -282.153473 
L 391.78246 -285.538168 
L 391.618073 -288.922862 
L 391.429694 -292.307557 
L 391.226179 -295.692251 
L 391.00773 -299.076945 
L 390.77876 -302.46164 
L 390.533469 -305.846334 
L 390.238865 -309.231029 
L 389.850007 -312.615723 
L 389.330782 -316.000418 
L 388.649055 -319.385112 
L 387.764474 -322.769806 
L 386.628543 -326.154501 
L 385.177818 -329.539195 
L 383.333147 -332.92389 
L 381.063204 -336.308584 
L 378.476112 -339.693279 
L 375.819146 -343.077973 
L 373.358594 -346.462668 
L 371.243195 -349.847362 
L 369.478986 -353.232056 
L 368.028171 -356.616751 
L 366.880124 -360.001445 
L 366.003924 -363.38614 
L 365.334995 -366.770834 
L 364.866943 -370.155529 
L 364.66 -373.540223 
L 364.729362 -376.924917 
L 365.011408 -380.309612 
L 365.448776 -383.694306 
L 366.038477 -387.079001 
L 366.771389 -390.463695 
L 367.573994 -393.84839 
L 368.363758 -397.233084 
L 369.139152 -400.617779 
L 369.965297 -404.002473 
L 370.882054 -407.387167 
L 371.854125 -410.771862 
L 372.815486 -414.156556 
L 373.758583 -417.541251 
L 374.750062 -420.925945 
L 375.847796 -424.31064 
L 377.046622 -427.695334 
L 378.306014 -431.080029 
L 379.577668 -434.464723 
L 380.812083 -437.849417 
L 381.97194 -441.234112 
L 383.02882 -444.618806 
L 383.950499 -448.003501 
L 384.722879 -451.388195 
L 385.38623 -454.77289 
L 386.021496 -458.157584 
L 386.676802 -461.542278 
L 387.313531 -464.926973 
L 387.857869 -468.311667 
L 388.304671 -471.696362 
L 388.727534 -475.081056 
L 389.191535 -478.465751 
L 389.696513 -481.850445 
L 390.192376 -485.23514 
L 390.61985 -488.619834 
L 390.945481 -492.004528 
L 391.171777 -495.389223 
L 391.319551 -498.773917 
L 391.413749 -502.158612 
L 391.489563 -505.543306 
L 391.586257 -508.928001 
L 391.715883 -512.312695 
L 391.85212 -515.697389 
L 391.960423 -519.082084 
L 392.032467 -522.466778 
L 392.090748 -525.851473 
L 392.163456 -529.236167 
L 392.255493 -532.620862 
L 392.347173 -536.005556 
L 392.418733 -539.390251 
L 392.46659 -542.774945 
L 392.497014 -546.159639 
L 392.51451 -549.544334 
L 392.519694 -552.929028 
L 392.514425 -556.313723 
L 392.505638 -559.698417 
L 392.502611 -563.083112 
L 392.509895 -566.467806 
L 392.524291 -569.852501 
L 392.595709 -569.852501 
L 392.595709 -569.852501 
L 392.610105 -566.467806 
L 392.617389 -563.083112 
L 392.614362 -559.698417 
L 392.605575 -556.313723 
L 392.600306 -552.929028 
L 392.60549 -549.544334 
L 392.622986 -546.159639 
L 392.65341 -542.774945 
L 392.701267 -539.390251 
L 392.772827 -536.005556 
L 392.864507 -532.620862 
L 392.956544 -529.236167 
L 393.029252 -525.851473 
L 393.087533 -522.466778 
L 393.159577 -519.082084 
L 393.26788 -515.697389 
L 393.404117 -512.312695 
L 393.533743 -508.928001 
L 393.630437 -505.543306 
L 393.706251 -502.158612 
L 393.800449 -498.773917 
L 393.948223 -495.389223 
L 394.174519 -492.004528 
L 394.50015 -488.619834 
L 394.927624 -485.23514 
L 395.423487 -481.850445 
L 395.928465 -478.465751 
L 396.392466 -475.081056 
L 396.815329 -471.696362 
L 397.262131 -468.311667 
L 397.806469 -464.926973 
L 398.443198 -461.542278 
L 399.098504 -458.157584 
L 399.73377 -454.77289 
L 400.397121 -451.388195 
L 401.169501 -448.003501 
L 402.09118 -444.618806 
L 403.14806 -441.234112 
L 404.307917 -437.849417 
L 405.542332 -434.464723 
L 406.813986 -431.080029 
L 408.073378 -427.695334 
L 409.272204 -424.31064 
L 410.369938 -420.925945 
L 411.361417 -417.541251 
L 412.304514 -414.156556 
L 413.265875 -410.771862 
L 414.237946 -407.387167 
L 415.154703 -404.002473 
L 415.980848 -400.617779 
L 416.756242 -397.233084 
L 417.546006 -393.84839 
L 418.348611 -390.463695 
L 419.081523 -387.079001 
L 419.671224 -383.694306 
L 420.108592 -380.309612 
L 420.390638 -376.924917 
L 420.46 -373.540223 
L 420.253057 -370.155529 
L 419.785005 -366.770834 
L 419.116076 -363.38614 
L 418.239876 -360.001445 
L 417.091829 -356.616751 
L 415.641014 -353.232056 
L 413.876805 -349.847362 
L 411.761406 -346.462668 
L 409.300854 -343.077973 
L 406.643888 -339.693279 
L 404.056796 -336.308584 
L 401.786853 -332.92389 
L 399.942182 -329.539195 
L 398.491457 -326.154501 
L 397.355526 -322.769806 
L 396.470945 -319.385112 
L 395.789218 -316.000418 
L 395.269993 -312.615723 
L 394.881135 -309.231029 
L 394.586531 -305.846334 
L 394.34124 -302.46164 
L 394.11227 -299.076945 
L 393.893821 -295.692251 
L 393.690306 -292.307557 
L 393.501927 -288.922862 
L 393.33754 -285.538168 
L 393.217053 -282.153473 
L 393.142281 -278.768779 
L 393.081975 -275.384084 
L 393.007381 -271.99939 
L 392.930448 -268.614695 
L 392.885661 -265.230001 
L 392.883541 -261.845307 
L 392.896838 -258.460612 
L 392.890628 -255.075918 
L 392.859495 -251.691223 
L 392.826537 -248.306529 
L 392.807281 -244.921834 
L 392.790206 -241.53714 
L 392.755695 -238.152445 
L 392.70121 -234.767751 
z
" id="mc454672f9b" style="stroke:#000000;stroke-width:3;"/>
    </defs>
    <g clip-path="url(#pcd9b6470c4)">
     <use style="fill:#ffd700;stroke:#000000;stroke-width:3;" x="0" xlink:href="#mc454672f9b" y="714.792969"/>
    </g>
   </g>
   <g id="PolyCollection_4">
    <defs>
     <path d="M 232.611533 -129.000705 
L 232.588467 -129.000705 
L 232.590078 -134.240157 
L 232.593682 -139.479609 
L 232.597023 -144.719062 
L 232.598962 -149.958514 
L 232.599732 -155.197966 
L 232.599949 -160.437418 
L 232.599993 -165.67687 
L 232.599999 -170.916322 
L 232.6 -176.155774 
L 232.6 -181.395227 
L 232.6 -186.634679 
L 232.599999 -191.874131 
L 232.599989 -197.113583 
L 232.599907 -202.353035 
L 232.599397 -207.592487 
L 232.597046 -212.831939 
L 232.588985 -218.071392 
L 232.568472 -223.310844 
L 232.529812 -228.550296 
L 232.475951 -233.789748 
L 232.420481 -239.0292 
L 232.377575 -244.268652 
L 232.349861 -249.508104 
L 232.328906 -254.747557 
L 232.307569 -259.987009 
L 232.289208 -265.226461 
L 232.282622 -270.465913 
L 232.290088 -275.705365 
L 232.304809 -280.944817 
L 232.319552 -286.184269 
L 232.332935 -291.423722 
L 232.345165 -296.663174 
L 232.351124 -301.902626 
L 232.34248 -307.142078 
L 232.317225 -312.38153 
L 232.285135 -317.620982 
L 232.262342 -322.860435 
L 232.258517 -328.099887 
L 232.267309 -333.339339 
L 232.270761 -338.578791 
L 232.256211 -343.818243 
L 232.22762 -349.057695 
L 232.198438 -354.297147 
L 232.17834 -359.5366 
L 232.171215 -364.776052 
L 232.179781 -370.015504 
L 232.203429 -375.254956 
L 232.233767 -380.494408 
L 232.259958 -385.73386 
L 232.277518 -390.973312 
L 232.287082 -396.212765 
L 232.288378 -401.452217 
L 232.280703 -406.691669 
L 232.265631 -411.931121 
L 232.245558 -417.170573 
L 232.221869 -422.410025 
L 232.195948 -427.649477 
L 232.170433 -432.88893 
L 232.147132 -438.128382 
L 232.122701 -443.367834 
L 232.08941 -448.607286 
L 232.043639 -453.846738 
L 231.991515 -459.08619 
L 231.943679 -464.325643 
L 231.907492 -469.565095 
L 231.884066 -474.804547 
L 231.865717 -480.043999 
L 231.83411 -485.283451 
L 231.767556 -490.522903 
L 231.65503 -495.762355 
L 231.499065 -501.001808 
L 231.299668 -506.24126 
L 231.038426 -511.480712 
L 230.680522 -516.720164 
L 230.1804 -521.959616 
L 229.473803 -527.199068 
L 228.471192 -532.43852 
L 227.065154 -537.677973 
L 225.139594 -542.917425 
L 222.596354 -548.156877 
L 219.430871 -553.396329 
L 215.80775 -558.635781 
L 212.052969 -563.875233 
L 208.600288 -569.114685 
L 205.969048 -574.354138 
L 204.7 -579.59359 
L 205.162682 -584.833042 
L 207.356286 -590.072494 
L 210.891903 -595.311946 
L 215.155805 -600.551398 
L 219.510569 -605.790851 
L 223.444202 -611.030303 
L 226.648222 -616.269755 
L 229.017927 -621.509207 
L 230.603598 -626.748659 
L 231.556 -631.988111 
L 232.071503 -637.227563 
L 232.332492 -642.467016 
L 232.465258 -647.706468 
L 232.734742 -647.706468 
L 232.734742 -647.706468 
L 232.867508 -642.467016 
L 233.128497 -637.227563 
L 233.644 -631.988111 
L 234.596402 -626.748659 
L 236.182073 -621.509207 
L 238.551778 -616.269755 
L 241.755798 -611.030303 
L 245.689431 -605.790851 
L 250.044195 -600.551398 
L 254.308097 -595.311946 
L 257.843714 -590.072494 
L 260.037318 -584.833042 
L 260.5 -579.59359 
L 259.230952 -574.354138 
L 256.599712 -569.114685 
L 253.147031 -563.875233 
L 249.39225 -558.635781 
L 245.769129 -553.396329 
L 242.603646 -548.156877 
L 240.060406 -542.917425 
L 238.134846 -537.677973 
L 236.728808 -532.43852 
L 235.726197 -527.199068 
L 235.0196 -521.959616 
L 234.519478 -516.720164 
L 234.161574 -511.480712 
L 233.900332 -506.24126 
L 233.700935 -501.001808 
L 233.54497 -495.762355 
L 233.432444 -490.522903 
L 233.36589 -485.283451 
L 233.334283 -480.043999 
L 233.315934 -474.804547 
L 233.292508 -469.565095 
L 233.256321 -464.325643 
L 233.208485 -459.08619 
L 233.156361 -453.846738 
L 233.11059 -448.607286 
L 233.077299 -443.367834 
L 233.052868 -438.128382 
L 233.029567 -432.88893 
L 233.004052 -427.649477 
L 232.978131 -422.410025 
L 232.954442 -417.170573 
L 232.934369 -411.931121 
L 232.919297 -406.691669 
L 232.911622 -401.452217 
L 232.912918 -396.212765 
L 232.922482 -390.973312 
L 232.940042 -385.73386 
L 232.966233 -380.494408 
L 232.996571 -375.254956 
L 233.020219 -370.015504 
L 233.028785 -364.776052 
L 233.02166 -359.5366 
L 233.001562 -354.297147 
L 232.97238 -349.057695 
L 232.943789 -343.818243 
L 232.929239 -338.578791 
L 232.932691 -333.339339 
L 232.941483 -328.099887 
L 232.937658 -322.860435 
L 232.914865 -317.620982 
L 232.882775 -312.38153 
L 232.85752 -307.142078 
L 232.848876 -301.902626 
L 232.854835 -296.663174 
L 232.867065 -291.423722 
L 232.880448 -286.184269 
L 232.895191 -280.944817 
L 232.909912 -275.705365 
L 232.917378 -270.465913 
L 232.910792 -265.226461 
L 232.892431 -259.987009 
L 232.871094 -254.747557 
L 232.850139 -249.508104 
L 232.822425 -244.268652 
L 232.779519 -239.0292 
L 232.724049 -233.789748 
L 232.670188 -228.550296 
L 232.631528 -223.310844 
L 232.611015 -218.071392 
L 232.602954 -212.831939 
L 232.600603 -207.592487 
L 232.600093 -202.353035 
L 232.600011 -197.113583 
L 232.600001 -191.874131 
L 232.6 -186.634679 
L 232.6 -181.395227 
L 232.6 -176.155774 
L 232.600001 -170.916322 
L 232.600007 -165.67687 
L 232.600051 -160.437418 
L 232.600268 -155.197966 
L 232.601038 -149.958514 
L 232.602977 -144.719062 
L 232.606318 -139.479609 
L 232.609922 -134.240157 
L 232.611533 -129.000705 
z
" id="m12cd17a268" style="stroke:#000000;stroke-width:3;"/>
    </defs>
    <g clip-path="url(#pcd9b6470c4)">
     <use style="fill:#008080;stroke:#000000;stroke-width:3;" x="0" xlink:href="#m12cd17a268" y="714.792969"/>
    </g>
   </g>
   <g id="PolyCollection_5">
    <defs>
     <path d="M 690.30595 -239.682042 
L 690.01405 -239.682042 
L 689.958308 -243.38597 
L 689.900117 -247.089899 
L 689.845366 -250.793827 
L 689.799511 -254.497755 
L 689.764665 -258.201684 
L 689.738259 -261.905612 
L 689.71553 -265.60954 
L 689.693305 -269.313469 
L 689.670499 -273.017397 
L 689.64583 -276.721325 
L 689.618112 -280.425254 
L 689.590193 -284.129182 
L 689.570101 -287.83311 
L 689.565307 -291.537039 
L 689.575339 -295.240967 
L 689.590001 -298.944895 
L 689.593046 -302.648824 
L 689.565901 -306.352752 
L 689.488112 -310.05668 
L 689.335528 -313.760609 
L 689.079587 -317.464537 
L 688.690529 -321.168465 
L 688.143197 -324.872394 
L 687.419235 -328.576322 
L 686.502144 -332.28025 
L 685.372399 -335.984179 
L 684.014189 -339.688107 
L 682.433142 -343.392035 
L 680.669284 -347.095964 
L 678.791288 -350.799892 
L 676.873259 -354.50382 
L 674.967363 -358.207748 
L 673.089382 -361.911677 
L 671.229917 -365.615605 
L 669.388729 -369.319533 
L 667.609366 -373.023462 
L 665.984497 -376.72739 
L 664.621419 -380.431318 
L 663.589424 -384.135247 
L 662.888249 -387.839175 
L 662.463528 -391.543103 
L 662.26 -395.247032 
L 662.271017 -398.95096 
L 662.540973 -402.654888 
L 663.114741 -406.358817 
L 663.976843 -410.062745 
L 665.033451 -413.766673 
L 666.148939 -417.470602 
L 667.202635 -421.17453 
L 668.127963 -424.878458 
L 668.921822 -428.582387 
L 669.628357 -432.286315 
L 670.30651 -435.990243 
L 671.000047 -439.694172 
L 671.728829 -443.3981 
L 672.497694 -447.102028 
L 673.30006 -450.805957 
L 674.106862 -454.509885 
L 674.86057 -458.213813 
L 675.496971 -461.917742 
L 675.987393 -465.62167 
L 676.367578 -469.325598 
L 676.727473 -473.029527 
L 677.168011 -476.733455 
L 677.753672 -480.437383 
L 678.487545 -484.141312 
L 679.317899 -487.84524 
L 680.167074 -491.549168 
L 680.964643 -495.253097 
L 681.669288 -498.957025 
L 682.27348 -502.660953 
L 682.794249 -506.364882 
L 683.257458 -510.06881 
L 683.683672 -513.772738 
L 684.083629 -517.476667 
L 684.466478 -521.180595 
L 684.851669 -524.884523 
L 685.26798 -528.588451 
L 685.735716 -532.29238 
L 686.249383 -535.996308 
L 686.779578 -539.700236 
L 687.291355 -543.404165 
L 687.760496 -547.108093 
L 688.176752 -550.812021 
L 688.538883 -554.51595 
L 688.85003 -558.219878 
L 689.115478 -561.923806 
L 689.34076 -565.627735 
L 689.529899 -569.331663 
L 689.685346 -573.035591 
L 689.809454 -576.73952 
L 689.905511 -580.443448 
L 689.977379 -584.147376 
L 690.028739 -587.851305 
L 690.063029 -591.555233 
L 690.08405 -595.259161 
L 690.096449 -598.96309 
L 690.105266 -602.667018 
L 690.11441 -606.370946 
L 690.20559 -606.370946 
L 690.20559 -606.370946 
L 690.214734 -602.667018 
L 690.223551 -598.96309 
L 690.23595 -595.259161 
L 690.256971 -591.555233 
L 690.291261 -587.851305 
L 690.342621 -584.147376 
L 690.414489 -580.443448 
L 690.510546 -576.73952 
L 690.634654 -573.035591 
L 690.790101 -569.331663 
L 690.97924 -565.627735 
L 691.204522 -561.923806 
L 691.46997 -558.219878 
L 691.781117 -554.51595 
L 692.143248 -550.812021 
L 692.559504 -547.108093 
L 693.028645 -543.404165 
L 693.540422 -539.700236 
L 694.070617 -535.996308 
L 694.584284 -532.29238 
L 695.05202 -528.588451 
L 695.468331 -524.884523 
L 695.853522 -521.180595 
L 696.236371 -517.476667 
L 696.636328 -513.772738 
L 697.062542 -510.06881 
L 697.525751 -506.364882 
L 698.04652 -502.660953 
L 698.650712 -498.957025 
L 699.355357 -495.253097 
L 700.152926 -491.549168 
L 701.002101 -487.84524 
L 701.832455 -484.141312 
L 702.566328 -480.437383 
L 703.151989 -476.733455 
L 703.592527 -473.029527 
L 703.952422 -469.325598 
L 704.332607 -465.62167 
L 704.823029 -461.917742 
L 705.45943 -458.213813 
L 706.213138 -454.509885 
L 707.01994 -450.805957 
L 707.822306 -447.102028 
L 708.591171 -443.3981 
L 709.319953 -439.694172 
L 710.01349 -435.990243 
L 710.691643 -432.286315 
L 711.398178 -428.582387 
L 712.192037 -424.878458 
L 713.117365 -421.17453 
L 714.171061 -417.470602 
L 715.286549 -413.766673 
L 716.343157 -410.062745 
L 717.205259 -406.358817 
L 717.779027 -402.654888 
L 718.048983 -398.95096 
L 718.06 -395.247032 
L 717.856472 -391.543103 
L 717.431751 -387.839175 
L 716.730576 -384.135247 
L 715.698581 -380.431318 
L 714.335503 -376.72739 
L 712.710634 -373.023462 
L 710.931271 -369.319533 
L 709.090083 -365.615605 
L 707.230618 -361.911677 
L 705.352637 -358.207748 
L 703.446741 -354.50382 
L 701.528712 -350.799892 
L 699.650716 -347.095964 
L 697.886858 -343.392035 
L 696.305811 -339.688107 
L 694.947601 -335.984179 
L 693.817856 -332.28025 
L 692.900765 -328.576322 
L 692.176803 -324.872394 
L 691.629471 -321.168465 
L 691.240413 -317.464537 
L 690.984472 -313.760609 
L 690.831888 -310.05668 
L 690.754099 -306.352752 
L 690.726954 -302.648824 
L 690.729999 -298.944895 
L 690.744661 -295.240967 
L 690.754693 -291.537039 
L 690.749899 -287.83311 
L 690.729807 -284.129182 
L 690.701888 -280.425254 
L 690.67417 -276.721325 
L 690.649501 -273.017397 
L 690.626695 -269.313469 
L 690.60447 -265.60954 
L 690.581741 -261.905612 
L 690.555335 -258.201684 
L 690.520489 -254.497755 
L 690.474634 -250.793827 
L 690.419883 -247.089899 
L 690.361692 -243.38597 
L 690.30595 -239.682042 
z
" id="m2a35cfae92" style="stroke:#000000;stroke-width:3;"/>
    </defs>
    <g clip-path="url(#pcd9b6470c4)">
     <use style="fill:#ff8c00;stroke:#000000;stroke-width:3;" x="0" xlink:href="#m2a35cfae92" y="714.792969"/>
    </g>
   </g>
   <g id="PolyCollection_6">
    <defs>
     <path d="M 310.971389 -234.459822 
L 310.468611 -234.459822 
L 310.350615 -237.077871 
L 310.298659 -239.69592 
L 310.316392 -242.313969 
L 310.362708 -244.932017 
L 310.394452 -247.550066 
L 310.387675 -250.168115 
L 310.341281 -252.786164 
L 310.273293 -255.404213 
L 310.203448 -258.022261 
L 310.137766 -260.64031 
L 310.079812 -263.258359 
L 310.049717 -265.876408 
L 310.059549 -268.494457 
L 310.086562 -271.112506 
L 310.107113 -273.730554 
L 310.120111 -276.348603 
L 310.120898 -278.966652 
L 310.095376 -281.584701 
L 310.05458 -284.20275 
L 310.02817 -286.820799 
L 310.023945 -289.438847 
L 310.035429 -292.056896 
L 310.053207 -294.674945 
L 310.053096 -297.292994 
L 310.010657 -299.911043 
L 309.921346 -302.529092 
L 309.793734 -305.14714 
L 309.638007 -307.765189 
L 309.46879 -310.383238 
L 309.295127 -313.001287 
L 309.095645 -315.619336 
L 308.832168 -318.237384 
L 308.478661 -320.855433 
L 308.010914 -323.473482 
L 307.39122 -326.091531 
L 306.549975 -328.70958 
L 305.378023 -331.327629 
L 303.788978 -333.945677 
L 301.773945 -336.563726 
L 299.383741 -339.181775 
L 296.733259 -341.799824 
L 293.995589 -344.417873 
L 291.341308 -347.035922 
L 288.963201 -349.65397 
L 287.054675 -352.272019 
L 285.612646 -354.890068 
L 284.438007 -357.508117 
L 283.455626 -360.126166 
L 282.850393 -362.744214 
L 282.82 -365.362263 
L 283.339092 -367.980312 
L 284.212005 -370.598361 
L 285.319731 -373.21641 
L 286.739325 -375.834459 
L 288.528734 -378.452507 
L 290.517749 -381.070556 
L 292.438555 -383.688605 
L 294.183472 -386.306654 
L 295.862172 -388.924703 
L 297.604544 -391.542752 
L 299.352529 -394.1608 
L 300.951371 -396.778849 
L 302.371704 -399.396898 
L 303.688965 -402.014947 
L 304.929649 -404.632996 
L 306.032249 -407.251045 
L 306.923461 -409.869093 
L 307.607941 -412.487142 
L 308.161904 -415.105191 
L 308.652202 -417.72324 
L 309.089088 -420.341289 
L 309.440003 -422.959337 
L 309.687507 -425.577386 
L 309.863781 -428.195435 
L 310.011729 -430.813484 
L 310.15091 -433.431533 
L 310.279716 -436.049582 
L 310.383042 -438.66763 
L 310.457363 -441.285679 
L 310.518787 -443.903728 
L 310.573853 -446.521777 
L 310.611674 -449.139826 
L 310.625531 -451.757875 
L 310.625557 -454.375923 
L 310.630253 -456.993972 
L 310.647676 -459.612021 
L 310.670559 -462.23007 
L 310.688664 -464.848119 
L 310.699166 -467.466167 
L 310.704703 -470.084216 
L 310.706881 -472.702265 
L 310.707272 -475.320314 
L 310.709337 -477.938363 
L 310.713685 -480.556412 
L 310.717281 -483.17446 
L 310.717939 -485.792509 
L 310.715399 -488.410558 
L 310.711143 -491.028607 
L 310.708921 -493.646656 
L 310.731079 -493.646656 
L 310.731079 -493.646656 
L 310.728857 -491.028607 
L 310.724601 -488.410558 
L 310.722061 -485.792509 
L 310.722719 -483.17446 
L 310.726315 -480.556412 
L 310.730663 -477.938363 
L 310.732728 -475.320314 
L 310.733119 -472.702265 
L 310.735297 -470.084216 
L 310.740834 -467.466167 
L 310.751336 -464.848119 
L 310.769441 -462.23007 
L 310.792324 -459.612021 
L 310.809747 -456.993972 
L 310.814443 -454.375923 
L 310.814469 -451.757875 
L 310.828326 -449.139826 
L 310.866147 -446.521777 
L 310.921213 -443.903728 
L 310.982637 -441.285679 
L 311.056958 -438.66763 
L 311.160284 -436.049582 
L 311.28909 -433.431533 
L 311.428271 -430.813484 
L 311.576219 -428.195435 
L 311.752493 -425.577386 
L 311.999997 -422.959337 
L 312.350912 -420.341289 
L 312.787798 -417.72324 
L 313.278096 -415.105191 
L 313.832059 -412.487142 
L 314.516539 -409.869093 
L 315.407751 -407.251045 
L 316.510351 -404.632996 
L 317.751035 -402.014947 
L 319.068296 -399.396898 
L 320.488629 -396.778849 
L 322.087471 -394.1608 
L 323.835456 -391.542752 
L 325.577828 -388.924703 
L 327.256528 -386.306654 
L 329.001445 -383.688605 
L 330.922251 -381.070556 
L 332.911266 -378.452507 
L 334.700675 -375.834459 
L 336.120269 -373.21641 
L 337.227995 -370.598361 
L 338.100908 -367.980312 
L 338.62 -365.362263 
L 338.589607 -362.744214 
L 337.984374 -360.126166 
L 337.001993 -357.508117 
L 335.827354 -354.890068 
L 334.385325 -352.272019 
L 332.476799 -349.65397 
L 330.098692 -347.035922 
L 327.444411 -344.417873 
L 324.706741 -341.799824 
L 322.056259 -339.181775 
L 319.666055 -336.563726 
L 317.651022 -333.945677 
L 316.061977 -331.327629 
L 314.890025 -328.70958 
L 314.04878 -326.091531 
L 313.429086 -323.473482 
L 312.961339 -320.855433 
L 312.607832 -318.237384 
L 312.344355 -315.619336 
L 312.144873 -313.001287 
L 311.97121 -310.383238 
L 311.801993 -307.765189 
L 311.646266 -305.14714 
L 311.518654 -302.529092 
L 311.429343 -299.911043 
L 311.386904 -297.292994 
L 311.386793 -294.674945 
L 311.404571 -292.056896 
L 311.416055 -289.438847 
L 311.41183 -286.820799 
L 311.38542 -284.20275 
L 311.344624 -281.584701 
L 311.319102 -278.966652 
L 311.319889 -276.348603 
L 311.332887 -273.730554 
L 311.353438 -271.112506 
L 311.380451 -268.494457 
L 311.390283 -265.876408 
L 311.360188 -263.258359 
L 311.302234 -260.64031 
L 311.236552 -258.022261 
L 311.166707 -255.404213 
L 311.098719 -252.786164 
L 311.052325 -250.168115 
L 311.045548 -247.550066 
L 311.077292 -244.932017 
L 311.123608 -242.313969 
L 311.141341 -239.69592 
L 311.089385 -237.077871 
L 310.971389 -234.459822 
z
" id="m0b3ff11257" style="stroke:#000000;stroke-width:3;"/>
    </defs>
    <g clip-path="url(#pcd9b6470c4)">
     <use style="fill:#4169e1;stroke:#000000;stroke-width:3;" x="0" xlink:href="#m0b3ff11257" y="714.792969"/>
    </g>
   </g>
   <g id="matplotlib.axis_1">
    <g id="xtick_1">
     <g id="line2d_2">
      <path clip-path="url(#pcd9b6470c4)" d="M 269.8 579.494531 
L 269.8 25.094531 
" style="fill:none;stroke:#b0b0b0;stroke-linecap:square;stroke-width:0.8;"/>
     </g>
     <g id="line2d_3">
      <defs>
       <path d="M 0 0 
L 0 20 
" id="m1b3281f5c6" style="stroke:#000000;stroke-width:7;"/>
      </defs>
      <g>
       <use style="stroke:#000000;stroke-width:7;" x="269.8" xlink:href="#m1b3281f5c6" y="579.494531"/>
      </g>
     </g>
     <g id="text_1">
      <!-- 50 -->
      <g transform="translate(241.995313 638.783594)scale(0.5 -0.5)">
       <defs>
        <path d="M 4.15625 18.75 
L 13.375 19.53125 
Q 14.40625 12.796875 18.140625 9.390625 
Q 21.875 6 27.15625 6 
Q 33.5 6 37.890625 10.78125 
Q 42.28125 15.578125 42.28125 23.484375 
Q 42.28125 31 38.0625 35.34375 
Q 33.84375 39.703125 27 39.703125 
Q 22.75 39.703125 19.328125 37.765625 
Q 15.921875 35.84375 13.96875 32.765625 
L 5.71875 33.84375 
L 12.640625 70.609375 
L 48.25 70.609375 
L 48.25 62.203125 
L 19.671875 62.203125 
L 15.828125 42.96875 
Q 22.265625 47.46875 29.34375 47.46875 
Q 38.71875 47.46875 45.15625 40.96875 
Q 51.609375 34.46875 51.609375 24.265625 
Q 51.609375 14.546875 45.953125 7.46875 
Q 39.0625 -1.21875 27.15625 -1.21875 
Q 17.390625 -1.21875 11.203125 4.25 
Q 5.03125 9.71875 4.15625 18.75 
z
" id="ArialMT-53"/>
        <path d="M 4.15625 35.296875 
Q 4.15625 48 6.765625 55.734375 
Q 9.375 63.484375 14.515625 67.671875 
Q 19.671875 71.875 27.484375 71.875 
Q 33.25 71.875 37.59375 69.546875 
Q 41.9375 67.234375 44.765625 62.859375 
Q 47.609375 58.5 49.21875 52.21875 
Q 50.828125 45.953125 50.828125 35.296875 
Q 50.828125 22.703125 48.234375 14.96875 
Q 45.65625 7.234375 40.5 3 
Q 35.359375 -1.21875 27.484375 -1.21875 
Q 17.140625 -1.21875 11.234375 6.203125 
Q 4.15625 15.140625 4.15625 35.296875 
z
M 13.1875 35.296875 
Q 13.1875 17.671875 17.3125 11.828125 
Q 21.4375 6 27.484375 6 
Q 33.546875 6 37.671875 11.859375 
Q 41.796875 17.71875 41.796875 35.296875 
Q 41.796875 52.984375 37.671875 58.78125 
Q 33.546875 64.59375 27.390625 64.59375 
Q 21.34375 64.59375 17.71875 59.46875 
Q 13.1875 52.9375 13.1875 35.296875 
z
" id="ArialMT-48"/>
       </defs>
       <use xlink:href="#ArialMT-53"/>
       <use x="55.615234" xlink:href="#ArialMT-48"/>
      </g>
     </g>
    </g>
    <g id="xtick_2">
     <g id="line2d_4">
      <path clip-path="url(#pcd9b6470c4)" d="M 455.8 579.494531 
L 455.8 25.094531 
" style="fill:none;stroke:#b0b0b0;stroke-linecap:square;stroke-width:0.8;"/>
     </g>
     <g id="line2d_5">
      <g>
       <use style="stroke:#000000;stroke-width:7;" x="455.8" xlink:href="#m1b3281f5c6" y="579.494531"/>
      </g>
     </g>
     <g id="text_2">
      <!-- 100 -->
      <g transform="translate(414.092969 638.783594)scale(0.5 -0.5)">
       <defs>
        <path d="M 37.25 0 
L 28.46875 0 
L 28.46875 56 
Q 25.296875 52.984375 20.140625 49.953125 
Q 14.984375 46.921875 10.890625 45.40625 
L 10.890625 53.90625 
Q 18.265625 57.375 23.78125 62.296875 
Q 29.296875 67.234375 31.59375 71.875 
L 37.25 71.875 
z
" id="ArialMT-49"/>
       </defs>
       <use xlink:href="#ArialMT-49"/>
       <use x="55.615234" xlink:href="#ArialMT-48"/>
       <use x="111.230469" xlink:href="#ArialMT-48"/>
      </g>
     </g>
    </g>
    <g id="xtick_3">
     <g id="line2d_6">
      <path clip-path="url(#pcd9b6470c4)" d="M 641.8 579.494531 
L 641.8 25.094531 
" style="fill:none;stroke:#b0b0b0;stroke-linecap:square;stroke-width:0.8;"/>
     </g>
     <g id="line2d_7">
      <g>
       <use style="stroke:#000000;stroke-width:7;" x="641.8" xlink:href="#m1b3281f5c6" y="579.494531"/>
      </g>
     </g>
     <g id="text_3">
      <!-- 150 -->
      <g transform="translate(600.092969 638.783594)scale(0.5 -0.5)">
       <use xlink:href="#ArialMT-49"/>
       <use x="55.615234" xlink:href="#ArialMT-53"/>
       <use x="111.230469" xlink:href="#ArialMT-48"/>
      </g>
     </g>
    </g>
    <g id="text_4">
     <!-- $N_{residues}$ -->
     <g transform="translate(343.6 695.667969)scale(0.6 -0.6)">
      <defs>
       <path d="M 16.890625 72.90625 
L 30.171875 72.90625 
L 50.296875 10.40625 
L 62.5 72.90625 
L 72.125 72.90625 
L 57.90625 0 
L 44.578125 0 
L 24.515625 62.890625 
L 12.3125 0 
L 2.6875 0 
z
" id="DejaVuSans-Oblique-78"/>
       <path d="M 44.578125 46.390625 
Q 43.21875 47.125 41.453125 47.515625 
Q 39.703125 47.90625 37.703125 47.90625 
Q 30.515625 47.90625 25.140625 42.453125 
Q 19.78125 37.015625 18.015625 27.875 
L 12.5 0 
L 3.515625 0 
L 14.203125 54.6875 
L 23.1875 54.6875 
L 21.484375 46.1875 
Q 25.046875 50.921875 30 53.453125 
Q 34.96875 56 40.578125 56 
Q 42.046875 56 43.453125 55.828125 
Q 44.875 55.671875 46.296875 55.28125 
z
" id="DejaVuSans-Oblique-114"/>
       <path d="M 48.09375 32.234375 
Q 48.25 33.015625 48.3125 33.84375 
Q 48.390625 34.671875 48.390625 35.5 
Q 48.390625 41.453125 44.890625 44.921875 
Q 41.40625 48.390625 35.40625 48.390625 
Q 28.71875 48.390625 23.578125 44.15625 
Q 18.453125 39.9375 15.828125 32.171875 
z
M 55.90625 25.203125 
L 14.109375 25.203125 
Q 13.8125 23.34375 13.71875 22.265625 
Q 13.625 21.1875 13.625 20.40625 
Q 13.625 13.625 17.796875 9.90625 
Q 21.96875 6.203125 29.59375 6.203125 
Q 35.453125 6.203125 40.671875 7.515625 
Q 45.90625 8.84375 50.390625 11.375 
L 48.6875 2.484375 
Q 43.84375 0.53125 38.6875 -0.4375 
Q 33.546875 -1.421875 28.21875 -1.421875 
Q 16.84375 -1.421875 10.71875 4.015625 
Q 4.59375 9.46875 4.59375 19.484375 
Q 4.59375 28.03125 7.640625 35.375 
Q 10.6875 42.71875 16.609375 48.484375 
Q 20.40625 52.09375 25.65625 54.046875 
Q 30.90625 56 36.8125 56 
Q 46.09375 56 51.578125 50.4375 
Q 57.078125 44.875 57.078125 35.5 
Q 57.078125 33.25 56.78125 30.6875 
Q 56.5 28.125 55.90625 25.203125 
z
" id="DejaVuSans-Oblique-101"/>
       <path d="M 50 53.078125 
L 48.296875 44.578125 
Q 44.734375 46.53125 40.765625 47.5 
Q 36.8125 48.484375 32.625 48.484375 
Q 25.53125 48.484375 21.453125 46.0625 
Q 17.390625 43.65625 17.390625 39.5 
Q 17.390625 34.671875 26.859375 32.078125 
Q 27.59375 31.890625 27.9375 31.78125 
L 30.8125 30.90625 
Q 39.796875 28.421875 42.796875 25.6875 
Q 45.796875 22.953125 45.796875 18.21875 
Q 45.796875 9.515625 38.890625 4.046875 
Q 31.984375 -1.421875 20.796875 -1.421875 
Q 16.453125 -1.421875 11.671875 -0.578125 
Q 6.890625 0.25 1.125 2 
L 2.875 11.28125 
Q 7.8125 8.734375 12.59375 7.421875 
Q 17.390625 6.109375 21.78125 6.109375 
Q 28.375 6.109375 32.5 8.9375 
Q 36.625 11.765625 36.625 16.109375 
Q 36.625 20.796875 25.78125 23.6875 
L 24.859375 23.921875 
L 21.78125 24.703125 
Q 14.9375 26.515625 11.765625 29.46875 
Q 8.59375 32.421875 8.59375 37.015625 
Q 8.59375 45.75 15.15625 50.875 
Q 21.734375 56 33.015625 56 
Q 37.453125 56 41.671875 55.265625 
Q 45.90625 54.546875 50 53.078125 
z
" id="DejaVuSans-Oblique-115"/>
       <path d="M 18.3125 75.984375 
L 27.296875 75.984375 
L 25.09375 64.59375 
L 16.109375 64.59375 
z
M 14.203125 54.6875 
L 23.1875 54.6875 
L 12.5 0 
L 3.515625 0 
z
" id="DejaVuSans-Oblique-105"/>
       <path d="M 41.796875 8.203125 
Q 38.1875 3.46875 33.25 1.015625 
Q 28.328125 -1.421875 22.3125 -1.421875 
Q 14.109375 -1.421875 9.34375 4.171875 
Q 4.59375 9.765625 4.59375 19.484375 
Q 4.59375 27.59375 7.46875 34.9375 
Q 10.359375 42.28125 15.828125 48.09375 
Q 19.4375 51.953125 23.96875 53.96875 
Q 28.515625 56 33.5 56 
Q 38.765625 56 42.796875 53.453125 
Q 46.828125 50.921875 49.03125 46.1875 
L 54.890625 75.984375 
L 63.921875 75.984375 
L 49.125 0 
L 40.09375 0 
z
M 13.921875 21.09375 
Q 13.921875 14.015625 17.109375 10.0625 
Q 20.3125 6.109375 25.984375 6.109375 
Q 30.171875 6.109375 33.765625 8.125 
Q 37.359375 10.15625 40.09375 14.109375 
Q 42.96875 18.21875 44.625 23.578125 
Q 46.296875 28.953125 46.296875 34.1875 
Q 46.296875 40.96875 43.09375 44.765625 
Q 39.890625 48.578125 34.28125 48.578125 
Q 30.03125 48.578125 26.359375 46.578125 
Q 22.703125 44.578125 20.125 40.828125 
Q 17.28125 36.765625 15.59375 31.390625 
Q 13.921875 26.03125 13.921875 21.09375 
z
" id="DejaVuSans-Oblique-100"/>
       <path d="M 6.6875 21.6875 
L 13.09375 54.6875 
L 22.125 54.6875 
L 15.71875 22.015625 
Q 15.234375 19.625 15.015625 17.921875 
Q 14.796875 16.21875 14.796875 15.09375 
Q 14.796875 10.9375 17.328125 8.65625 
Q 19.875 6.390625 24.515625 6.390625 
Q 31.734375 6.390625 37 11.265625 
Q 42.28125 16.15625 43.890625 24.421875 
L 49.90625 54.6875 
L 58.890625 54.6875 
L 48.296875 0 
L 39.3125 0 
L 41.109375 8.59375 
Q 37.3125 3.8125 32.0625 1.1875 
Q 26.8125 -1.421875 20.90625 -1.421875 
Q 13.71875 -1.421875 9.71875 2.515625 
Q 5.71875 6.453125 5.71875 13.484375 
Q 5.71875 14.9375 5.953125 17.140625 
Q 6.203125 19.34375 6.6875 21.6875 
z
" id="DejaVuSans-Oblique-117"/>
      </defs>
      <use transform="translate(0 0.09375)" xlink:href="#DejaVuSans-Oblique-78"/>
      <use transform="translate(74.804688 -16.3125)scale(0.7)" xlink:href="#DejaVuSans-Oblique-114"/>
      <use transform="translate(103.583984 -16.3125)scale(0.7)" xlink:href="#DejaVuSans-Oblique-101"/>
      <use transform="translate(146.650391 -16.3125)scale(0.7)" xlink:href="#DejaVuSans-Oblique-115"/>
      <use transform="translate(183.120117 -16.3125)scale(0.7)" xlink:href="#DejaVuSans-Oblique-105"/>
      <use transform="translate(202.568359 -16.3125)scale(0.7)" xlink:href="#DejaVuSans-Oblique-100"/>
      <use transform="translate(247.001953 -16.3125)scale(0.7)" xlink:href="#DejaVuSans-Oblique-117"/>
      <use transform="translate(291.367188 -16.3125)scale(0.7)" xlink:href="#DejaVuSans-Oblique-101"/>
      <use transform="translate(334.433594 -16.3125)scale(0.7)" xlink:href="#DejaVuSans-Oblique-115"/>
     </g>
    </g>
   </g>
   <g id="matplotlib.axis_2">
    <g id="ytick_1">
     <g id="line2d_8">
      <path clip-path="url(#pcd9b6470c4)" d="M 176.8 579.494531 
L 734.8 579.494531 
" style="fill:none;stroke:#b0b0b0;stroke-linecap:square;stroke-width:0.8;"/>
     </g>
     <g id="line2d_9">
      <defs>
       <path d="M 0 0 
L -20 0 
" id="mf1d1cca0d8" style="stroke:#000000;stroke-width:7;"/>
      </defs>
      <g>
       <use style="stroke:#000000;stroke-width:7;" x="176.8" xlink:href="#mf1d1cca0d8" y="579.494531"/>
      </g>
     </g>
     <g id="text_5">
      <!-- 0.0 -->
      <g transform="translate(83.8 597.389063)scale(0.5 -0.5)">
       <defs>
        <path d="M 9.078125 0 
L 9.078125 10.015625 
L 19.09375 10.015625 
L 19.09375 0 
z
" id="ArialMT-46"/>
       </defs>
       <use xlink:href="#ArialMT-48"/>
       <use x="55.615234" xlink:href="#ArialMT-46"/>
       <use x="83.398438" xlink:href="#ArialMT-48"/>
      </g>
     </g>
    </g>
    <g id="ytick_2">
     <g id="line2d_10">
      <path clip-path="url(#pcd9b6470c4)" d="M 176.8 440.894531 
L 734.8 440.894531 
" style="fill:none;stroke:#b0b0b0;stroke-linecap:square;stroke-width:0.8;"/>
     </g>
     <g id="line2d_11">
      <g>
       <use style="stroke:#000000;stroke-width:7;" x="176.8" xlink:href="#mf1d1cca0d8" y="440.894531"/>
      </g>
     </g>
     <g id="text_6">
      <!-- 0.2 -->
      <g transform="translate(83.8 458.789062)scale(0.5 -0.5)">
       <defs>
        <path d="M 50.34375 8.453125 
L 50.34375 0 
L 3.03125 0 
Q 2.9375 3.171875 4.046875 6.109375 
Q 5.859375 10.9375 9.828125 15.625 
Q 13.8125 20.3125 21.34375 26.46875 
Q 33.015625 36.03125 37.109375 41.625 
Q 41.21875 47.21875 41.21875 52.203125 
Q 41.21875 57.421875 37.46875 61 
Q 33.734375 64.59375 27.734375 64.59375 
Q 21.390625 64.59375 17.578125 60.78125 
Q 13.765625 56.984375 13.71875 50.25 
L 4.6875 51.171875 
Q 5.609375 61.28125 11.65625 66.578125 
Q 17.71875 71.875 27.9375 71.875 
Q 38.234375 71.875 44.234375 66.15625 
Q 50.25 60.453125 50.25 52 
Q 50.25 47.703125 48.484375 43.546875 
Q 46.734375 39.40625 42.65625 34.8125 
Q 38.578125 30.21875 29.109375 22.21875 
Q 21.1875 15.578125 18.9375 13.203125 
Q 16.703125 10.84375 15.234375 8.453125 
z
" id="ArialMT-50"/>
       </defs>
       <use xlink:href="#ArialMT-48"/>
       <use x="55.615234" xlink:href="#ArialMT-46"/>
       <use x="83.398438" xlink:href="#ArialMT-50"/>
      </g>
     </g>
    </g>
    <g id="ytick_3">
     <g id="line2d_12">
      <path clip-path="url(#pcd9b6470c4)" d="M 176.8 302.294531 
L 734.8 302.294531 
" style="fill:none;stroke:#b0b0b0;stroke-linecap:square;stroke-width:0.8;"/>
     </g>
     <g id="line2d_13">
      <g>
       <use style="stroke:#000000;stroke-width:7;" x="176.8" xlink:href="#mf1d1cca0d8" y="302.294531"/>
      </g>
     </g>
     <g id="text_7">
      <!-- 0.4 -->
      <g transform="translate(83.8 320.189062)scale(0.5 -0.5)">
       <defs>
        <path d="M 32.328125 0 
L 32.328125 17.140625 
L 1.265625 17.140625 
L 1.265625 25.203125 
L 33.9375 71.578125 
L 41.109375 71.578125 
L 41.109375 25.203125 
L 50.78125 25.203125 
L 50.78125 17.140625 
L 41.109375 17.140625 
L 41.109375 0 
z
M 32.328125 25.203125 
L 32.328125 57.46875 
L 9.90625 25.203125 
z
" id="ArialMT-52"/>
       </defs>
       <use xlink:href="#ArialMT-48"/>
       <use x="55.615234" xlink:href="#ArialMT-46"/>
       <use x="83.398438" xlink:href="#ArialMT-52"/>
      </g>
     </g>
    </g>
    <g id="ytick_4">
     <g id="line2d_14">
      <path clip-path="url(#pcd9b6470c4)" d="M 176.8 163.694531 
L 734.8 163.694531 
" style="fill:none;stroke:#b0b0b0;stroke-linecap:square;stroke-width:0.8;"/>
     </g>
     <g id="line2d_15">
      <g>
       <use style="stroke:#000000;stroke-width:7;" x="176.8" xlink:href="#mf1d1cca0d8" y="163.694531"/>
      </g>
     </g>
     <g id="text_8">
      <!-- 0.6 -->
      <g transform="translate(83.8 181.589062)scale(0.5 -0.5)">
       <defs>
        <path d="M 49.75 54.046875 
L 41.015625 53.375 
Q 39.84375 58.546875 37.703125 60.890625 
Q 34.125 64.65625 28.90625 64.65625 
Q 24.703125 64.65625 21.53125 62.3125 
Q 17.390625 59.28125 14.984375 53.46875 
Q 12.59375 47.65625 12.5 36.921875 
Q 15.671875 41.75 20.265625 44.09375 
Q 24.859375 46.4375 29.890625 46.4375 
Q 38.671875 46.4375 44.84375 39.96875 
Q 51.03125 33.5 51.03125 23.25 
Q 51.03125 16.5 48.125 10.71875 
Q 45.21875 4.9375 40.140625 1.859375 
Q 35.0625 -1.21875 28.609375 -1.21875 
Q 17.625 -1.21875 10.6875 6.859375 
Q 3.765625 14.9375 3.765625 33.5 
Q 3.765625 54.25 11.421875 63.671875 
Q 18.109375 71.875 29.4375 71.875 
Q 37.890625 71.875 43.28125 67.140625 
Q 48.6875 62.40625 49.75 54.046875 
z
M 13.875 23.1875 
Q 13.875 18.65625 15.796875 14.5 
Q 17.71875 10.359375 21.1875 8.171875 
Q 24.65625 6 28.46875 6 
Q 34.03125 6 38.03125 10.484375 
Q 42.046875 14.984375 42.046875 22.703125 
Q 42.046875 30.125 38.078125 34.390625 
Q 34.125 38.671875 28.125 38.671875 
Q 22.171875 38.671875 18.015625 34.390625 
Q 13.875 30.125 13.875 23.1875 
z
" id="ArialMT-54"/>
       </defs>
       <use xlink:href="#ArialMT-48"/>
       <use x="55.615234" xlink:href="#ArialMT-46"/>
       <use x="83.398438" xlink:href="#ArialMT-54"/>
      </g>
     </g>
    </g>
    <g id="ytick_5">
     <g id="line2d_16">
      <path clip-path="url(#pcd9b6470c4)" d="M 176.8 25.094531 
L 734.8 25.094531 
" style="fill:none;stroke:#b0b0b0;stroke-linecap:square;stroke-width:0.8;"/>
     </g>
     <g id="line2d_17">
      <g>
       <use style="stroke:#000000;stroke-width:7;" x="176.8" xlink:href="#mf1d1cca0d8" y="25.094531"/>
      </g>
     </g>
     <g id="text_9">
      <!-- 0.8 -->
      <g transform="translate(83.8 42.989062)scale(0.5 -0.5)">
       <defs>
        <path d="M 17.671875 38.8125 
Q 12.203125 40.828125 9.5625 44.53125 
Q 6.9375 48.25 6.9375 53.421875 
Q 6.9375 61.234375 12.546875 66.546875 
Q 18.171875 71.875 27.484375 71.875 
Q 36.859375 71.875 42.578125 66.421875 
Q 48.296875 60.984375 48.296875 53.171875 
Q 48.296875 48.1875 45.671875 44.5 
Q 43.0625 40.828125 37.75 38.8125 
Q 44.34375 36.671875 47.78125 31.875 
Q 51.21875 27.09375 51.21875 20.453125 
Q 51.21875 11.28125 44.71875 5.03125 
Q 38.234375 -1.21875 27.640625 -1.21875 
Q 17.046875 -1.21875 10.546875 5.046875 
Q 4.046875 11.328125 4.046875 20.703125 
Q 4.046875 27.6875 7.59375 32.390625 
Q 11.140625 37.109375 17.671875 38.8125 
z
M 15.921875 53.71875 
Q 15.921875 48.640625 19.1875 45.40625 
Q 22.46875 42.1875 27.6875 42.1875 
Q 32.765625 42.1875 36.015625 45.375 
Q 39.265625 48.578125 39.265625 53.21875 
Q 39.265625 58.0625 35.90625 61.359375 
Q 32.5625 64.65625 27.59375 64.65625 
Q 22.5625 64.65625 19.234375 61.421875 
Q 15.921875 58.203125 15.921875 53.71875 
z
M 13.09375 20.65625 
Q 13.09375 16.890625 14.875 13.375 
Q 16.65625 9.859375 20.171875 7.921875 
Q 23.6875 6 27.734375 6 
Q 34.03125 6 38.125 10.046875 
Q 42.234375 14.109375 42.234375 20.359375 
Q 42.234375 26.703125 38.015625 30.859375 
Q 33.796875 35.015625 27.4375 35.015625 
Q 21.234375 35.015625 17.15625 30.90625 
Q 13.09375 26.8125 13.09375 20.65625 
z
" id="ArialMT-56"/>
       </defs>
       <use xlink:href="#ArialMT-48"/>
       <use x="55.615234" xlink:href="#ArialMT-46"/>
       <use x="83.398438" xlink:href="#ArialMT-56"/>
      </g>
     </g>
    </g>
    <g id="text_10">
     <!-- $E_f^{cell}$ -->
     <g transform="translate(63 360.494531)rotate(-90)scale(0.6 -0.6)">
      <defs>
       <path d="M 16.890625 72.90625 
L 62.984375 72.90625 
L 61.375 64.59375 
L 25.09375 64.59375 
L 20.90625 43.015625 
L 55.71875 43.015625 
L 54.109375 34.71875 
L 19.28125 34.71875 
L 14.203125 8.296875 
L 51.3125 8.296875 
L 49.703125 0 
L 2.6875 0 
z
" id="DejaVuSans-Oblique-69"/>
       <path d="M 53.609375 52.59375 
L 51.8125 43.703125 
Q 48.578125 46.046875 44.9375 47.21875 
Q 41.3125 48.390625 37.40625 48.390625 
Q 33.109375 48.390625 29.21875 46.875 
Q 25.34375 45.359375 22.703125 42.578125 
Q 18.5 38.328125 16.203125 32.609375 
Q 13.921875 26.90625 13.921875 20.796875 
Q 13.921875 13.421875 17.609375 9.8125 
Q 21.296875 6.203125 28.8125 6.203125 
Q 32.515625 6.203125 36.6875 7.328125 
Q 40.875 8.453125 45.40625 10.6875 
L 43.703125 1.8125 
Q 39.796875 0.203125 35.671875 -0.609375 
Q 31.546875 -1.421875 27.203125 -1.421875 
Q 16.3125 -1.421875 10.453125 4.015625 
Q 4.59375 9.46875 4.59375 19.578125 
Q 4.59375 28.078125 7.640625 35.234375 
Q 10.6875 42.390625 16.703125 48.09375 
Q 20.796875 52 26.3125 54 
Q 31.84375 56 38.375 56 
Q 42.1875 56 45.9375 55.140625 
Q 49.703125 54.296875 53.609375 52.59375 
z
" id="DejaVuSans-Oblique-99"/>
       <path d="M 18.3125 75.984375 
L 27.296875 75.984375 
L 12.5 0 
L 3.515625 0 
z
" id="DejaVuSans-Oblique-108"/>
       <path d="M 47.796875 75.984375 
L 46.390625 68.5 
L 37.796875 68.5 
Q 32.90625 68.5 30.6875 66.578125 
Q 28.46875 64.65625 27.390625 59.515625 
L 26.421875 54.6875 
L 41.21875 54.6875 
L 39.890625 47.703125 
L 25.09375 47.703125 
L 15.828125 0 
L 6.78125 0 
L 16.109375 47.703125 
L 7.515625 47.703125 
L 8.796875 54.6875 
L 17.390625 54.6875 
L 18.109375 58.5 
Q 19.96875 68.171875 24.625 72.078125 
Q 29.296875 75.984375 39.3125 75.984375 
z
" id="DejaVuSans-Oblique-102"/>
      </defs>
      <use transform="translate(0 0.470313)" xlink:href="#DejaVuSans-Oblique-69"/>
      <use transform="translate(70.200365 39.810938)scale(0.7)" xlink:href="#DejaVuSans-Oblique-99"/>
      <use transform="translate(108.686693 39.810938)scale(0.7)" xlink:href="#DejaVuSans-Oblique-101"/>
      <use transform="translate(151.753099 39.810938)scale(0.7)" xlink:href="#DejaVuSans-Oblique-108"/>
      <use transform="translate(171.201341 39.810938)scale(0.7)" xlink:href="#DejaVuSans-Oblique-108"/>
      <use transform="translate(63.183594 -26.873437)scale(0.7)" xlink:href="#DejaVuSans-Oblique-102"/>
     </g>
    </g>
   </g>
   <g id="LineCollection_1">
    <path clip-path="url(#pcd9b6470c4)" d="M 210.28 200.348604 
L 210.28 142.830791 
" style="fill:none;stroke:#000000;stroke-width:10;"/>
   </g>
   <g id="LineCollection_2">
    <path clip-path="url(#pcd9b6470c4)" d="M 210.28 290.086974 
L 210.28 120.472215 
" style="fill:none;stroke:#000000;stroke-width:3;"/>
   </g>
   <g id="LineCollection_3">
    <path clip-path="url(#pcd9b6470c4)" d="M 392.56 353.847163 
L 392.56 299.04069 
" style="fill:none;stroke:#000000;stroke-width:10;"/>
   </g>
   <g id="LineCollection_4">
    <path clip-path="url(#pcd9b6470c4)" d="M 392.56 384.462452 
L 392.56 252.495902 
" style="fill:none;stroke:#000000;stroke-width:3;"/>
   </g>
   <g id="LineCollection_5">
    <path clip-path="url(#pcd9b6470c4)" d="M 232.6 154.382787 
L 232.6 124.305642 
" style="fill:none;stroke:#000000;stroke-width:10;"/>
   </g>
   <g id="LineCollection_6">
    <path clip-path="url(#pcd9b6470c4)" d="M 232.6 248.030818 
L 232.6 106.245639 
" style="fill:none;stroke:#000000;stroke-width:3;"/>
   </g>
   <g id="LineCollection_7">
    <path clip-path="url(#pcd9b6470c4)" d="M 690.16 331.116506 
L 690.16 259.580528 
" style="fill:none;stroke:#000000;stroke-width:10;"/>
   </g>
   <g id="LineCollection_8">
    <path clip-path="url(#pcd9b6470c4)" d="M 690.16 365.034932 
L 690.16 198.146749 
" style="fill:none;stroke:#000000;stroke-width:3;"/>
   </g>
   <g id="LineCollection_9">
    <path clip-path="url(#pcd9b6470c4)" d="M 310.72 363.274122 
L 310.72 334.543948 
" style="fill:none;stroke:#000000;stroke-width:10;"/>
   </g>
   <g id="LineCollection_10">
    <path clip-path="url(#pcd9b6470c4)" d="M 310.72 389.204125 
L 310.72 311.349887 
" style="fill:none;stroke:#000000;stroke-width:3;"/>
   </g>
   <g id="patch_3">
    <path d="M 176.8 579.494531 
L 176.8 25.094531 
" style="fill:none;stroke:#000000;stroke-linecap:square;stroke-linejoin:miter;stroke-width:7;"/>
   </g>
   <g id="patch_4">
    <path d="M 734.8 579.494531 
L 734.8 25.094531 
" style="fill:none;stroke:#000000;stroke-linecap:square;stroke-linejoin:miter;stroke-width:7;"/>
   </g>
   <g id="patch_5">
    <path d="M 176.8 579.494531 
L 734.8 579.494531 
" style="fill:none;stroke:#000000;stroke-linecap:square;stroke-linejoin:miter;stroke-width:7;"/>
   </g>
   <g id="patch_6">
    <path d="M 176.8 25.094531 
L 734.8 25.094531 
" style="fill:none;stroke:#000000;stroke-linecap:square;stroke-linejoin:miter;stroke-width:7;"/>
   </g>
   <g id="PathCollection_1">
    <defs>
     <path d="M -4.472136 4.472136 
L 4.472136 4.472136 
L 4.472136 -4.472136 
L -4.472136 -4.472136 
z
" id="m775e44a06e" style="stroke:#000000;stroke-width:3;"/>
    </defs>
    <g clip-path="url(#pcd9b6470c4)">
     <use style="fill:#ffffff;stroke:#000000;stroke-width:3;" x="210.28" xlink:href="#m775e44a06e" y="164.24424"/>
    </g>
   </g>
   <g id="PathCollection_2">
    <g clip-path="url(#pcd9b6470c4)">
     <use style="fill:#ffffff;stroke:#000000;stroke-width:3;" x="392.56" xlink:href="#m775e44a06e" y="328.711802"/>
    </g>
   </g>
   <g id="PathCollection_3">
    <g clip-path="url(#pcd9b6470c4)">
     <use style="fill:#ffffff;stroke:#000000;stroke-width:3;" x="232.6" xlink:href="#m775e44a06e" y="137.77506"/>
    </g>
   </g>
   <g id="PathCollection_4">
    <g clip-path="url(#pcd9b6470c4)">
     <use style="fill:#ffffff;stroke:#000000;stroke-width:3;" x="690.16" xlink:href="#m775e44a06e" y="301.157565"/>
    </g>
   </g>
   <g id="PathCollection_5">
    <g clip-path="url(#pcd9b6470c4)">
     <use style="fill:#ffffff;stroke:#000000;stroke-width:3;" x="310.72" xlink:href="#m775e44a06e" y="349.245771"/>
    </g>
   </g>
  </g>
 </g>
 <defs>
  <clipPath id="pcd9b6470c4">
   <rect height="554.4" width="558" x="176.8" y="25.094531"/>
  </clipPath>
 </defs>
</svg>
