<?xml version="1.0" encoding="utf-8" standalone="no"?>
<!DOCTYPE svg PUBLIC "-//W3C//DTD SVG 1.1//EN"
  "http://www.w3.org/Graphics/SVG/1.1/DTD/svg11.dtd">
<!-- Created with matplotlib (https://matplotlib.org/) -->
<svg height="655.921094pt" version="1.1" viewBox="0 0 742 655.921094" width="742pt" xmlns="http://www.w3.org/2000/svg" xmlns:xlink="http://www.w3.org/1999/xlink">
 <metadata>
  <rdf:RDF xmlns:cc="http://creativecommons.org/ns#" xmlns:dc="http://purl.org/dc/elements/1.1/" xmlns:rdf="http://www.w3.org/1999/02/22-rdf-syntax-ns#">
   <cc:Work>
    <dc:type rdf:resource="http://purl.org/dc/dcmitype/StillImage"/>
    <dc:date>2022-06-21T14:28:38.824566</dc:date>
    <dc:format>image/svg+xml</dc:format>
    <dc:creator>
     <cc:Agent>
      <dc:title>Matplotlib v3.3.4, https://matplotlib.org/</dc:title>
     </cc:Agent>
    </dc:creator>
   </cc:Work>
  </rdf:RDF>
 </metadata>
 <defs>
  <style type="text/css">*{stroke-linecap:butt;stroke-linejoin:round;}</style>
 </defs>
 <g id="figure_1">
  <g id="patch_1">
   <path d="M 0 655.921094 
L 742 655.921094 
L 742 0 
L 0 0 
z
" style="fill:#ffffff;"/>
  </g>
  <g id="axes_1">
   <g id="patch_2">
    <path d="M 176.8 579.494531 
L 734.8 579.494531 
L 734.8 25.094531 
L 176.8 25.094531 
z
" style="fill:#ffffff;"/>
   </g>
   <g id="PolyCollection_1">
    <path clip-path="url(#p1453bc7444)" d="M 107.05 291.365564 
L 107.05 254.396618 
L 1083.55 254.396618 
L 1083.55 291.365564 
L 1083.55 291.365564 
L 107.05 291.365564 
z
" style="fill:#5f9ea0;fill-opacity:0.1;stroke:#5f9ea0;stroke-opacity:0.1;"/>
   </g>
   <g id="PolyCollection_2">
    <path clip-path="url(#p1453bc7444)" d="M 107.05 291.365564 
L 107.05 254.396618 
L 1083.55 254.396618 
L 1083.55 291.365564 
L 1083.55 291.365564 
L 107.05 291.365564 
z
" style="fill:#5f9ea0;fill-opacity:0.1;stroke:#5f9ea0;stroke-opacity:0.1;"/>
   </g>
   <g id="PolyCollection_3">
    <path clip-path="url(#p1453bc7444)" d="M 107.05 291.365564 
L 107.05 254.396618 
L 1083.55 254.396618 
L 1083.55 291.365564 
L 1083.55 291.365564 
L 107.05 291.365564 
z
" style="fill:#5f9ea0;fill-opacity:0.1;stroke:#5f9ea0;stroke-opacity:0.1;"/>
   </g>
   <g id="PolyCollection_4">
    <path clip-path="url(#p1453bc7444)" d="M 107.05 291.365564 
L 107.05 254.396618 
L 1083.55 254.396618 
L 1083.55 291.365564 
L 1083.55 291.365564 
L 107.05 291.365564 
z
" style="fill:#5f9ea0;fill-opacity:0.1;stroke:#5f9ea0;stroke-opacity:0.1;"/>
   </g>
   <g id="line2d_1">
    <path clip-path="url(#p1453bc7444)" d="M 107.05 272.881091 
L 743 272.881091 
" style="fill:none;stroke:#5f9ea0;stroke-dasharray:18.5,8;stroke-dashoffset:0;stroke-width:5;"/>
   </g>
   <g id="line2d_2">
    <path clip-path="url(#p1453bc7444)" d="M 107.05 272.881091 
L 743 272.881091 
" style="fill:none;stroke:#5f9ea0;stroke-dasharray:18.5,8;stroke-dashoffset:0;stroke-width:5;"/>
   </g>
   <g id="line2d_3">
    <path clip-path="url(#p1453bc7444)" d="M 107.05 272.881091 
L 743 272.881091 
" style="fill:none;stroke:#5f9ea0;stroke-dasharray:18.5,8;stroke-dashoffset:0;stroke-width:5;"/>
   </g>
   <g id="line2d_4">
    <path clip-path="url(#p1453bc7444)" d="M 107.05 272.881091 
L 743 272.881091 
" style="fill:none;stroke:#5f9ea0;stroke-dasharray:18.5,8;stroke-dashoffset:0;stroke-width:5;"/>
   </g>
   <g id="PolyCollection_5">
    <defs>
     <path d="M 246.630187 -176.774394 
L 246.469813 -176.774394 
L 246.43454 -180.906293 
L 246.403552 -185.038193 
L 246.384321 -189.170092 
L 246.37982 -193.301992 
L 246.386462 -197.433892 
L 246.395568 -201.565791 
L 246.397257 -205.697691 
L 246.385619 -209.82959 
L 246.362859 -213.96149 
L 246.33776 -218.09339 
L 246.31813 -222.225289 
L 246.304945 -226.357189 
L 246.294154 -230.489089 
L 246.282273 -234.620988 
L 246.269456 -238.752888 
L 246.259301 -242.884787 
L 246.255375 -247.016687 
L 246.254217 -251.148587 
L 246.24257 -255.280486 
L 246.207424 -259.412386 
L 246.150678 -263.544286 
L 246.089964 -267.676185 
L 246.042843 -271.808085 
L 246.011495 -275.939984 
L 245.982276 -280.071884 
L 245.937185 -284.203784 
L 245.866608 -288.335683 
L 245.776118 -292.467583 
L 245.682878 -296.599482 
L 245.602275 -300.731382 
L 245.535649 -304.863282 
L 245.471121 -308.995181 
L 245.396586 -313.127081 
L 245.31202 -317.258981 
L 245.229203 -321.39088 
L 245.160202 -325.52278 
L 245.107453 -329.654679 
L 245.06076 -333.786579 
L 244.995912 -337.918479 
L 244.880413 -342.050378 
L 244.695715 -346.182278 
L 244.459228 -350.314178 
L 244.217239 -354.446077 
L 244.009569 -358.577977 
L 243.839022 -362.709876 
L 243.674211 -366.841776 
L 243.479918 -370.973676 
L 243.244477 -375.105575 
L 242.982391 -379.237475 
L 242.713872 -383.369374 
L 242.441122 -387.501274 
L 242.146049 -391.633174 
L 241.813466 -395.765073 
L 241.452638 -399.896973 
L 241.088825 -404.028873 
L 240.732115 -408.160772 
L 240.363036 -412.292672 
L 239.953324 -416.424571 
L 239.487335 -420.556471 
L 238.953343 -424.688371 
L 238.331935 -428.82027 
L 237.614843 -432.95217 
L 236.826788 -437.084069 
L 236.003333 -441.215969 
L 235.142978 -445.347869 
L 234.196538 -449.479768 
L 233.105519 -453.611668 
L 231.845195 -457.743568 
L 230.438753 -461.875467 
L 228.930864 -466.007367 
L 227.336364 -470.139266 
L 225.615985 -474.271166 
L 223.705569 -478.403066 
L 221.570657 -482.534965 
L 219.254564 -486.666865 
L 216.897334 -490.798765 
L 214.714783 -494.930664 
L 212.960235 -499.062564 
L 211.883771 -503.194463 
L 211.675 -507.326363 
L 212.409862 -511.458263 
L 214.052663 -515.590162 
L 216.510188 -519.722062 
L 219.672189 -523.853961 
L 223.391349 -527.985861 
L 227.434652 -532.117761 
L 231.482451 -536.24966 
L 235.205902 -540.38156 
L 238.372332 -544.51346 
L 240.896265 -548.645359 
L 242.80556 -552.777259 
L 244.177484 -556.909158 
L 245.10722 -561.041058 
L 245.701191 -565.172958 
L 246.062381 -569.304857 
L 246.272717 -573.436757 
L 246.390026 -577.568656 
L 246.45438 -581.700556 
L 246.491925 -585.832456 
L 246.608075 -585.832456 
L 246.608075 -585.832456 
L 246.64562 -581.700556 
L 246.709974 -577.568656 
L 246.827283 -573.436757 
L 247.037619 -569.304857 
L 247.398809 -565.172958 
L 247.99278 -561.041058 
L 248.922516 -556.909158 
L 250.29444 -552.777259 
L 252.203735 -548.645359 
L 254.727668 -544.51346 
L 257.894098 -540.38156 
L 261.617549 -536.24966 
L 265.665348 -532.117761 
L 269.708651 -527.985861 
L 273.427811 -523.853961 
L 276.589812 -519.722062 
L 279.047337 -515.590162 
L 280.690138 -511.458263 
L 281.425 -507.326363 
L 281.216229 -503.194463 
L 280.139765 -499.062564 
L 278.385217 -494.930664 
L 276.202666 -490.798765 
L 273.845436 -486.666865 
L 271.529343 -482.534965 
L 269.394431 -478.403066 
L 267.484015 -474.271166 
L 265.763636 -470.139266 
L 264.169136 -466.007367 
L 262.661247 -461.875467 
L 261.254805 -457.743568 
L 259.994481 -453.611668 
L 258.903462 -449.479768 
L 257.957022 -445.347869 
L 257.096667 -441.215969 
L 256.273212 -437.084069 
L 255.485157 -432.95217 
L 254.768065 -428.82027 
L 254.146657 -424.688371 
L 253.612665 -420.556471 
L 253.146676 -416.424571 
L 252.736964 -412.292672 
L 252.367885 -408.160772 
L 252.011175 -404.028873 
L 251.647362 -399.896973 
L 251.286534 -395.765073 
L 250.953951 -391.633174 
L 250.658878 -387.501274 
L 250.386128 -383.369374 
L 250.117609 -379.237475 
L 249.855523 -375.105575 
L 249.620082 -370.973676 
L 249.425789 -366.841776 
L 249.260978 -362.709876 
L 249.090431 -358.577977 
L 248.882761 -354.446077 
L 248.640772 -350.314178 
L 248.404285 -346.182278 
L 248.219587 -342.050378 
L 248.104088 -337.918479 
L 248.03924 -333.786579 
L 247.992547 -329.654679 
L 247.939798 -325.52278 
L 247.870797 -321.39088 
L 247.78798 -317.258981 
L 247.703414 -313.127081 
L 247.628879 -308.995181 
L 247.564351 -304.863282 
L 247.497725 -300.731382 
L 247.417122 -296.599482 
L 247.323882 -292.467583 
L 247.233392 -288.335683 
L 247.162815 -284.203784 
L 247.117724 -280.071884 
L 247.088505 -275.939984 
L 247.057157 -271.808085 
L 247.010036 -267.676185 
L 246.949322 -263.544286 
L 246.892576 -259.412386 
L 246.85743 -255.280486 
L 246.845783 -251.148587 
L 246.844625 -247.016687 
L 246.840699 -242.884787 
L 246.830544 -238.752888 
L 246.817727 -234.620988 
L 246.805846 -230.489089 
L 246.795055 -226.357189 
L 246.78187 -222.225289 
L 246.76224 -218.09339 
L 246.737141 -213.96149 
L 246.714381 -209.82959 
L 246.702743 -205.697691 
L 246.704432 -201.565791 
L 246.713538 -197.433892 
L 246.72018 -193.301992 
L 246.715679 -189.170092 
L 246.696448 -185.038193 
L 246.66546 -180.906293 
L 246.630187 -176.774394 
z
" id="m1a80868b88" style="stroke:#000000;stroke-width:3;"/>
    </defs>
    <g clip-path="url(#p1453bc7444)">
     <use style="fill:#483d8b;stroke:#000000;stroke-width:3;" x="0" xlink:href="#m1a80868b88" y="655.921094"/>
    </g>
   </g>
   <g id="PolyCollection_6">
    <defs>
     <path d="M 386.129297 -175.764797 
L 385.970703 -175.764797 
L 385.93072 -179.678271 
L 385.911697 -183.591745 
L 385.921811 -187.505219 
L 385.944661 -191.418693 
L 385.954073 -195.332167 
L 385.937185 -199.245641 
L 385.896704 -203.159116 
L 385.848051 -207.07259 
L 385.812402 -210.986064 
L 385.795997 -214.899538 
L 385.788661 -218.813012 
L 385.783969 -222.726486 
L 385.784005 -226.63996 
L 385.790586 -230.553434 
L 385.797436 -234.466908 
L 385.790411 -238.380382 
L 385.768327 -242.293856 
L 385.747325 -246.20733 
L 385.726396 -250.120804 
L 385.690022 -254.034278 
L 385.651287 -257.947752 
L 385.636057 -261.861226 
L 385.637965 -265.7747 
L 385.638535 -269.688174 
L 385.63351 -273.601648 
L 385.62053 -277.515122 
L 385.59682 -281.428596 
L 385.572031 -285.342071 
L 385.560458 -289.255545 
L 385.553159 -293.169019 
L 385.528683 -297.082493 
L 385.487019 -300.995967 
L 385.436193 -304.909441 
L 385.366884 -308.822915 
L 385.256655 -312.736389 
L 385.089066 -316.649863 
L 384.859046 -320.563337 
L 384.549448 -324.476811 
L 384.113811 -328.390285 
L 383.500198 -332.303759 
L 382.676214 -336.217233 
L 381.601891 -340.130707 
L 380.192929 -344.044181 
L 378.333773 -347.957655 
L 376.003071 -351.871129 
L 373.36436 -355.784603 
L 370.559553 -359.698077 
L 367.50912 -363.611551 
L 364.152933 -367.525025 
L 360.71332 -371.4385 
L 357.497653 -375.351974 
L 354.700008 -379.265448 
L 352.561758 -383.178922 
L 351.36863 -387.092396 
L 351.175 -391.00587 
L 351.756344 -394.919344 
L 352.830085 -398.832818 
L 354.263206 -402.746292 
L 356.015085 -406.659766 
L 357.891085 -410.57324 
L 359.616142 -414.486714 
L 361.188366 -418.400188 
L 362.802075 -422.313662 
L 364.512342 -426.227136 
L 366.236311 -430.14061 
L 367.836951 -434.054084 
L 369.156359 -437.967558 
L 370.248581 -441.881032 
L 371.402615 -445.794506 
L 372.701667 -449.70798 
L 373.915917 -453.621455 
L 374.874808 -457.534929 
L 375.598721 -461.448403 
L 376.21931 -465.361877 
L 376.893963 -469.275351 
L 377.660175 -473.188825 
L 378.443655 -477.102299 
L 379.217882 -481.015773 
L 380.003525 -484.929247 
L 380.767348 -488.842721 
L 381.450734 -492.756195 
L 382.045646 -496.669669 
L 382.60103 -500.583143 
L 383.160961 -504.496617 
L 383.705719 -508.410091 
L 384.181776 -512.323565 
L 384.576447 -516.237039 
L 384.911825 -520.150513 
L 385.183579 -524.063987 
L 385.375353 -527.977461 
L 385.505158 -531.890935 
L 385.61423 -535.80441 
L 385.724255 -539.717884 
L 385.819105 -543.631358 
L 385.877214 -547.544832 
L 385.906029 -551.458306 
L 385.929321 -555.37178 
L 385.960567 -559.285254 
L 385.996253 -563.198728 
L 386.103747 -563.198728 
L 386.103747 -563.198728 
L 386.139433 -559.285254 
L 386.170679 -555.37178 
L 386.193971 -551.458306 
L 386.222786 -547.544832 
L 386.280895 -543.631358 
L 386.375745 -539.717884 
L 386.48577 -535.80441 
L 386.594842 -531.890935 
L 386.724647 -527.977461 
L 386.916421 -524.063987 
L 387.188175 -520.150513 
L 387.523553 -516.237039 
L 387.918224 -512.323565 
L 388.394281 -508.410091 
L 388.939039 -504.496617 
L 389.49897 -500.583143 
L 390.054354 -496.669669 
L 390.649266 -492.756195 
L 391.332652 -488.842721 
L 392.096475 -484.929247 
L 392.882118 -481.015773 
L 393.656345 -477.102299 
L 394.439825 -473.188825 
L 395.206037 -469.275351 
L 395.88069 -465.361877 
L 396.501279 -461.448403 
L 397.225192 -457.534929 
L 398.184083 -453.621455 
L 399.398333 -449.70798 
L 400.697385 -445.794506 
L 401.851419 -441.881032 
L 402.943641 -437.967558 
L 404.263049 -434.054084 
L 405.863689 -430.14061 
L 407.587658 -426.227136 
L 409.297925 -422.313662 
L 410.911634 -418.400188 
L 412.483858 -414.486714 
L 414.208915 -410.57324 
L 416.084915 -406.659766 
L 417.836794 -402.746292 
L 419.269915 -398.832818 
L 420.343656 -394.919344 
L 420.925 -391.00587 
L 420.73137 -387.092396 
L 419.538242 -383.178922 
L 417.399992 -379.265448 
L 414.602347 -375.351974 
L 411.38668 -371.4385 
L 407.947067 -367.525025 
L 404.59088 -363.611551 
L 401.540447 -359.698077 
L 398.73564 -355.784603 
L 396.096929 -351.871129 
L 393.766227 -347.957655 
L 391.907071 -344.044181 
L 390.498109 -340.130707 
L 389.423786 -336.217233 
L 388.599802 -332.303759 
L 387.986189 -328.390285 
L 387.550552 -324.476811 
L 387.240954 -320.563337 
L 387.010934 -316.649863 
L 386.843345 -312.736389 
L 386.733116 -308.822915 
L 386.663807 -304.909441 
L 386.612981 -300.995967 
L 386.571317 -297.082493 
L 386.546841 -293.169019 
L 386.539542 -289.255545 
L 386.527969 -285.342071 
L 386.50318 -281.428596 
L 386.47947 -277.515122 
L 386.46649 -273.601648 
L 386.461465 -269.688174 
L 386.462035 -265.7747 
L 386.463943 -261.861226 
L 386.448713 -257.947752 
L 386.409978 -254.034278 
L 386.373604 -250.120804 
L 386.352675 -246.20733 
L 386.331673 -242.293856 
L 386.309589 -238.380382 
L 386.302564 -234.466908 
L 386.309414 -230.553434 
L 386.315995 -226.63996 
L 386.316031 -222.726486 
L 386.311339 -218.813012 
L 386.304003 -214.899538 
L 386.287598 -210.986064 
L 386.251949 -207.07259 
L 386.203296 -203.159116 
L 386.162815 -199.245641 
L 386.145927 -195.332167 
L 386.155339 -191.418693 
L 386.178189 -187.505219 
L 386.188303 -183.591745 
L 386.16928 -179.678271 
L 386.129297 -175.764797 
z
" id="m2691c94995" style="stroke:#000000;stroke-width:3;"/>
    </defs>
    <g clip-path="url(#p1453bc7444)">
     <use style="fill:#8a2be2;stroke:#000000;stroke-width:3;" x="0" xlink:href="#m2691c94995" y="655.921094"/>
    </g>
   </g>
   <g id="PolyCollection_7">
    <defs>
     <path d="M 525.769548 -175.722045 
L 525.330452 -175.722045 
L 525.264174 -179.849152 
L 525.241534 -183.976259 
L 525.239332 -188.103366 
L 525.230592 -192.230474 
L 525.21812 -196.357581 
L 525.214482 -200.484688 
L 525.215357 -204.611795 
L 525.214012 -208.738903 
L 525.218427 -212.86601 
L 525.23135 -216.993117 
L 525.234961 -221.120224 
L 525.213461 -225.247332 
L 525.177219 -229.374439 
L 525.155609 -233.501546 
L 525.166898 -237.628653 
L 525.194883 -241.755761 
L 525.206765 -245.882868 
L 525.193724 -250.009975 
L 525.170626 -254.137083 
L 525.146336 -258.26419 
L 525.125376 -262.391297 
L 525.119863 -266.518404 
L 525.133012 -270.645512 
L 525.148481 -274.772619 
L 525.149221 -278.899726 
L 525.134559 -283.026833 
L 525.113995 -287.153941 
L 525.096654 -291.281048 
L 525.088203 -295.408155 
L 525.087624 -299.535262 
L 525.090078 -303.66237 
L 525.095131 -307.789477 
L 525.104532 -311.916584 
L 525.113744 -316.043691 
L 525.113865 -320.170799 
L 525.103746 -324.297906 
L 525.094284 -328.425013 
L 525.092467 -332.55212 
L 525.087405 -336.679228 
L 525.062375 -340.806335 
L 525.014336 -344.933442 
L 524.951709 -349.060549 
L 524.88011 -353.187657 
L 524.805647 -357.314764 
L 524.740666 -361.441871 
L 524.688497 -365.568978 
L 524.634291 -369.696086 
L 524.566397 -373.823193 
L 524.497652 -377.9503 
L 524.445833 -382.077407 
L 524.409647 -386.204515 
L 524.384432 -390.331622 
L 524.366084 -394.458729 
L 524.324256 -398.585837 
L 524.215172 -402.712944 
L 524.026409 -406.840051 
L 523.773377 -410.967158 
L 523.463314 -415.094266 
L 523.088624 -419.221373 
L 522.620171 -423.34848 
L 521.982253 -427.475587 
L 521.071682 -431.602695 
L 519.821337 -435.729802 
L 518.224322 -439.856909 
L 516.26775 -443.984016 
L 513.876016 -448.111124 
L 510.996128 -452.238231 
L 507.698333 -456.365338 
L 504.132811 -460.492445 
L 500.50958 -464.619553 
L 497.14665 -468.74666 
L 494.34846 -472.873767 
L 492.262813 -477.000874 
L 490.987497 -481.127982 
L 490.675 -485.255089 
L 491.423838 -489.382196 
L 493.162946 -493.509303 
L 495.666267 -497.636411 
L 498.667378 -501.763518 
L 502.003848 -505.890625 
L 505.599294 -510.017732 
L 509.275205 -514.14484 
L 512.73148 -518.271947 
L 515.74834 -522.399054 
L 518.268882 -526.526161 
L 520.302823 -530.653269 
L 521.881098 -534.780376 
L 523.078376 -538.907483 
L 523.977054 -543.034591 
L 524.619664 -547.161698 
L 525.03455 -551.288805 
L 525.273455 -555.415912 
L 525.399835 -559.54302 
L 525.464138 -563.670127 
L 525.496886 -567.797234 
L 525.512345 -571.924341 
L 525.518047 -576.051449 
L 525.521603 -580.178556 
L 525.528047 -584.305663 
L 525.571953 -584.305663 
L 525.571953 -584.305663 
L 525.578397 -580.178556 
L 525.581953 -576.051449 
L 525.587655 -571.924341 
L 525.603114 -567.797234 
L 525.635862 -563.670127 
L 525.700165 -559.54302 
L 525.826545 -555.415912 
L 526.06545 -551.288805 
L 526.480336 -547.161698 
L 527.122946 -543.034591 
L 528.021624 -538.907483 
L 529.218902 -534.780376 
L 530.797177 -530.653269 
L 532.831118 -526.526161 
L 535.35166 -522.399054 
L 538.36852 -518.271947 
L 541.824795 -514.14484 
L 545.500706 -510.017732 
L 549.096152 -505.890625 
L 552.432622 -501.763518 
L 555.433733 -497.636411 
L 557.937054 -493.509303 
L 559.676162 -489.382196 
L 560.425 -485.255089 
L 560.112503 -481.127982 
L 558.837187 -477.000874 
L 556.75154 -472.873767 
L 553.95335 -468.74666 
L 550.59042 -464.619553 
L 546.967189 -460.492445 
L 543.401667 -456.365338 
L 540.103872 -452.238231 
L 537.223984 -448.111124 
L 534.83225 -443.984016 
L 532.875678 -439.856909 
L 531.278663 -435.729802 
L 530.028318 -431.602695 
L 529.117747 -427.475587 
L 528.479829 -423.34848 
L 528.011376 -419.221373 
L 527.636686 -415.094266 
L 527.326623 -410.967158 
L 527.073591 -406.840051 
L 526.884828 -402.712944 
L 526.775744 -398.585837 
L 526.733916 -394.458729 
L 526.715568 -390.331622 
L 526.690353 -386.204515 
L 526.654167 -382.077407 
L 526.602348 -377.9503 
L 526.533603 -373.823193 
L 526.465709 -369.696086 
L 526.411503 -365.568978 
L 526.359334 -361.441871 
L 526.294353 -357.314764 
L 526.21989 -353.187657 
L 526.148291 -349.060549 
L 526.085664 -344.933442 
L 526.037625 -340.806335 
L 526.012595 -336.679228 
L 526.007533 -332.55212 
L 526.005716 -328.425013 
L 525.996254 -324.297906 
L 525.986135 -320.170799 
L 525.986256 -316.043691 
L 525.995468 -311.916584 
L 526.004869 -307.789477 
L 526.009922 -303.66237 
L 526.012376 -299.535262 
L 526.011797 -295.408155 
L 526.003346 -291.281048 
L 525.986005 -287.153941 
L 525.965441 -283.026833 
L 525.950779 -278.899726 
L 525.951519 -274.772619 
L 525.966988 -270.645512 
L 525.980137 -266.518404 
L 525.974624 -262.391297 
L 525.953664 -258.26419 
L 525.929374 -254.137083 
L 525.906276 -250.009975 
L 525.893235 -245.882868 
L 525.905117 -241.755761 
L 525.933102 -237.628653 
L 525.944391 -233.501546 
L 525.922781 -229.374439 
L 525.886539 -225.247332 
L 525.865039 -221.120224 
L 525.86865 -216.993117 
L 525.881573 -212.86601 
L 525.885988 -208.738903 
L 525.884643 -204.611795 
L 525.885518 -200.484688 
L 525.88188 -196.357581 
L 525.869408 -192.230474 
L 525.860668 -188.103366 
L 525.858466 -183.976259 
L 525.835826 -179.849152 
L 525.769548 -175.722045 
z
" id="m8b96255434" style="stroke:#000000;stroke-width:3;"/>
    </defs>
    <g clip-path="url(#p1453bc7444)">
     <use style="fill:#ee82ee;stroke:#000000;stroke-width:3;" x="0" xlink:href="#m8b96255434" y="655.921094"/>
    </g>
   </g>
   <g id="PolyCollection_8">
    <defs>
     <path d="M 665.179591 -177.391461 
L 664.920409 -177.391461 
L 664.869872 -181.340887 
L 664.858481 -185.290313 
L 664.861269 -189.23974 
L 664.851493 -193.189166 
L 664.835913 -197.138592 
L 664.818965 -201.088019 
L 664.793511 -205.037445 
L 664.767244 -208.986871 
L 664.747027 -212.936298 
L 664.734893 -216.885724 
L 664.744734 -220.83515 
L 664.770226 -224.784577 
L 664.783302 -228.734003 
L 664.778112 -232.683429 
L 664.765889 -236.632856 
L 664.758067 -240.582282 
L 664.770362 -244.531708 
L 664.801995 -248.481134 
L 664.813481 -252.430561 
L 664.770937 -256.379987 
L 664.708648 -260.329413 
L 664.690553 -264.27884 
L 664.720065 -268.228266 
L 664.748517 -272.177692 
L 664.748848 -276.127119 
L 664.727939 -280.076545 
L 664.697738 -284.025971 
L 664.666108 -287.975398 
L 664.624225 -291.924824 
L 664.550094 -295.87425 
L 664.460021 -299.823677 
L 664.404395 -303.773103 
L 664.380585 -307.722529 
L 664.33397 -311.671955 
L 664.25148 -315.621382 
L 664.192032 -319.570808 
L 664.201881 -323.520234 
L 664.24048 -327.469661 
L 664.238235 -331.419087 
L 664.157843 -335.368513 
L 663.994513 -339.31794 
L 663.806803 -343.267366 
L 663.667238 -347.216792 
L 663.532309 -351.166219 
L 663.270512 -355.115645 
L 662.798286 -359.065071 
L 662.119782 -363.014498 
L 661.259398 -366.963924 
L 660.187816 -370.91335 
L 658.840309 -374.862776 
L 657.111897 -378.812203 
L 654.803077 -382.761629 
L 651.782163 -386.711055 
L 648.180382 -390.660482 
L 644.282329 -394.609908 
L 640.420857 -398.559334 
L 637.036471 -402.508761 
L 634.399922 -406.458187 
L 632.37057 -410.407613 
L 630.842636 -414.35704 
L 630.175 -418.306466 
L 630.719764 -422.255892 
L 632.234021 -426.205319 
L 634.244204 -430.154745 
L 636.451505 -434.104171 
L 638.732264 -438.053597 
L 641.109688 -442.003024 
L 643.585427 -445.95245 
L 646.048325 -449.901876 
L 648.353813 -453.851303 
L 650.490463 -457.800729 
L 652.497536 -461.750155 
L 654.253088 -465.699582 
L 655.682759 -469.649008 
L 656.929089 -473.598434 
L 658.105067 -477.547861 
L 659.182245 -481.497287 
L 660.156716 -485.446713 
L 661.06711 -489.39614 
L 661.886036 -493.345566 
L 662.575166 -497.294992 
L 663.147362 -501.244419 
L 663.59626 -505.193845 
L 663.913704 -509.143271 
L 664.142537 -513.092697 
L 664.334234 -517.042124 
L 664.508867 -520.99155 
L 664.6647 -524.940976 
L 664.793851 -528.890403 
L 664.886073 -532.839829 
L 664.940913 -536.789255 
L 664.970283 -540.738682 
L 664.986007 -544.688108 
L 664.989427 -548.637534 
L 664.984053 -552.586961 
L 664.984676 -556.536387 
L 664.997315 -560.485813 
L 665.012899 -564.43524 
L 665.02582 -568.384666 
L 665.07418 -568.384666 
L 665.07418 -568.384666 
L 665.087101 -564.43524 
L 665.102685 -560.485813 
L 665.115324 -556.536387 
L 665.115947 -552.586961 
L 665.110573 -548.637534 
L 665.113993 -544.688108 
L 665.129717 -540.738682 
L 665.159087 -536.789255 
L 665.213927 -532.839829 
L 665.306149 -528.890403 
L 665.4353 -524.940976 
L 665.591133 -520.99155 
L 665.765766 -517.042124 
L 665.957463 -513.092697 
L 666.186296 -509.143271 
L 666.50374 -505.193845 
L 666.952638 -501.244419 
L 667.524834 -497.294992 
L 668.213964 -493.345566 
L 669.03289 -489.39614 
L 669.943284 -485.446713 
L 670.917755 -481.497287 
L 671.994933 -477.547861 
L 673.170911 -473.598434 
L 674.417241 -469.649008 
L 675.846912 -465.699582 
L 677.602464 -461.750155 
L 679.609537 -457.800729 
L 681.746187 -453.851303 
L 684.051675 -449.901876 
L 686.514573 -445.95245 
L 688.990312 -442.003024 
L 691.367736 -438.053597 
L 693.648495 -434.104171 
L 695.855796 -430.154745 
L 697.865979 -426.205319 
L 699.380236 -422.255892 
L 699.925 -418.306466 
L 699.257364 -414.35704 
L 697.72943 -410.407613 
L 695.700078 -406.458187 
L 693.063529 -402.508761 
L 689.679143 -398.559334 
L 685.817671 -394.609908 
L 681.919618 -390.660482 
L 678.317837 -386.711055 
L 675.296923 -382.761629 
L 672.988103 -378.812203 
L 671.259691 -374.862776 
L 669.912184 -370.91335 
L 668.840602 -366.963924 
L 667.980218 -363.014498 
L 667.301714 -359.065071 
L 666.829488 -355.115645 
L 666.567691 -351.166219 
L 666.432762 -347.216792 
L 666.293197 -343.267366 
L 666.105487 -339.31794 
L 665.942157 -335.368513 
L 665.861765 -331.419087 
L 665.85952 -327.469661 
L 665.898119 -323.520234 
L 665.907968 -319.570808 
L 665.84852 -315.621382 
L 665.76603 -311.671955 
L 665.719415 -307.722529 
L 665.695605 -303.773103 
L 665.639979 -299.823677 
L 665.549906 -295.87425 
L 665.475775 -291.924824 
L 665.433892 -287.975398 
L 665.402262 -284.025971 
L 665.372061 -280.076545 
L 665.351152 -276.127119 
L 665.351483 -272.177692 
L 665.379935 -268.228266 
L 665.409447 -264.27884 
L 665.391352 -260.329413 
L 665.329063 -256.379987 
L 665.286519 -252.430561 
L 665.298005 -248.481134 
L 665.329638 -244.531708 
L 665.341933 -240.582282 
L 665.334111 -236.632856 
L 665.321888 -232.683429 
L 665.316698 -228.734003 
L 665.329774 -224.784577 
L 665.355266 -220.83515 
L 665.365107 -216.885724 
L 665.352973 -212.936298 
L 665.332756 -208.986871 
L 665.306489 -205.037445 
L 665.281035 -201.088019 
L 665.264087 -197.138592 
L 665.248507 -193.189166 
L 665.238731 -189.23974 
L 665.241519 -185.290313 
L 665.230128 -181.340887 
L 665.179591 -177.391461 
z
" id="m168ed63af2" style="stroke:#000000;stroke-width:3;"/>
    </defs>
    <g clip-path="url(#p1453bc7444)">
     <use style="fill:#8b008b;stroke:#000000;stroke-width:3;" x="0" xlink:href="#m168ed63af2" y="655.921094"/>
    </g>
   </g>
   <g id="matplotlib.axis_1">
    <g id="xtick_1">
     <g id="line2d_5">
      <path clip-path="url(#p1453bc7444)" d="M 246.55 579.494531 
L 246.55 25.094531 
" style="fill:none;stroke:#b0b0b0;stroke-linecap:square;stroke-width:0.8;"/>
     </g>
     <g id="line2d_6">
      <defs>
       <path d="M 0 0 
L 0 20 
" id="mf7b0553a03" style="stroke:#000000;stroke-width:7;"/>
      </defs>
      <g>
       <use style="stroke:#000000;stroke-width:7;" x="246.55" xlink:href="#mf7b0553a03" y="579.494531"/>
      </g>
     </g>
     <g id="text_1">
      <!-- WT -->
      <g transform="translate(207.682813 638.783594)scale(0.5 -0.5)">
       <defs>
        <path d="M 20.21875 0 
L 1.21875 71.578125 
L 10.9375 71.578125 
L 21.828125 24.65625 
Q 23.578125 17.28125 24.859375 10.015625 
Q 27.59375 21.484375 28.078125 23.25 
L 41.703125 71.578125 
L 53.125 71.578125 
L 63.375 35.359375 
Q 67.234375 21.875 68.953125 10.015625 
Q 70.3125 16.796875 72.515625 25.59375 
L 83.734375 71.578125 
L 93.265625 71.578125 
L 73.640625 0 
L 64.5 0 
L 49.421875 54.546875 
Q 47.515625 61.375 47.171875 62.9375 
Q 46.046875 58.015625 45.0625 54.546875 
L 29.890625 0 
z
" id="ArialMT-87"/>
        <path d="M 25.921875 0 
L 25.921875 63.140625 
L 2.34375 63.140625 
L 2.34375 71.578125 
L 59.078125 71.578125 
L 59.078125 63.140625 
L 35.40625 63.140625 
L 35.40625 0 
z
" id="ArialMT-84"/>
       </defs>
       <use xlink:href="#ArialMT-87"/>
       <use x="94.384766" xlink:href="#ArialMT-84"/>
      </g>
     </g>
    </g>
    <g id="xtick_2">
     <g id="line2d_7">
      <path clip-path="url(#p1453bc7444)" d="M 386.05 579.494531 
L 386.05 25.094531 
" style="fill:none;stroke:#b0b0b0;stroke-linecap:square;stroke-width:0.8;"/>
     </g>
     <g id="line2d_8">
      <g>
       <use style="stroke:#000000;stroke-width:7;" x="386.05" xlink:href="#mf7b0553a03" y="579.494531"/>
      </g>
     </g>
     <g id="text_2">
      <!-- S1 -->
      <g transform="translate(355.471875 638.783594)scale(0.5 -0.5)">
       <defs>
        <path d="M 4.5 23 
L 13.421875 23.78125 
Q 14.0625 18.40625 16.375 14.96875 
Q 18.703125 11.53125 23.578125 9.40625 
Q 28.46875 7.28125 34.578125 7.28125 
Q 39.984375 7.28125 44.140625 8.890625 
Q 48.296875 10.5 50.3125 13.296875 
Q 52.34375 16.109375 52.34375 19.4375 
Q 52.34375 22.796875 50.390625 25.3125 
Q 48.4375 27.828125 43.953125 29.546875 
Q 41.0625 30.671875 31.203125 33.03125 
Q 21.34375 35.40625 17.390625 37.5 
Q 12.25 40.1875 9.734375 44.15625 
Q 7.234375 48.140625 7.234375 53.078125 
Q 7.234375 58.5 10.296875 63.203125 
Q 13.375 67.921875 19.28125 70.359375 
Q 25.203125 72.796875 32.421875 72.796875 
Q 40.375 72.796875 46.453125 70.234375 
Q 52.546875 67.671875 55.8125 62.6875 
Q 59.078125 57.71875 59.328125 51.421875 
L 50.25 50.734375 
Q 49.515625 57.515625 45.28125 60.984375 
Q 41.0625 64.453125 32.8125 64.453125 
Q 24.21875 64.453125 20.28125 61.296875 
Q 16.359375 58.15625 16.359375 53.71875 
Q 16.359375 49.859375 19.140625 47.359375 
Q 21.875 44.875 33.421875 42.265625 
Q 44.96875 39.65625 49.265625 37.703125 
Q 55.515625 34.8125 58.484375 30.390625 
Q 61.46875 25.984375 61.46875 20.21875 
Q 61.46875 14.5 58.203125 9.4375 
Q 54.9375 4.390625 48.796875 1.578125 
Q 42.671875 -1.21875 35.015625 -1.21875 
Q 25.296875 -1.21875 18.71875 1.609375 
Q 12.15625 4.4375 8.421875 10.125 
Q 4.6875 15.828125 4.5 23 
z
" id="ArialMT-83"/>
        <path d="M 37.25 0 
L 28.46875 0 
L 28.46875 56 
Q 25.296875 52.984375 20.140625 49.953125 
Q 14.984375 46.921875 10.890625 45.40625 
L 10.890625 53.90625 
Q 18.265625 57.375 23.78125 62.296875 
Q 29.296875 67.234375 31.59375 71.875 
L 37.25 71.875 
z
" id="ArialMT-49"/>
       </defs>
       <use xlink:href="#ArialMT-83"/>
       <use x="66.699219" xlink:href="#ArialMT-49"/>
      </g>
     </g>
    </g>
    <g id="xtick_3">
     <g id="line2d_9">
      <path clip-path="url(#p1453bc7444)" d="M 525.55 579.494531 
L 525.55 25.094531 
" style="fill:none;stroke:#b0b0b0;stroke-linecap:square;stroke-width:0.8;"/>
     </g>
     <g id="line2d_10">
      <g>
       <use style="stroke:#000000;stroke-width:7;" x="525.55" xlink:href="#mf7b0553a03" y="579.494531"/>
      </g>
     </g>
     <g id="text_3">
      <!-- S2 -->
      <g transform="translate(494.971875 638.783594)scale(0.5 -0.5)">
       <defs>
        <path d="M 50.34375 8.453125 
L 50.34375 0 
L 3.03125 0 
Q 2.9375 3.171875 4.046875 6.109375 
Q 5.859375 10.9375 9.828125 15.625 
Q 13.8125 20.3125 21.34375 26.46875 
Q 33.015625 36.03125 37.109375 41.625 
Q 41.21875 47.21875 41.21875 52.203125 
Q 41.21875 57.421875 37.46875 61 
Q 33.734375 64.59375 27.734375 64.59375 
Q 21.390625 64.59375 17.578125 60.78125 
Q 13.765625 56.984375 13.71875 50.25 
L 4.6875 51.171875 
Q 5.609375 61.28125 11.65625 66.578125 
Q 17.71875 71.875 27.9375 71.875 
Q 38.234375 71.875 44.234375 66.15625 
Q 50.25 60.453125 50.25 52 
Q 50.25 47.703125 48.484375 43.546875 
Q 46.734375 39.40625 42.65625 34.8125 
Q 38.578125 30.21875 29.109375 22.21875 
Q 21.1875 15.578125 18.9375 13.203125 
Q 16.703125 10.84375 15.234375 8.453125 
z
" id="ArialMT-50"/>
       </defs>
       <use xlink:href="#ArialMT-83"/>
       <use x="66.699219" xlink:href="#ArialMT-50"/>
      </g>
     </g>
    </g>
    <g id="xtick_4">
     <g id="line2d_11">
      <path clip-path="url(#p1453bc7444)" d="M 665.05 579.494531 
L 665.05 25.094531 
" style="fill:none;stroke:#b0b0b0;stroke-linecap:square;stroke-width:0.8;"/>
     </g>
     <g id="line2d_12">
      <g>
       <use style="stroke:#000000;stroke-width:7;" x="665.05" xlink:href="#mf7b0553a03" y="579.494531"/>
      </g>
     </g>
     <g id="text_4">
      <!-- S3 -->
      <g transform="translate(634.471875 638.783594)scale(0.5 -0.5)">
       <defs>
        <path d="M 4.203125 18.890625 
L 12.984375 20.0625 
Q 14.5 12.59375 18.140625 9.296875 
Q 21.78125 6 27 6 
Q 33.203125 6 37.46875 10.296875 
Q 41.75 14.59375 41.75 20.953125 
Q 41.75 27 37.796875 30.921875 
Q 33.84375 34.859375 27.734375 34.859375 
Q 25.25 34.859375 21.53125 33.890625 
L 22.515625 41.609375 
Q 23.390625 41.5 23.921875 41.5 
Q 29.546875 41.5 34.03125 44.421875 
Q 38.53125 47.359375 38.53125 53.46875 
Q 38.53125 58.296875 35.25 61.46875 
Q 31.984375 64.65625 26.8125 64.65625 
Q 21.6875 64.65625 18.265625 61.421875 
Q 14.84375 58.203125 13.875 51.765625 
L 5.078125 53.328125 
Q 6.6875 62.15625 12.390625 67.015625 
Q 18.109375 71.875 26.609375 71.875 
Q 32.46875 71.875 37.390625 69.359375 
Q 42.328125 66.84375 44.9375 62.5 
Q 47.5625 58.15625 47.5625 53.265625 
Q 47.5625 48.640625 45.0625 44.828125 
Q 42.578125 41.015625 37.703125 38.765625 
Q 44.046875 37.3125 47.5625 32.6875 
Q 51.078125 28.078125 51.078125 21.140625 
Q 51.078125 11.765625 44.234375 5.25 
Q 37.40625 -1.265625 26.953125 -1.265625 
Q 17.53125 -1.265625 11.296875 4.34375 
Q 5.078125 9.96875 4.203125 18.890625 
z
" id="ArialMT-51"/>
       </defs>
       <use xlink:href="#ArialMT-83"/>
       <use x="66.699219" xlink:href="#ArialMT-51"/>
      </g>
     </g>
    </g>
   </g>
   <g id="matplotlib.axis_2">
    <g id="ytick_1">
     <g id="line2d_13">
      <path clip-path="url(#p1453bc7444)" d="M 176.8 579.494531 
L 734.8 579.494531 
" style="fill:none;stroke:#b0b0b0;stroke-linecap:square;stroke-width:0.8;"/>
     </g>
     <g id="line2d_14">
      <defs>
       <path d="M 0 0 
L -20 0 
" id="m3f7bdb8d42" style="stroke:#000000;stroke-width:7;"/>
      </defs>
      <g>
       <use style="stroke:#000000;stroke-width:7;" x="176.8" xlink:href="#m3f7bdb8d42" y="579.494531"/>
      </g>
     </g>
     <g id="text_5">
      <!-- 0.0 -->
      <g transform="translate(83.8 597.389063)scale(0.5 -0.5)">
       <defs>
        <path d="M 4.15625 35.296875 
Q 4.15625 48 6.765625 55.734375 
Q 9.375 63.484375 14.515625 67.671875 
Q 19.671875 71.875 27.484375 71.875 
Q 33.25 71.875 37.59375 69.546875 
Q 41.9375 67.234375 44.765625 62.859375 
Q 47.609375 58.5 49.21875 52.21875 
Q 50.828125 45.953125 50.828125 35.296875 
Q 50.828125 22.703125 48.234375 14.96875 
Q 45.65625 7.234375 40.5 3 
Q 35.359375 -1.21875 27.484375 -1.21875 
Q 17.140625 -1.21875 11.234375 6.203125 
Q 4.15625 15.140625 4.15625 35.296875 
z
M 13.1875 35.296875 
Q 13.1875 17.671875 17.3125 11.828125 
Q 21.4375 6 27.484375 6 
Q 33.546875 6 37.671875 11.859375 
Q 41.796875 17.71875 41.796875 35.296875 
Q 41.796875 52.984375 37.671875 58.78125 
Q 33.546875 64.59375 27.390625 64.59375 
Q 21.34375 64.59375 17.71875 59.46875 
Q 13.1875 52.9375 13.1875 35.296875 
z
" id="ArialMT-48"/>
        <path d="M 9.078125 0 
L 9.078125 10.015625 
L 19.09375 10.015625 
L 19.09375 0 
z
" id="ArialMT-46"/>
       </defs>
       <use xlink:href="#ArialMT-48"/>
       <use x="55.615234" xlink:href="#ArialMT-46"/>
       <use x="83.398438" xlink:href="#ArialMT-48"/>
      </g>
     </g>
    </g>
    <g id="ytick_2">
     <g id="line2d_15">
      <path clip-path="url(#p1453bc7444)" d="M 176.8 440.894531 
L 734.8 440.894531 
" style="fill:none;stroke:#b0b0b0;stroke-linecap:square;stroke-width:0.8;"/>
     </g>
     <g id="line2d_16">
      <g>
       <use style="stroke:#000000;stroke-width:7;" x="176.8" xlink:href="#m3f7bdb8d42" y="440.894531"/>
      </g>
     </g>
     <g id="text_6">
      <!-- 0.2 -->
      <g transform="translate(83.8 458.789063)scale(0.5 -0.5)">
       <use xlink:href="#ArialMT-48"/>
       <use x="55.615234" xlink:href="#ArialMT-46"/>
       <use x="83.398438" xlink:href="#ArialMT-50"/>
      </g>
     </g>
    </g>
    <g id="ytick_3">
     <g id="line2d_17">
      <path clip-path="url(#p1453bc7444)" d="M 176.8 302.294531 
L 734.8 302.294531 
" style="fill:none;stroke:#b0b0b0;stroke-linecap:square;stroke-width:0.8;"/>
     </g>
     <g id="line2d_18">
      <g>
       <use style="stroke:#000000;stroke-width:7;" x="176.8" xlink:href="#m3f7bdb8d42" y="302.294531"/>
      </g>
     </g>
     <g id="text_7">
      <!-- 0.4 -->
      <g transform="translate(83.8 320.189063)scale(0.5 -0.5)">
       <defs>
        <path d="M 32.328125 0 
L 32.328125 17.140625 
L 1.265625 17.140625 
L 1.265625 25.203125 
L 33.9375 71.578125 
L 41.109375 71.578125 
L 41.109375 25.203125 
L 50.78125 25.203125 
L 50.78125 17.140625 
L 41.109375 17.140625 
L 41.109375 0 
z
M 32.328125 25.203125 
L 32.328125 57.46875 
L 9.90625 25.203125 
z
" id="ArialMT-52"/>
       </defs>
       <use xlink:href="#ArialMT-48"/>
       <use x="55.615234" xlink:href="#ArialMT-46"/>
       <use x="83.398438" xlink:href="#ArialMT-52"/>
      </g>
     </g>
    </g>
    <g id="ytick_4">
     <g id="line2d_19">
      <path clip-path="url(#p1453bc7444)" d="M 176.8 163.694531 
L 734.8 163.694531 
" style="fill:none;stroke:#b0b0b0;stroke-linecap:square;stroke-width:0.8;"/>
     </g>
     <g id="line2d_20">
      <g>
       <use style="stroke:#000000;stroke-width:7;" x="176.8" xlink:href="#m3f7bdb8d42" y="163.694531"/>
      </g>
     </g>
     <g id="text_8">
      <!-- 0.6 -->
      <g transform="translate(83.8 181.589063)scale(0.5 -0.5)">
       <defs>
        <path d="M 49.75 54.046875 
L 41.015625 53.375 
Q 39.84375 58.546875 37.703125 60.890625 
Q 34.125 64.65625 28.90625 64.65625 
Q 24.703125 64.65625 21.53125 62.3125 
Q 17.390625 59.28125 14.984375 53.46875 
Q 12.59375 47.65625 12.5 36.921875 
Q 15.671875 41.75 20.265625 44.09375 
Q 24.859375 46.4375 29.890625 46.4375 
Q 38.671875 46.4375 44.84375 39.96875 
Q 51.03125 33.5 51.03125 23.25 
Q 51.03125 16.5 48.125 10.71875 
Q 45.21875 4.9375 40.140625 1.859375 
Q 35.0625 -1.21875 28.609375 -1.21875 
Q 17.625 -1.21875 10.6875 6.859375 
Q 3.765625 14.9375 3.765625 33.5 
Q 3.765625 54.25 11.421875 63.671875 
Q 18.109375 71.875 29.4375 71.875 
Q 37.890625 71.875 43.28125 67.140625 
Q 48.6875 62.40625 49.75 54.046875 
z
M 13.875 23.1875 
Q 13.875 18.65625 15.796875 14.5 
Q 17.71875 10.359375 21.1875 8.171875 
Q 24.65625 6 28.46875 6 
Q 34.03125 6 38.03125 10.484375 
Q 42.046875 14.984375 42.046875 22.703125 
Q 42.046875 30.125 38.078125 34.390625 
Q 34.125 38.671875 28.125 38.671875 
Q 22.171875 38.671875 18.015625 34.390625 
Q 13.875 30.125 13.875 23.1875 
z
" id="ArialMT-54"/>
       </defs>
       <use xlink:href="#ArialMT-48"/>
       <use x="55.615234" xlink:href="#ArialMT-46"/>
       <use x="83.398438" xlink:href="#ArialMT-54"/>
      </g>
     </g>
    </g>
    <g id="ytick_5">
     <g id="line2d_21">
      <path clip-path="url(#p1453bc7444)" d="M 176.8 25.094531 
L 734.8 25.094531 
" style="fill:none;stroke:#b0b0b0;stroke-linecap:square;stroke-width:0.8;"/>
     </g>
     <g id="line2d_22">
      <g>
       <use style="stroke:#000000;stroke-width:7;" x="176.8" xlink:href="#m3f7bdb8d42" y="25.094531"/>
      </g>
     </g>
     <g id="text_9">
      <!-- 0.8 -->
      <g transform="translate(83.8 42.989063)scale(0.5 -0.5)">
       <defs>
        <path d="M 17.671875 38.8125 
Q 12.203125 40.828125 9.5625 44.53125 
Q 6.9375 48.25 6.9375 53.421875 
Q 6.9375 61.234375 12.546875 66.546875 
Q 18.171875 71.875 27.484375 71.875 
Q 36.859375 71.875 42.578125 66.421875 
Q 48.296875 60.984375 48.296875 53.171875 
Q 48.296875 48.1875 45.671875 44.5 
Q 43.0625 40.828125 37.75 38.8125 
Q 44.34375 36.671875 47.78125 31.875 
Q 51.21875 27.09375 51.21875 20.453125 
Q 51.21875 11.28125 44.71875 5.03125 
Q 38.234375 -1.21875 27.640625 -1.21875 
Q 17.046875 -1.21875 10.546875 5.046875 
Q 4.046875 11.328125 4.046875 20.703125 
Q 4.046875 27.6875 7.59375 32.390625 
Q 11.140625 37.109375 17.671875 38.8125 
z
M 15.921875 53.71875 
Q 15.921875 48.640625 19.1875 45.40625 
Q 22.46875 42.1875 27.6875 42.1875 
Q 32.765625 42.1875 36.015625 45.375 
Q 39.265625 48.578125 39.265625 53.21875 
Q 39.265625 58.0625 35.90625 61.359375 
Q 32.5625 64.65625 27.59375 64.65625 
Q 22.5625 64.65625 19.234375 61.421875 
Q 15.921875 58.203125 15.921875 53.71875 
z
M 13.09375 20.65625 
Q 13.09375 16.890625 14.875 13.375 
Q 16.65625 9.859375 20.171875 7.921875 
Q 23.6875 6 27.734375 6 
Q 34.03125 6 38.125 10.046875 
Q 42.234375 14.109375 42.234375 20.359375 
Q 42.234375 26.703125 38.015625 30.859375 
Q 33.796875 35.015625 27.4375 35.015625 
Q 21.234375 35.015625 17.15625 30.90625 
Q 13.09375 26.8125 13.09375 20.65625 
z
" id="ArialMT-56"/>
       </defs>
       <use xlink:href="#ArialMT-48"/>
       <use x="55.615234" xlink:href="#ArialMT-46"/>
       <use x="83.398438" xlink:href="#ArialMT-56"/>
      </g>
     </g>
    </g>
    <g id="text_10">
     <!-- $E_f^{cell}$ -->
     <g transform="translate(63 360.494531)rotate(-90)scale(0.6 -0.6)">
      <defs>
       <path d="M 16.890625 72.90625 
L 62.984375 72.90625 
L 61.375 64.59375 
L 25.09375 64.59375 
L 20.90625 43.015625 
L 55.71875 43.015625 
L 54.109375 34.71875 
L 19.28125 34.71875 
L 14.203125 8.296875 
L 51.3125 8.296875 
L 49.703125 0 
L 2.6875 0 
z
" id="DejaVuSans-Oblique-69"/>
       <path d="M 53.609375 52.59375 
L 51.8125 43.703125 
Q 48.578125 46.046875 44.9375 47.21875 
Q 41.3125 48.390625 37.40625 48.390625 
Q 33.109375 48.390625 29.21875 46.875 
Q 25.34375 45.359375 22.703125 42.578125 
Q 18.5 38.328125 16.203125 32.609375 
Q 13.921875 26.90625 13.921875 20.796875 
Q 13.921875 13.421875 17.609375 9.8125 
Q 21.296875 6.203125 28.8125 6.203125 
Q 32.515625 6.203125 36.6875 7.328125 
Q 40.875 8.453125 45.40625 10.6875 
L 43.703125 1.8125 
Q 39.796875 0.203125 35.671875 -0.609375 
Q 31.546875 -1.421875 27.203125 -1.421875 
Q 16.3125 -1.421875 10.453125 4.015625 
Q 4.59375 9.46875 4.59375 19.578125 
Q 4.59375 28.078125 7.640625 35.234375 
Q 10.6875 42.390625 16.703125 48.09375 
Q 20.796875 52 26.3125 54 
Q 31.84375 56 38.375 56 
Q 42.1875 56 45.9375 55.140625 
Q 49.703125 54.296875 53.609375 52.59375 
z
" id="DejaVuSans-Oblique-99"/>
       <path d="M 48.09375 32.234375 
Q 48.25 33.015625 48.3125 33.84375 
Q 48.390625 34.671875 48.390625 35.5 
Q 48.390625 41.453125 44.890625 44.921875 
Q 41.40625 48.390625 35.40625 48.390625 
Q 28.71875 48.390625 23.578125 44.15625 
Q 18.453125 39.9375 15.828125 32.171875 
z
M 55.90625 25.203125 
L 14.109375 25.203125 
Q 13.8125 23.34375 13.71875 22.265625 
Q 13.625 21.1875 13.625 20.40625 
Q 13.625 13.625 17.796875 9.90625 
Q 21.96875 6.203125 29.59375 6.203125 
Q 35.453125 6.203125 40.671875 7.515625 
Q 45.90625 8.84375 50.390625 11.375 
L 48.6875 2.484375 
Q 43.84375 0.53125 38.6875 -0.4375 
Q 33.546875 -1.421875 28.21875 -1.421875 
Q 16.84375 -1.421875 10.71875 4.015625 
Q 4.59375 9.46875 4.59375 19.484375 
Q 4.59375 28.03125 7.640625 35.375 
Q 10.6875 42.71875 16.609375 48.484375 
Q 20.40625 52.09375 25.65625 54.046875 
Q 30.90625 56 36.8125 56 
Q 46.09375 56 51.578125 50.4375 
Q 57.078125 44.875 57.078125 35.5 
Q 57.078125 33.25 56.78125 30.6875 
Q 56.5 28.125 55.90625 25.203125 
z
" id="DejaVuSans-Oblique-101"/>
       <path d="M 18.3125 75.984375 
L 27.296875 75.984375 
L 12.5 0 
L 3.515625 0 
z
" id="DejaVuSans-Oblique-108"/>
       <path d="M 47.796875 75.984375 
L 46.390625 68.5 
L 37.796875 68.5 
Q 32.90625 68.5 30.6875 66.578125 
Q 28.46875 64.65625 27.390625 59.515625 
L 26.421875 54.6875 
L 41.21875 54.6875 
L 39.890625 47.703125 
L 25.09375 47.703125 
L 15.828125 0 
L 6.78125 0 
L 16.109375 47.703125 
L 7.515625 47.703125 
L 8.796875 54.6875 
L 17.390625 54.6875 
L 18.109375 58.5 
Q 19.96875 68.171875 24.625 72.078125 
Q 29.296875 75.984375 39.3125 75.984375 
z
" id="DejaVuSans-Oblique-102"/>
      </defs>
      <use transform="translate(0 0.470313)" xlink:href="#DejaVuSans-Oblique-69"/>
      <use transform="translate(70.200365 39.810938)scale(0.7)" xlink:href="#DejaVuSans-Oblique-99"/>
      <use transform="translate(108.686693 39.810938)scale(0.7)" xlink:href="#DejaVuSans-Oblique-101"/>
      <use transform="translate(151.753099 39.810938)scale(0.7)" xlink:href="#DejaVuSans-Oblique-108"/>
      <use transform="translate(171.201341 39.810938)scale(0.7)" xlink:href="#DejaVuSans-Oblique-108"/>
      <use transform="translate(63.183594 -26.873437)scale(0.7)" xlink:href="#DejaVuSans-Oblique-102"/>
     </g>
    </g>
   </g>
   <g id="LineCollection_1">
    <path clip-path="url(#p1453bc7444)" d="M 246.55 200.348604 
L 246.55 142.830791 
" style="fill:none;stroke:#000000;stroke-width:10;"/>
   </g>
   <g id="LineCollection_2">
    <path clip-path="url(#p1453bc7444)" d="M 246.55 290.086974 
L 246.55 120.472215 
" style="fill:none;stroke:#000000;stroke-width:3;"/>
   </g>
   <g id="LineCollection_3">
    <path clip-path="url(#p1453bc7444)" d="M 386.05 275.742033 
L 386.05 224.545906 
" style="fill:none;stroke:#000000;stroke-width:10;"/>
   </g>
   <g id="LineCollection_4">
    <path clip-path="url(#p1453bc7444)" d="M 386.05 306.209892 
L 386.05 174.5361 
" style="fill:none;stroke:#000000;stroke-width:3;"/>
   </g>
   <g id="LineCollection_5">
    <path clip-path="url(#p1453bc7444)" d="M 525.55 192.270352 
L 525.55 157.687555 
" style="fill:none;stroke:#000000;stroke-width:10;"/>
   </g>
   <g id="LineCollection_6">
    <path clip-path="url(#p1453bc7444)" d="M 525.55 260.46626 
L 525.55 135.185698 
" style="fill:none;stroke:#000000;stroke-width:3;"/>
   </g>
   <g id="LineCollection_7">
    <path clip-path="url(#p1453bc7444)" d="M 665.05 252.445283 
L 665.05 213.589039 
" style="fill:none;stroke:#000000;stroke-width:10;"/>
   </g>
   <g id="LineCollection_8">
    <path clip-path="url(#p1453bc7444)" d="M 665.05 287.544581 
L 665.05 178.591955 
" style="fill:none;stroke:#000000;stroke-width:3;"/>
   </g>
   <g id="patch_3">
    <path d="M 176.8 579.494531 
L 176.8 25.094531 
" style="fill:none;stroke:#000000;stroke-linecap:square;stroke-linejoin:miter;stroke-width:7;"/>
   </g>
   <g id="patch_4">
    <path d="M 734.8 579.494531 
L 734.8 25.094531 
" style="fill:none;stroke:#000000;stroke-linecap:square;stroke-linejoin:miter;stroke-width:7;"/>
   </g>
   <g id="patch_5">
    <path d="M 176.8 579.494531 
L 734.8 579.494531 
" style="fill:none;stroke:#000000;stroke-linecap:square;stroke-linejoin:miter;stroke-width:7;"/>
   </g>
   <g id="patch_6">
    <path d="M 176.8 25.094531 
L 734.8 25.094531 
" style="fill:none;stroke:#000000;stroke-linecap:square;stroke-linejoin:miter;stroke-width:7;"/>
   </g>
   <g id="PathCollection_1">
    <defs>
     <path d="M 7.071068 0 
L -7.071068 -0 
" id="m50885094d1" style="stroke:#ffffff;stroke-width:5;"/>
    </defs>
    <g clip-path="url(#p1453bc7444)">
     <use style="fill:#ffffff;stroke:#ffffff;stroke-width:5;" x="246.55" xlink:href="#m50885094d1" y="164.24424"/>
    </g>
   </g>
   <g id="PathCollection_2">
    <g clip-path="url(#p1453bc7444)">
     <use style="fill:#ffffff;stroke:#ffffff;stroke-width:5;" x="386.05" xlink:href="#m50885094d1" y="254.020409"/>
    </g>
   </g>
   <g id="PathCollection_3">
    <g clip-path="url(#p1453bc7444)">
     <use style="fill:#ffffff;stroke:#ffffff;stroke-width:5;" x="525.55" xlink:href="#m50885094d1" y="174.212622"/>
    </g>
   </g>
   <g id="PathCollection_4">
    <g clip-path="url(#p1453bc7444)">
     <use style="fill:#ffffff;stroke:#ffffff;stroke-width:5;" x="665.05" xlink:href="#m50885094d1" y="234.330342"/>
    </g>
   </g>
  </g>
 </g>
 <defs>
  <clipPath id="p1453bc7444">
   <rect height="554.4" width="558" x="176.8" y="25.094531"/>
  </clipPath>
 </defs>
</svg>
