<?xml version="1.0" encoding="utf-8" standalone="no"?>
<!DOCTYPE svg PUBLIC "-//W3C//DTD SVG 1.1//EN"
  "http://www.w3.org/Graphics/SVG/1.1/DTD/svg11.dtd">
<!-- Created with matplotlib (https://matplotlib.org/) -->
<svg height="714.792969pt" version="1.1" viewBox="0 0 742 714.792969" width="742pt" xmlns="http://www.w3.org/2000/svg" xmlns:xlink="http://www.w3.org/1999/xlink">
 <metadata>
  <rdf:RDF xmlns:cc="http://creativecommons.org/ns#" xmlns:dc="http://purl.org/dc/elements/1.1/" xmlns:rdf="http://www.w3.org/1999/02/22-rdf-syntax-ns#">
   <cc:Work>
    <dc:type rdf:resource="http://purl.org/dc/dcmitype/StillImage"/>
    <dc:date>2022-06-21T14:28:27.461993</dc:date>
    <dc:format>image/svg+xml</dc:format>
    <dc:creator>
     <cc:Agent>
      <dc:title>Matplotlib v3.3.4, https://matplotlib.org/</dc:title>
     </cc:Agent>
    </dc:creator>
   </cc:Work>
  </rdf:RDF>
 </metadata>
 <defs>
  <style type="text/css">*{stroke-linecap:butt;stroke-linejoin:round;}</style>
 </defs>
 <g id="figure_1">
  <g id="patch_1">
   <path d="M 0 714.792969 
L 742 714.792969 
L 742 0 
L 0 0 
z
" style="fill:#ffffff;"/>
  </g>
  <g id="axes_1">
   <g id="patch_2">
    <path d="M 176.8 579.494531 
L 734.8 579.494531 
L 734.8 25.094531 
L 176.8 25.094531 
z
" style="fill:#ffffff;"/>
   </g>
   <g id="PolyCollection_1">
    <defs>
     <path d="M 207.827279 -216.501186 
L 207.772721 -216.501186 
L 207.762666 -219.603546 
L 207.751626 -222.705907 
L 207.742426 -225.808267 
L 207.736664 -228.910628 
L 207.727936 -232.012988 
L 207.708036 -235.115348 
L 207.678834 -238.217709 
L 207.648966 -241.320069 
L 207.621822 -244.42243 
L 207.596161 -247.52479 
L 207.57349 -250.627151 
L 207.556617 -253.729511 
L 207.545963 -256.831871 
L 207.539678 -259.934232 
L 207.532194 -263.036592 
L 207.517699 -266.138953 
L 207.500604 -269.241313 
L 207.492598 -272.343674 
L 207.495413 -275.446034 
L 207.496243 -278.548394 
L 207.480868 -281.650755 
L 207.446846 -284.753115 
L 207.405924 -287.855476 
L 207.376544 -290.957836 
L 207.3741 -294.060196 
L 207.402551 -297.162557 
L 207.449051 -300.264917 
L 207.48801 -303.367278 
L 207.495181 -306.469638 
L 207.461929 -309.571999 
L 207.399114 -312.674359 
L 207.329598 -315.776719 
L 207.276507 -318.87908 
L 207.248593 -321.98144 
L 207.231485 -325.083801 
L 207.202613 -328.186161 
L 207.150488 -331.288521 
L 207.070676 -334.390882 
L 206.960708 -337.493242 
L 206.826507 -340.595603 
L 206.67667 -343.697963 
L 206.50986 -346.800324 
L 206.314949 -349.902684 
L 206.082294 -353.005044 
L 205.822209 -356.107405 
L 205.571467 -359.209765 
L 205.363027 -362.312126 
L 205.185284 -365.414486 
L 204.977368 -368.516846 
L 204.664095 -371.619207 
L 204.206779 -374.721567 
L 203.621931 -377.823928 
L 202.932869 -380.926288 
L 202.125968 -384.028649 
L 201.182126 -387.131009 
L 200.104663 -390.233369 
L 198.872259 -393.33573 
L 197.376323 -396.43809 
L 195.445433 -399.540451 
L 193.00744 -402.642811 
L 190.225688 -405.745172 
L 187.374702 -408.847532 
L 184.611746 -411.949892 
L 181.984902 -415.052253 
L 179.618457 -418.154613 
L 177.782129 -421.256974 
L 176.8 -424.359334 
L 176.890945 -427.461694 
L 177.979972 -430.564055 
L 179.711495 -433.666415 
L 181.788382 -436.768776 
L 184.164571 -439.871136 
L 186.801734 -442.973497 
L 189.478689 -446.075857 
L 191.95333 -449.178217 
L 194.124147 -452.280578 
L 196.00533 -455.382938 
L 197.683868 -458.485299 
L 199.281779 -461.587659 
L 200.865009 -464.690019 
L 202.388828 -467.79238 
L 203.746985 -470.89474 
L 204.853565 -473.997101 
L 205.684998 -477.099461 
L 206.276259 -480.201822 
L 206.688034 -483.304182 
L 206.973951 -486.406542 
L 207.169498 -489.508903 
L 207.297498 -492.611263 
L 207.380654 -495.713624 
L 207.447729 -498.815984 
L 207.519684 -501.918345 
L 207.59255 -505.020705 
L 207.647423 -508.123065 
L 207.678891 -511.225426 
L 207.700953 -514.327786 
L 207.725132 -517.430147 
L 207.748944 -520.532507 
L 207.767192 -523.634867 
L 207.832808 -523.634867 
L 207.832808 -523.634867 
L 207.851056 -520.532507 
L 207.874868 -517.430147 
L 207.899047 -514.327786 
L 207.921109 -511.225426 
L 207.952577 -508.123065 
L 208.00745 -505.020705 
L 208.080316 -501.918345 
L 208.152271 -498.815984 
L 208.219346 -495.713624 
L 208.302502 -492.611263 
L 208.430502 -489.508903 
L 208.626049 -486.406542 
L 208.911966 -483.304182 
L 209.323741 -480.201822 
L 209.915002 -477.099461 
L 210.746435 -473.997101 
L 211.853015 -470.89474 
L 213.211172 -467.79238 
L 214.734991 -464.690019 
L 216.318221 -461.587659 
L 217.916132 -458.485299 
L 219.59467 -455.382938 
L 221.475853 -452.280578 
L 223.64667 -449.178217 
L 226.121311 -446.075857 
L 228.798266 -442.973497 
L 231.435429 -439.871136 
L 233.811618 -436.768776 
L 235.888505 -433.666415 
L 237.620028 -430.564055 
L 238.709055 -427.461694 
L 238.8 -424.359334 
L 237.817871 -421.256974 
L 235.981543 -418.154613 
L 233.615098 -415.052253 
L 230.988254 -411.949892 
L 228.225298 -408.847532 
L 225.374312 -405.745172 
L 222.59256 -402.642811 
L 220.154567 -399.540451 
L 218.223677 -396.43809 
L 216.727741 -393.33573 
L 215.495337 -390.233369 
L 214.417874 -387.131009 
L 213.474032 -384.028649 
L 212.667131 -380.926288 
L 211.978069 -377.823928 
L 211.393221 -374.721567 
L 210.935905 -371.619207 
L 210.622632 -368.516846 
L 210.414716 -365.414486 
L 210.236973 -362.312126 
L 210.028533 -359.209765 
L 209.777791 -356.107405 
L 209.517706 -353.005044 
L 209.285051 -349.902684 
L 209.09014 -346.800324 
L 208.92333 -343.697963 
L 208.773493 -340.595603 
L 208.639292 -337.493242 
L 208.529324 -334.390882 
L 208.449512 -331.288521 
L 208.397387 -328.186161 
L 208.368515 -325.083801 
L 208.351407 -321.98144 
L 208.323493 -318.87908 
L 208.270402 -315.776719 
L 208.200886 -312.674359 
L 208.138071 -309.571999 
L 208.104819 -306.469638 
L 208.11199 -303.367278 
L 208.150949 -300.264917 
L 208.197449 -297.162557 
L 208.2259 -294.060196 
L 208.223456 -290.957836 
L 208.194076 -287.855476 
L 208.153154 -284.753115 
L 208.119132 -281.650755 
L 208.103757 -278.548394 
L 208.104587 -275.446034 
L 208.107402 -272.343674 
L 208.099396 -269.241313 
L 208.082301 -266.138953 
L 208.067806 -263.036592 
L 208.060322 -259.934232 
L 208.054037 -256.831871 
L 208.043383 -253.729511 
L 208.02651 -250.627151 
L 208.003839 -247.52479 
L 207.978178 -244.42243 
L 207.951034 -241.320069 
L 207.921166 -238.217709 
L 207.891964 -235.115348 
L 207.872064 -232.012988 
L 207.863336 -228.910628 
L 207.857574 -225.808267 
L 207.848374 -222.705907 
L 207.837334 -219.603546 
L 207.827279 -216.501186 
z
" id="m201ae3ee36" style="stroke:#000000;stroke-width:3;"/>
    </defs>
    <g clip-path="url(#pd61ecac265)">
     <use style="stroke:#000000;stroke-width:3;" x="0" xlink:href="#m201ae3ee36" y="714.792969"/>
    </g>
   </g>
   <g id="PolyCollection_2">
    <defs>
     <path d="M 307.072025 -220.271399 
L 306.927975 -220.271399 
L 306.90381 -223.085324 
L 306.88135 -225.899249 
L 306.857387 -228.713175 
L 306.828716 -231.5271 
L 306.7968 -234.341026 
L 306.76835 -237.154951 
L 306.748209 -239.968877 
L 306.730764 -242.782802 
L 306.703822 -245.596727 
L 306.664101 -248.410653 
L 306.623885 -251.224578 
L 306.601129 -254.038504 
L 306.605644 -256.852429 
L 306.628771 -259.666354 
L 306.64444 -262.48028 
L 306.631538 -265.294205 
L 306.597577 -268.108131 
L 306.569852 -270.922056 
L 306.564446 -273.735981 
L 306.574185 -276.549907 
L 306.582058 -279.363832 
L 306.575286 -282.177758 
L 306.549585 -284.991683 
L 306.506327 -287.805608 
L 306.445478 -290.619534 
L 306.364191 -293.433459 
L 306.263959 -296.247385 
L 306.152357 -299.06131 
L 306.035366 -301.875236 
L 305.913042 -304.689161 
L 305.781049 -307.503086 
L 305.628469 -310.317012 
L 305.434014 -313.130937 
L 305.175209 -315.944863 
L 304.847887 -318.758788 
L 304.460263 -321.572713 
L 303.982885 -324.386639 
L 303.308266 -327.200564 
L 302.275853 -330.01449 
L 300.724595 -332.828415 
L 298.523818 -335.64234 
L 295.625199 -338.456266 
L 292.151618 -341.270191 
L 288.403306 -344.084117 
L 284.732017 -346.898042 
L 281.450885 -349.711967 
L 278.854344 -352.525893 
L 277.153416 -355.339818 
L 276.298502 -358.153744 
L 276 -360.967669 
L 276.023325 -363.781594 
L 276.394052 -366.59552 
L 277.28116 -369.409445 
L 278.747517 -372.223371 
L 280.632329 -375.037296 
L 282.635466 -377.851222 
L 284.510148 -380.665147 
L 286.182365 -383.479072 
L 287.693174 -386.292998 
L 289.076278 -389.106923 
L 290.316922 -391.920849 
L 291.385658 -394.734774 
L 292.289317 -397.548699 
L 293.088903 -400.362625 
L 293.844183 -403.17655 
L 294.570501 -405.990476 
L 295.294796 -408.804401 
L 296.091778 -411.618326 
L 297.003143 -414.432252 
L 297.967497 -417.246177 
L 298.869329 -420.060103 
L 299.636622 -422.874028 
L 300.29549 -425.687953 
L 300.94149 -428.501879 
L 301.629233 -431.315804 
L 302.302647 -434.12973 
L 302.875797 -436.943655 
L 303.341617 -439.757581 
L 303.750014 -442.571506 
L 304.124294 -445.385431 
L 304.450708 -448.199357 
L 304.726178 -451.013282 
L 304.979191 -453.827208 
L 305.24415 -456.641133 
L 305.528897 -459.455058 
L 305.812012 -462.268984 
L 306.064434 -465.082909 
L 306.26583 -467.896835 
L 306.410919 -470.71076 
L 306.514725 -473.524685 
L 306.605639 -476.338611 
L 306.700556 -479.152536 
L 306.788743 -481.966462 
L 306.847843 -484.780387 
L 306.872334 -487.594312 
L 306.878874 -490.408238 
L 306.887755 -493.222163 
L 306.907364 -496.036089 
L 306.934318 -498.850014 
L 307.065682 -498.850014 
L 307.065682 -498.850014 
L 307.092636 -496.036089 
L 307.112245 -493.222163 
L 307.121126 -490.408238 
L 307.127666 -487.594312 
L 307.152157 -484.780387 
L 307.211257 -481.966462 
L 307.299444 -479.152536 
L 307.394361 -476.338611 
L 307.485275 -473.524685 
L 307.589081 -470.71076 
L 307.73417 -467.896835 
L 307.935566 -465.082909 
L 308.187988 -462.268984 
L 308.471103 -459.455058 
L 308.75585 -456.641133 
L 309.020809 -453.827208 
L 309.273822 -451.013282 
L 309.549292 -448.199357 
L 309.875706 -445.385431 
L 310.249986 -442.571506 
L 310.658383 -439.757581 
L 311.124203 -436.943655 
L 311.697353 -434.12973 
L 312.370767 -431.315804 
L 313.05851 -428.501879 
L 313.70451 -425.687953 
L 314.363378 -422.874028 
L 315.130671 -420.060103 
L 316.032503 -417.246177 
L 316.996857 -414.432252 
L 317.908222 -411.618326 
L 318.705204 -408.804401 
L 319.429499 -405.990476 
L 320.155817 -403.17655 
L 320.911097 -400.362625 
L 321.710683 -397.548699 
L 322.614342 -394.734774 
L 323.683078 -391.920849 
L 324.923722 -389.106923 
L 326.306826 -386.292998 
L 327.817635 -383.479072 
L 329.489852 -380.665147 
L 331.364534 -377.851222 
L 333.367671 -375.037296 
L 335.252483 -372.223371 
L 336.71884 -369.409445 
L 337.605948 -366.59552 
L 337.976675 -363.781594 
L 338 -360.967669 
L 337.701498 -358.153744 
L 336.846584 -355.339818 
L 335.145656 -352.525893 
L 332.549115 -349.711967 
L 329.267983 -346.898042 
L 325.596694 -344.084117 
L 321.848382 -341.270191 
L 318.374801 -338.456266 
L 315.476182 -335.64234 
L 313.275405 -332.828415 
L 311.724147 -330.01449 
L 310.691734 -327.200564 
L 310.017115 -324.386639 
L 309.539737 -321.572713 
L 309.152113 -318.758788 
L 308.824791 -315.944863 
L 308.565986 -313.130937 
L 308.371531 -310.317012 
L 308.218951 -307.503086 
L 308.086958 -304.689161 
L 307.964634 -301.875236 
L 307.847643 -299.06131 
L 307.736041 -296.247385 
L 307.635809 -293.433459 
L 307.554522 -290.619534 
L 307.493673 -287.805608 
L 307.450415 -284.991683 
L 307.424714 -282.177758 
L 307.417942 -279.363832 
L 307.425815 -276.549907 
L 307.435554 -273.735981 
L 307.430148 -270.922056 
L 307.402423 -268.108131 
L 307.368462 -265.294205 
L 307.35556 -262.48028 
L 307.371229 -259.666354 
L 307.394356 -256.852429 
L 307.398871 -254.038504 
L 307.376115 -251.224578 
L 307.335899 -248.410653 
L 307.296178 -245.596727 
L 307.269236 -242.782802 
L 307.251791 -239.968877 
L 307.23165 -237.154951 
L 307.2032 -234.341026 
L 307.171284 -231.5271 
L 307.142613 -228.713175 
L 307.11865 -225.899249 
L 307.09619 -223.085324 
L 307.072025 -220.271399 
z
" id="m896ecb63a4" style="stroke:#000000;stroke-width:3;"/>
    </defs>
    <g clip-path="url(#pd61ecac265)">
     <use style="fill:#808080;stroke:#000000;stroke-width:3;" x="0" xlink:href="#m896ecb63a4" y="714.792969"/>
    </g>
   </g>
   <g id="PolyCollection_3">
    <defs>
     <path d="M 406.268337 -215.832978 
L 406.131663 -215.832978 
L 406.102625 -218.650906 
L 406.091291 -221.468835 
L 406.099477 -224.286763 
L 406.109204 -227.104692 
L 406.10312 -229.922621 
L 406.093678 -232.740549 
L 406.095447 -235.558478 
L 406.1063 -238.376406 
L 406.112809 -241.194335 
L 406.108165 -244.012264 
L 406.098832 -246.830192 
L 406.086416 -249.648121 
L 406.070625 -252.46605 
L 406.058679 -255.283978 
L 406.048639 -258.101907 
L 406.031896 -260.919835 
L 406.015929 -263.737764 
L 406.001844 -266.555693 
L 405.973034 -269.373621 
L 405.929368 -272.19155 
L 405.892171 -275.009478 
L 405.859434 -277.827407 
L 405.817269 -280.645336 
L 405.773093 -283.463264 
L 405.712314 -286.281193 
L 405.59692 -289.099121 
L 405.408882 -291.91705 
L 405.132928 -294.734979 
L 404.722189 -297.552907 
L 404.06679 -300.370836 
L 402.988554 -303.188764 
L 401.395278 -306.006693 
L 399.3591 -308.824622 
L 396.845863 -311.64255 
L 393.728285 -314.460479 
L 390.158445 -317.278407 
L 386.641627 -320.096336 
L 383.659066 -322.914265 
L 381.225783 -325.732193 
L 379.043983 -328.550122 
L 377.132251 -331.368051 
L 375.802728 -334.185979 
L 375.2 -337.003908 
L 375.387598 -339.821836 
L 376.320956 -342.639765 
L 377.649061 -345.457694 
L 379.146615 -348.275622 
L 380.954574 -351.093551 
L 383.132938 -353.911479 
L 385.489347 -356.729408 
L 387.777533 -359.547337 
L 389.746366 -362.365265 
L 391.351384 -365.183194 
L 392.751057 -368.001122 
L 394.067686 -370.819051 
L 395.321057 -373.63698 
L 396.476703 -376.454908 
L 397.490639 -379.272837 
L 398.361974 -382.090765 
L 399.147655 -384.908694 
L 399.912845 -387.726623 
L 400.702272 -390.544551 
L 401.455966 -393.36248 
L 402.063474 -396.180408 
L 402.500555 -398.998337 
L 402.795078 -401.816266 
L 403.07222 -404.634194 
L 403.457866 -407.452123 
L 403.8749 -410.270052 
L 404.220715 -413.08798 
L 404.454681 -415.905909 
L 404.575328 -418.723837 
L 404.698945 -421.541766 
L 404.90958 -424.359695 
L 405.132185 -427.177623 
L 405.281589 -429.995552 
L 405.368981 -432.81348 
L 405.43985 -435.631409 
L 405.515505 -438.449338 
L 405.580879 -441.267266 
L 405.64153 -444.085195 
L 405.734078 -446.903123 
L 405.82819 -449.721052 
L 405.889955 -452.538981 
L 405.942732 -455.356909 
L 405.99431 -458.174838 
L 406.035139 -460.992766 
L 406.066248 -463.810695 
L 406.088399 -466.628624 
L 406.101809 -469.446552 
L 406.116281 -472.264481 
L 406.1342 -475.082409 
L 406.146303 -477.900338 
L 406.157774 -480.718267 
L 406.175807 -483.536195 
L 406.191245 -486.354124 
L 406.196485 -489.172053 
L 406.194872 -491.989981 
L 406.193148 -494.80791 
L 406.206852 -494.80791 
L 406.206852 -494.80791 
L 406.205128 -491.989981 
L 406.203515 -489.172053 
L 406.208755 -486.354124 
L 406.224193 -483.536195 
L 406.242226 -480.718267 
L 406.253697 -477.900338 
L 406.2658 -475.082409 
L 406.283719 -472.264481 
L 406.298191 -469.446552 
L 406.311601 -466.628624 
L 406.333752 -463.810695 
L 406.364861 -460.992766 
L 406.40569 -458.174838 
L 406.457268 -455.356909 
L 406.510045 -452.538981 
L 406.57181 -449.721052 
L 406.665922 -446.903123 
L 406.75847 -444.085195 
L 406.819121 -441.267266 
L 406.884495 -438.449338 
L 406.96015 -435.631409 
L 407.031019 -432.81348 
L 407.118411 -429.995552 
L 407.267815 -427.177623 
L 407.49042 -424.359695 
L 407.701055 -421.541766 
L 407.824672 -418.723837 
L 407.945319 -415.905909 
L 408.179285 -413.08798 
L 408.5251 -410.270052 
L 408.942134 -407.452123 
L 409.32778 -404.634194 
L 409.604922 -401.816266 
L 409.899445 -398.998337 
L 410.336526 -396.180408 
L 410.944034 -393.36248 
L 411.697728 -390.544551 
L 412.487155 -387.726623 
L 413.252345 -384.908694 
L 414.038026 -382.090765 
L 414.909361 -379.272837 
L 415.923297 -376.454908 
L 417.078943 -373.63698 
L 418.332314 -370.819051 
L 419.648943 -368.001122 
L 421.048616 -365.183194 
L 422.653634 -362.365265 
L 424.622467 -359.547337 
L 426.910653 -356.729408 
L 429.267062 -353.911479 
L 431.445426 -351.093551 
L 433.253385 -348.275622 
L 434.750939 -345.457694 
L 436.079044 -342.639765 
L 437.012402 -339.821836 
L 437.2 -337.003908 
L 436.597272 -334.185979 
L 435.267749 -331.368051 
L 433.356017 -328.550122 
L 431.174217 -325.732193 
L 428.740934 -322.914265 
L 425.758373 -320.096336 
L 422.241555 -317.278407 
L 418.671715 -314.460479 
L 415.554137 -311.64255 
L 413.0409 -308.824622 
L 411.004722 -306.006693 
L 409.411446 -303.188764 
L 408.33321 -300.370836 
L 407.677811 -297.552907 
L 407.267072 -294.734979 
L 406.991118 -291.91705 
L 406.80308 -289.099121 
L 406.687686 -286.281193 
L 406.626907 -283.463264 
L 406.582731 -280.645336 
L 406.540566 -277.827407 
L 406.507829 -275.009478 
L 406.470632 -272.19155 
L 406.426966 -269.373621 
L 406.398156 -266.555693 
L 406.384071 -263.737764 
L 406.368104 -260.919835 
L 406.351361 -258.101907 
L 406.341321 -255.283978 
L 406.329375 -252.46605 
L 406.313584 -249.648121 
L 406.301168 -246.830192 
L 406.291835 -244.012264 
L 406.287191 -241.194335 
L 406.2937 -238.376406 
L 406.304553 -235.558478 
L 406.306322 -232.740549 
L 406.29688 -229.922621 
L 406.290796 -227.104692 
L 406.300523 -224.286763 
L 406.308709 -221.468835 
L 406.297375 -218.650906 
L 406.268337 -215.832978 
z
" id="m2e129931b2" style="stroke:#000000;stroke-width:3;"/>
    </defs>
    <g clip-path="url(#pd61ecac265)">
     <use style="fill:#c0c0c0;stroke:#000000;stroke-width:3;" x="0" xlink:href="#m2e129931b2" y="714.792969"/>
    </g>
   </g>
   <g id="PolyCollection_4">
    <defs>
     <path d="M 505.441862 -215.220989 
L 505.358138 -215.220989 
L 505.349012 -217.838965 
L 505.348978 -220.456941 
L 505.353782 -223.074918 
L 505.353233 -225.692894 
L 505.337389 -228.31087 
L 505.303433 -230.928846 
L 505.251803 -233.546822 
L 505.179556 -236.164798 
L 505.083081 -238.782774 
L 504.958898 -241.40075 
L 504.803016 -244.018726 
L 504.61733 -246.636702 
L 504.403035 -249.254678 
L 504.143408 -251.872654 
L 503.809341 -254.49063 
L 503.388965 -257.108606 
L 502.897318 -259.726582 
L 502.321894 -262.344558 
L 501.559946 -264.962535 
L 500.465249 -267.580511 
L 498.961063 -270.198487 
L 497.072013 -272.816463 
L 494.897998 -275.434439 
L 492.602967 -278.052415 
L 490.328563 -280.670391 
L 488.041746 -283.288367 
L 485.597627 -285.906343 
L 483.023615 -288.524319 
L 480.564485 -291.142295 
L 478.445343 -293.760271 
L 476.781516 -296.378247 
L 475.617311 -298.996223 
L 474.890913 -301.614199 
L 474.485782 -304.232176 
L 474.4 -306.850152 
L 474.750029 -309.468128 
L 475.623637 -312.086104 
L 477.01401 -314.70408 
L 478.788664 -317.322056 
L 480.689281 -319.940032 
L 482.485055 -322.558008 
L 484.125162 -325.175984 
L 485.66876 -327.79396 
L 487.126952 -330.411936 
L 488.492855 -333.029912 
L 489.876414 -335.647888 
L 491.401332 -338.265864 
L 492.955704 -340.88384 
L 494.259027 -343.501817 
L 495.192747 -346.119793 
L 495.907279 -348.737769 
L 496.616297 -351.355745 
L 497.386514 -353.973721 
L 498.121545 -356.591697 
L 498.726059 -359.209673 
L 499.243182 -361.827649 
L 499.769794 -364.445625 
L 500.314306 -367.063601 
L 500.8285 -369.681577 
L 501.300066 -372.299553 
L 501.739663 -374.917529 
L 502.144844 -377.535505 
L 502.508268 -380.153481 
L 502.821269 -382.771458 
L 503.082687 -385.389434 
L 503.311996 -388.00741 
L 503.523581 -390.625386 
L 503.69947 -393.243362 
L 503.822481 -395.861338 
L 503.924092 -398.479314 
L 504.054466 -401.09729 
L 504.212865 -403.715266 
L 504.35881 -406.333242 
L 504.477925 -408.951218 
L 504.584718 -411.569194 
L 504.68418 -414.18717 
L 504.766529 -416.805146 
L 504.820845 -419.423122 
L 504.84371 -422.041098 
L 504.847649 -424.659075 
L 504.860439 -427.277051 
L 504.905413 -429.895027 
L 504.983196 -432.513003 
L 505.075457 -435.130979 
L 505.159827 -437.748955 
L 505.218952 -440.366931 
L 505.24707 -442.984907 
L 505.2549 -445.602883 
L 505.262536 -448.220859 
L 505.283604 -450.838835 
L 505.316683 -453.456811 
L 505.350348 -456.074787 
L 505.373139 -458.692763 
L 505.381193 -461.310739 
L 505.380481 -463.928716 
L 505.380253 -466.546692 
L 505.38334 -469.164668 
L 505.38659 -471.782644 
L 505.388918 -474.40062 
L 505.411082 -474.40062 
L 505.411082 -474.40062 
L 505.41341 -471.782644 
L 505.41666 -469.164668 
L 505.419747 -466.546692 
L 505.419519 -463.928716 
L 505.418807 -461.310739 
L 505.426861 -458.692763 
L 505.449652 -456.074787 
L 505.483317 -453.456811 
L 505.516396 -450.838835 
L 505.537464 -448.220859 
L 505.5451 -445.602883 
L 505.55293 -442.984907 
L 505.581048 -440.366931 
L 505.640173 -437.748955 
L 505.724543 -435.130979 
L 505.816804 -432.513003 
L 505.894587 -429.895027 
L 505.939561 -427.277051 
L 505.952351 -424.659075 
L 505.95629 -422.041098 
L 505.979155 -419.423122 
L 506.033471 -416.805146 
L 506.11582 -414.18717 
L 506.215282 -411.569194 
L 506.322075 -408.951218 
L 506.44119 -406.333242 
L 506.587135 -403.715266 
L 506.745534 -401.09729 
L 506.875908 -398.479314 
L 506.977519 -395.861338 
L 507.10053 -393.243362 
L 507.276419 -390.625386 
L 507.488004 -388.00741 
L 507.717313 -385.389434 
L 507.978731 -382.771458 
L 508.291732 -380.153481 
L 508.655156 -377.535505 
L 509.060337 -374.917529 
L 509.499934 -372.299553 
L 509.9715 -369.681577 
L 510.485694 -367.063601 
L 511.030206 -364.445625 
L 511.556818 -361.827649 
L 512.073941 -359.209673 
L 512.678455 -356.591697 
L 513.413486 -353.973721 
L 514.183703 -351.355745 
L 514.892721 -348.737769 
L 515.607253 -346.119793 
L 516.540973 -343.501817 
L 517.844296 -340.88384 
L 519.398668 -338.265864 
L 520.923586 -335.647888 
L 522.307145 -333.029912 
L 523.673048 -330.411936 
L 525.13124 -327.79396 
L 526.674838 -325.175984 
L 528.314945 -322.558008 
L 530.110719 -319.940032 
L 532.011336 -317.322056 
L 533.78599 -314.70408 
L 535.176363 -312.086104 
L 536.049971 -309.468128 
L 536.4 -306.850152 
L 536.314218 -304.232176 
L 535.909087 -301.614199 
L 535.182689 -298.996223 
L 534.018484 -296.378247 
L 532.354657 -293.760271 
L 530.235515 -291.142295 
L 527.776385 -288.524319 
L 525.202373 -285.906343 
L 522.758254 -283.288367 
L 520.471437 -280.670391 
L 518.197033 -278.052415 
L 515.902002 -275.434439 
L 513.727987 -272.816463 
L 511.838937 -270.198487 
L 510.334751 -267.580511 
L 509.240054 -264.962535 
L 508.478106 -262.344558 
L 507.902682 -259.726582 
L 507.411035 -257.108606 
L 506.990659 -254.49063 
L 506.656592 -251.872654 
L 506.396965 -249.254678 
L 506.18267 -246.636702 
L 505.996984 -244.018726 
L 505.841102 -241.40075 
L 505.716919 -238.782774 
L 505.620444 -236.164798 
L 505.548197 -233.546822 
L 505.496567 -230.928846 
L 505.462611 -228.31087 
L 505.446767 -225.692894 
L 505.446218 -223.074918 
L 505.451022 -220.456941 
L 505.450988 -217.838965 
L 505.441862 -215.220989 
z
" id="mabde0e8b2d" style="stroke:#000000;stroke-width:3;"/>
    </defs>
    <g clip-path="url(#pd61ecac265)">
     <use style="fill:#d3d3d3;stroke:#000000;stroke-width:3;" x="0" xlink:href="#mabde0e8b2d" y="714.792969"/>
    </g>
   </g>
   <g id="PolyCollection_5">
    <defs>
     <path d="M 604.707217 -214.505209 
L 604.492783 -214.505209 
L 604.450014 -217.257528 
L 604.426401 -220.009848 
L 604.415083 -222.762167 
L 604.412933 -225.514487 
L 604.420963 -228.266806 
L 604.427259 -231.019126 
L 604.419278 -233.771445 
L 604.398807 -236.523765 
L 604.36279 -239.276084 
L 604.28455 -242.028403 
L 604.123448 -244.780723 
L 603.829907 -247.533042 
L 603.330952 -250.285362 
L 602.544843 -253.037681 
L 601.402465 -255.790001 
L 599.825329 -258.54232 
L 597.768471 -261.294639 
L 595.307902 -264.046959 
L 592.573806 -266.799278 
L 589.675387 -269.551598 
L 586.746609 -272.303917 
L 583.900752 -275.056237 
L 581.197499 -277.808556 
L 578.741301 -280.560876 
L 576.718558 -283.313195 
L 575.289974 -286.065514 
L 574.423864 -288.817834 
L 573.902626 -291.570153 
L 573.6 -294.322473 
L 573.644223 -297.074792 
L 574.178072 -299.827112 
L 575.146658 -302.579431 
L 576.398897 -305.33175 
L 577.829093 -308.08407 
L 579.389097 -310.836389 
L 581.041139 -313.588709 
L 582.743202 -316.341028 
L 584.485107 -319.093348 
L 586.216295 -321.845667 
L 587.786431 -324.597987 
L 589.141439 -327.350306 
L 590.383387 -330.102625 
L 591.562889 -332.854945 
L 592.659015 -335.607264 
L 593.686111 -338.359584 
L 594.649363 -341.111903 
L 595.530803 -343.864223 
L 596.352926 -346.616542 
L 597.135914 -349.368862 
L 597.848344 -352.121181 
L 598.449013 -354.8735 
L 598.938289 -357.62582 
L 599.356433 -360.378139 
L 599.752968 -363.130459 
L 600.168899 -365.882778 
L 600.587182 -368.635098 
L 600.941016 -371.387417 
L 601.209989 -374.139736 
L 601.422027 -376.892056 
L 601.598086 -379.644375 
L 601.757433 -382.396695 
L 601.938822 -385.149014 
L 602.185444 -387.901334 
L 602.4952 -390.653653 
L 602.799632 -393.405973 
L 603.024269 -396.158292 
L 603.165269 -398.910611 
L 603.271663 -401.662931 
L 603.372395 -404.41525 
L 603.464709 -407.16757 
L 603.553954 -409.919889 
L 603.653406 -412.672209 
L 603.750331 -415.424528 
L 603.821545 -418.176847 
L 603.872328 -420.929167 
L 603.932384 -423.681486 
L 604.021411 -426.433806 
L 604.129045 -429.186125 
L 604.2299 -431.938445 
L 604.303864 -434.690764 
L 604.345383 -437.443084 
L 604.364484 -440.195403 
L 604.373866 -442.947722 
L 604.385161 -445.700042 
L 604.411384 -448.452361 
L 604.454663 -451.204681 
L 604.501452 -453.957 
L 604.537381 -456.70932 
L 604.558517 -459.461639 
L 604.567573 -462.213958 
L 604.568476 -464.966278 
L 604.566114 -467.718597 
L 604.566085 -470.470917 
L 604.572168 -473.223236 
L 604.582069 -475.975556 
L 604.588867 -478.727875 
L 604.589702 -481.480195 
L 604.588447 -484.232514 
L 604.589535 -486.984833 
L 604.610465 -486.984833 
L 604.610465 -486.984833 
L 604.611553 -484.232514 
L 604.610298 -481.480195 
L 604.611133 -478.727875 
L 604.617931 -475.975556 
L 604.627832 -473.223236 
L 604.633915 -470.470917 
L 604.633886 -467.718597 
L 604.631524 -464.966278 
L 604.632427 -462.213958 
L 604.641483 -459.461639 
L 604.662619 -456.70932 
L 604.698548 -453.957 
L 604.745337 -451.204681 
L 604.788616 -448.452361 
L 604.814839 -445.700042 
L 604.826134 -442.947722 
L 604.835516 -440.195403 
L 604.854617 -437.443084 
L 604.896136 -434.690764 
L 604.9701 -431.938445 
L 605.070955 -429.186125 
L 605.178589 -426.433806 
L 605.267616 -423.681486 
L 605.327672 -420.929167 
L 605.378455 -418.176847 
L 605.449669 -415.424528 
L 605.546594 -412.672209 
L 605.646046 -409.919889 
L 605.735291 -407.16757 
L 605.827605 -404.41525 
L 605.928337 -401.662931 
L 606.034731 -398.910611 
L 606.175731 -396.158292 
L 606.400368 -393.405973 
L 606.7048 -390.653653 
L 607.014556 -387.901334 
L 607.261178 -385.149014 
L 607.442567 -382.396695 
L 607.601914 -379.644375 
L 607.777973 -376.892056 
L 607.990011 -374.139736 
L 608.258984 -371.387417 
L 608.612818 -368.635098 
L 609.031101 -365.882778 
L 609.447032 -363.130459 
L 609.843567 -360.378139 
L 610.261711 -357.62582 
L 610.750987 -354.8735 
L 611.351656 -352.121181 
L 612.064086 -349.368862 
L 612.847074 -346.616542 
L 613.669197 -343.864223 
L 614.550637 -341.111903 
L 615.513889 -338.359584 
L 616.540985 -335.607264 
L 617.637111 -332.854945 
L 618.816613 -330.102625 
L 620.058561 -327.350306 
L 621.413569 -324.597987 
L 622.983705 -321.845667 
L 624.714893 -319.093348 
L 626.456798 -316.341028 
L 628.158861 -313.588709 
L 629.810903 -310.836389 
L 631.370907 -308.08407 
L 632.801103 -305.33175 
L 634.053342 -302.579431 
L 635.021928 -299.827112 
L 635.555777 -297.074792 
L 635.6 -294.322473 
L 635.297374 -291.570153 
L 634.776136 -288.817834 
L 633.910026 -286.065514 
L 632.481442 -283.313195 
L 630.458699 -280.560876 
L 628.002501 -277.808556 
L 625.299248 -275.056237 
L 622.453391 -272.303917 
L 619.524613 -269.551598 
L 616.626194 -266.799278 
L 613.892098 -264.046959 
L 611.431529 -261.294639 
L 609.374671 -258.54232 
L 607.797535 -255.790001 
L 606.655157 -253.037681 
L 605.869048 -250.285362 
L 605.370093 -247.533042 
L 605.076552 -244.780723 
L 604.91545 -242.028403 
L 604.83721 -239.276084 
L 604.801193 -236.523765 
L 604.780722 -233.771445 
L 604.772741 -231.019126 
L 604.779037 -228.266806 
L 604.787067 -225.514487 
L 604.784917 -222.762167 
L 604.773599 -220.009848 
L 604.749986 -217.257528 
L 604.707217 -214.505209 
z
" id="m300cbbee1f" style="stroke:#000000;stroke-width:3;"/>
    </defs>
    <g clip-path="url(#pd61ecac265)">
     <use style="fill:#dcdcdc;stroke:#000000;stroke-width:3;" x="0" xlink:href="#m300cbbee1f" y="714.792969"/>
    </g>
   </g>
   <g id="matplotlib.axis_1">
    <g id="xtick_1">
     <g id="line2d_1">
      <path clip-path="url(#pd61ecac265)" d="M 207.8 579.494531 
L 207.8 25.094531 
" style="fill:none;stroke:#b0b0b0;stroke-linecap:square;stroke-width:0.8;"/>
     </g>
     <g id="line2d_2">
      <defs>
       <path d="M 0 0 
L 0 20 
" id="m89a65652ac" style="stroke:#000000;stroke-width:7;"/>
      </defs>
      <g>
       <use style="stroke:#000000;stroke-width:7;" x="207.8" xlink:href="#m89a65652ac" y="579.494531"/>
      </g>
     </g>
     <g id="text_1">
      <!-- 0 -->
      <g transform="translate(193.897656 638.783594)scale(0.5 -0.5)">
       <defs>
        <path d="M 4.15625 35.296875 
Q 4.15625 48 6.765625 55.734375 
Q 9.375 63.484375 14.515625 67.671875 
Q 19.671875 71.875 27.484375 71.875 
Q 33.25 71.875 37.59375 69.546875 
Q 41.9375 67.234375 44.765625 62.859375 
Q 47.609375 58.5 49.21875 52.21875 
Q 50.828125 45.953125 50.828125 35.296875 
Q 50.828125 22.703125 48.234375 14.96875 
Q 45.65625 7.234375 40.5 3 
Q 35.359375 -1.21875 27.484375 -1.21875 
Q 17.140625 -1.21875 11.234375 6.203125 
Q 4.15625 15.140625 4.15625 35.296875 
z
M 13.1875 35.296875 
Q 13.1875 17.671875 17.3125 11.828125 
Q 21.4375 6 27.484375 6 
Q 33.546875 6 37.671875 11.859375 
Q 41.796875 17.71875 41.796875 35.296875 
Q 41.796875 52.984375 37.671875 58.78125 
Q 33.546875 64.59375 27.390625 64.59375 
Q 21.34375 64.59375 17.71875 59.46875 
Q 13.1875 52.9375 13.1875 35.296875 
z
" id="ArialMT-48"/>
       </defs>
       <use xlink:href="#ArialMT-48"/>
      </g>
     </g>
    </g>
    <g id="xtick_2">
     <g id="line2d_3">
      <path clip-path="url(#pd61ecac265)" d="M 362.8 579.494531 
L 362.8 25.094531 
" style="fill:none;stroke:#b0b0b0;stroke-linecap:square;stroke-width:0.8;"/>
     </g>
     <g id="line2d_4">
      <g>
       <use style="stroke:#000000;stroke-width:7;" x="362.8" xlink:href="#m89a65652ac" y="579.494531"/>
      </g>
     </g>
     <g id="text_2">
      <!-- 50 -->
      <g transform="translate(334.995313 638.783594)scale(0.5 -0.5)">
       <defs>
        <path d="M 4.15625 18.75 
L 13.375 19.53125 
Q 14.40625 12.796875 18.140625 9.390625 
Q 21.875 6 27.15625 6 
Q 33.5 6 37.890625 10.78125 
Q 42.28125 15.578125 42.28125 23.484375 
Q 42.28125 31 38.0625 35.34375 
Q 33.84375 39.703125 27 39.703125 
Q 22.75 39.703125 19.328125 37.765625 
Q 15.921875 35.84375 13.96875 32.765625 
L 5.71875 33.84375 
L 12.640625 70.609375 
L 48.25 70.609375 
L 48.25 62.203125 
L 19.671875 62.203125 
L 15.828125 42.96875 
Q 22.265625 47.46875 29.34375 47.46875 
Q 38.71875 47.46875 45.15625 40.96875 
Q 51.609375 34.46875 51.609375 24.265625 
Q 51.609375 14.546875 45.953125 7.46875 
Q 39.0625 -1.21875 27.15625 -1.21875 
Q 17.390625 -1.21875 11.203125 4.25 
Q 5.03125 9.71875 4.15625 18.75 
z
" id="ArialMT-53"/>
       </defs>
       <use xlink:href="#ArialMT-53"/>
       <use x="55.615234" xlink:href="#ArialMT-48"/>
      </g>
     </g>
    </g>
    <g id="xtick_3">
     <g id="line2d_5">
      <path clip-path="url(#pd61ecac265)" d="M 517.8 579.494531 
L 517.8 25.094531 
" style="fill:none;stroke:#b0b0b0;stroke-linecap:square;stroke-width:0.8;"/>
     </g>
     <g id="line2d_6">
      <g>
       <use style="stroke:#000000;stroke-width:7;" x="517.8" xlink:href="#m89a65652ac" y="579.494531"/>
      </g>
     </g>
     <g id="text_3">
      <!-- 100 -->
      <g transform="translate(476.092969 638.783594)scale(0.5 -0.5)">
       <defs>
        <path d="M 37.25 0 
L 28.46875 0 
L 28.46875 56 
Q 25.296875 52.984375 20.140625 49.953125 
Q 14.984375 46.921875 10.890625 45.40625 
L 10.890625 53.90625 
Q 18.265625 57.375 23.78125 62.296875 
Q 29.296875 67.234375 31.59375 71.875 
L 37.25 71.875 
z
" id="ArialMT-49"/>
       </defs>
       <use xlink:href="#ArialMT-49"/>
       <use x="55.615234" xlink:href="#ArialMT-48"/>
       <use x="111.230469" xlink:href="#ArialMT-48"/>
      </g>
     </g>
    </g>
    <g id="xtick_4">
     <g id="line2d_7">
      <path clip-path="url(#pd61ecac265)" d="M 672.8 579.494531 
L 672.8 25.094531 
" style="fill:none;stroke:#b0b0b0;stroke-linecap:square;stroke-width:0.8;"/>
     </g>
     <g id="line2d_8">
      <g>
       <use style="stroke:#000000;stroke-width:7;" x="672.8" xlink:href="#m89a65652ac" y="579.494531"/>
      </g>
     </g>
     <g id="text_4">
      <!-- 150 -->
      <g transform="translate(631.092969 638.783594)scale(0.5 -0.5)">
       <use xlink:href="#ArialMT-49"/>
       <use x="55.615234" xlink:href="#ArialMT-53"/>
       <use x="111.230469" xlink:href="#ArialMT-48"/>
      </g>
     </g>
    </g>
    <g id="text_5">
     <!-- $N_{residues}$ -->
     <g transform="translate(343.6 695.667969)scale(0.6 -0.6)">
      <defs>
       <path d="M 16.890625 72.90625 
L 30.171875 72.90625 
L 50.296875 10.40625 
L 62.5 72.90625 
L 72.125 72.90625 
L 57.90625 0 
L 44.578125 0 
L 24.515625 62.890625 
L 12.3125 0 
L 2.6875 0 
z
" id="DejaVuSans-Oblique-78"/>
       <path d="M 44.578125 46.390625 
Q 43.21875 47.125 41.453125 47.515625 
Q 39.703125 47.90625 37.703125 47.90625 
Q 30.515625 47.90625 25.140625 42.453125 
Q 19.78125 37.015625 18.015625 27.875 
L 12.5 0 
L 3.515625 0 
L 14.203125 54.6875 
L 23.1875 54.6875 
L 21.484375 46.1875 
Q 25.046875 50.921875 30 53.453125 
Q 34.96875 56 40.578125 56 
Q 42.046875 56 43.453125 55.828125 
Q 44.875 55.671875 46.296875 55.28125 
z
" id="DejaVuSans-Oblique-114"/>
       <path d="M 48.09375 32.234375 
Q 48.25 33.015625 48.3125 33.84375 
Q 48.390625 34.671875 48.390625 35.5 
Q 48.390625 41.453125 44.890625 44.921875 
Q 41.40625 48.390625 35.40625 48.390625 
Q 28.71875 48.390625 23.578125 44.15625 
Q 18.453125 39.9375 15.828125 32.171875 
z
M 55.90625 25.203125 
L 14.109375 25.203125 
Q 13.8125 23.34375 13.71875 22.265625 
Q 13.625 21.1875 13.625 20.40625 
Q 13.625 13.625 17.796875 9.90625 
Q 21.96875 6.203125 29.59375 6.203125 
Q 35.453125 6.203125 40.671875 7.515625 
Q 45.90625 8.84375 50.390625 11.375 
L 48.6875 2.484375 
Q 43.84375 0.53125 38.6875 -0.4375 
Q 33.546875 -1.421875 28.21875 -1.421875 
Q 16.84375 -1.421875 10.71875 4.015625 
Q 4.59375 9.46875 4.59375 19.484375 
Q 4.59375 28.03125 7.640625 35.375 
Q 10.6875 42.71875 16.609375 48.484375 
Q 20.40625 52.09375 25.65625 54.046875 
Q 30.90625 56 36.8125 56 
Q 46.09375 56 51.578125 50.4375 
Q 57.078125 44.875 57.078125 35.5 
Q 57.078125 33.25 56.78125 30.6875 
Q 56.5 28.125 55.90625 25.203125 
z
" id="DejaVuSans-Oblique-101"/>
       <path d="M 50 53.078125 
L 48.296875 44.578125 
Q 44.734375 46.53125 40.765625 47.5 
Q 36.8125 48.484375 32.625 48.484375 
Q 25.53125 48.484375 21.453125 46.0625 
Q 17.390625 43.65625 17.390625 39.5 
Q 17.390625 34.671875 26.859375 32.078125 
Q 27.59375 31.890625 27.9375 31.78125 
L 30.8125 30.90625 
Q 39.796875 28.421875 42.796875 25.6875 
Q 45.796875 22.953125 45.796875 18.21875 
Q 45.796875 9.515625 38.890625 4.046875 
Q 31.984375 -1.421875 20.796875 -1.421875 
Q 16.453125 -1.421875 11.671875 -0.578125 
Q 6.890625 0.25 1.125 2 
L 2.875 11.28125 
Q 7.8125 8.734375 12.59375 7.421875 
Q 17.390625 6.109375 21.78125 6.109375 
Q 28.375 6.109375 32.5 8.9375 
Q 36.625 11.765625 36.625 16.109375 
Q 36.625 20.796875 25.78125 23.6875 
L 24.859375 23.921875 
L 21.78125 24.703125 
Q 14.9375 26.515625 11.765625 29.46875 
Q 8.59375 32.421875 8.59375 37.015625 
Q 8.59375 45.75 15.15625 50.875 
Q 21.734375 56 33.015625 56 
Q 37.453125 56 41.671875 55.265625 
Q 45.90625 54.546875 50 53.078125 
z
" id="DejaVuSans-Oblique-115"/>
       <path d="M 18.3125 75.984375 
L 27.296875 75.984375 
L 25.09375 64.59375 
L 16.109375 64.59375 
z
M 14.203125 54.6875 
L 23.1875 54.6875 
L 12.5 0 
L 3.515625 0 
z
" id="DejaVuSans-Oblique-105"/>
       <path d="M 41.796875 8.203125 
Q 38.1875 3.46875 33.25 1.015625 
Q 28.328125 -1.421875 22.3125 -1.421875 
Q 14.109375 -1.421875 9.34375 4.171875 
Q 4.59375 9.765625 4.59375 19.484375 
Q 4.59375 27.59375 7.46875 34.9375 
Q 10.359375 42.28125 15.828125 48.09375 
Q 19.4375 51.953125 23.96875 53.96875 
Q 28.515625 56 33.5 56 
Q 38.765625 56 42.796875 53.453125 
Q 46.828125 50.921875 49.03125 46.1875 
L 54.890625 75.984375 
L 63.921875 75.984375 
L 49.125 0 
L 40.09375 0 
z
M 13.921875 21.09375 
Q 13.921875 14.015625 17.109375 10.0625 
Q 20.3125 6.109375 25.984375 6.109375 
Q 30.171875 6.109375 33.765625 8.125 
Q 37.359375 10.15625 40.09375 14.109375 
Q 42.96875 18.21875 44.625 23.578125 
Q 46.296875 28.953125 46.296875 34.1875 
Q 46.296875 40.96875 43.09375 44.765625 
Q 39.890625 48.578125 34.28125 48.578125 
Q 30.03125 48.578125 26.359375 46.578125 
Q 22.703125 44.578125 20.125 40.828125 
Q 17.28125 36.765625 15.59375 31.390625 
Q 13.921875 26.03125 13.921875 21.09375 
z
" id="DejaVuSans-Oblique-100"/>
       <path d="M 6.6875 21.6875 
L 13.09375 54.6875 
L 22.125 54.6875 
L 15.71875 22.015625 
Q 15.234375 19.625 15.015625 17.921875 
Q 14.796875 16.21875 14.796875 15.09375 
Q 14.796875 10.9375 17.328125 8.65625 
Q 19.875 6.390625 24.515625 6.390625 
Q 31.734375 6.390625 37 11.265625 
Q 42.28125 16.15625 43.890625 24.421875 
L 49.90625 54.6875 
L 58.890625 54.6875 
L 48.296875 0 
L 39.3125 0 
L 41.109375 8.59375 
Q 37.3125 3.8125 32.0625 1.1875 
Q 26.8125 -1.421875 20.90625 -1.421875 
Q 13.71875 -1.421875 9.71875 2.515625 
Q 5.71875 6.453125 5.71875 13.484375 
Q 5.71875 14.9375 5.953125 17.140625 
Q 6.203125 19.34375 6.6875 21.6875 
z
" id="DejaVuSans-Oblique-117"/>
      </defs>
      <use transform="translate(0 0.09375)" xlink:href="#DejaVuSans-Oblique-78"/>
      <use transform="translate(74.804688 -16.3125)scale(0.7)" xlink:href="#DejaVuSans-Oblique-114"/>
      <use transform="translate(103.583984 -16.3125)scale(0.7)" xlink:href="#DejaVuSans-Oblique-101"/>
      <use transform="translate(146.650391 -16.3125)scale(0.7)" xlink:href="#DejaVuSans-Oblique-115"/>
      <use transform="translate(183.120117 -16.3125)scale(0.7)" xlink:href="#DejaVuSans-Oblique-105"/>
      <use transform="translate(202.568359 -16.3125)scale(0.7)" xlink:href="#DejaVuSans-Oblique-100"/>
      <use transform="translate(247.001953 -16.3125)scale(0.7)" xlink:href="#DejaVuSans-Oblique-117"/>
      <use transform="translate(291.367188 -16.3125)scale(0.7)" xlink:href="#DejaVuSans-Oblique-101"/>
      <use transform="translate(334.433594 -16.3125)scale(0.7)" xlink:href="#DejaVuSans-Oblique-115"/>
     </g>
    </g>
   </g>
   <g id="matplotlib.axis_2">
    <g id="ytick_1">
     <g id="line2d_9">
      <path clip-path="url(#pd61ecac265)" d="M 176.8 579.494531 
L 734.8 579.494531 
" style="fill:none;stroke:#b0b0b0;stroke-linecap:square;stroke-width:0.8;"/>
     </g>
     <g id="line2d_10">
      <defs>
       <path d="M 0 0 
L -20 0 
" id="mcbd075abe3" style="stroke:#000000;stroke-width:7;"/>
      </defs>
      <g>
       <use style="stroke:#000000;stroke-width:7;" x="176.8" xlink:href="#mcbd075abe3" y="579.494531"/>
      </g>
     </g>
     <g id="text_6">
      <!-- 0.0 -->
      <g transform="translate(83.8 597.389063)scale(0.5 -0.5)">
       <defs>
        <path d="M 9.078125 0 
L 9.078125 10.015625 
L 19.09375 10.015625 
L 19.09375 0 
z
" id="ArialMT-46"/>
       </defs>
       <use xlink:href="#ArialMT-48"/>
       <use x="55.615234" xlink:href="#ArialMT-46"/>
       <use x="83.398438" xlink:href="#ArialMT-48"/>
      </g>
     </g>
    </g>
    <g id="ytick_2">
     <g id="line2d_11">
      <path clip-path="url(#pd61ecac265)" d="M 176.8 468.614531 
L 734.8 468.614531 
" style="fill:none;stroke:#b0b0b0;stroke-linecap:square;stroke-width:0.8;"/>
     </g>
     <g id="line2d_12">
      <g>
       <use style="stroke:#000000;stroke-width:7;" x="176.8" xlink:href="#mcbd075abe3" y="468.614531"/>
      </g>
     </g>
     <g id="text_7">
      <!-- 0.2 -->
      <g transform="translate(83.8 486.509063)scale(0.5 -0.5)">
       <defs>
        <path d="M 50.34375 8.453125 
L 50.34375 0 
L 3.03125 0 
Q 2.9375 3.171875 4.046875 6.109375 
Q 5.859375 10.9375 9.828125 15.625 
Q 13.8125 20.3125 21.34375 26.46875 
Q 33.015625 36.03125 37.109375 41.625 
Q 41.21875 47.21875 41.21875 52.203125 
Q 41.21875 57.421875 37.46875 61 
Q 33.734375 64.59375 27.734375 64.59375 
Q 21.390625 64.59375 17.578125 60.78125 
Q 13.765625 56.984375 13.71875 50.25 
L 4.6875 51.171875 
Q 5.609375 61.28125 11.65625 66.578125 
Q 17.71875 71.875 27.9375 71.875 
Q 38.234375 71.875 44.234375 66.15625 
Q 50.25 60.453125 50.25 52 
Q 50.25 47.703125 48.484375 43.546875 
Q 46.734375 39.40625 42.65625 34.8125 
Q 38.578125 30.21875 29.109375 22.21875 
Q 21.1875 15.578125 18.9375 13.203125 
Q 16.703125 10.84375 15.234375 8.453125 
z
" id="ArialMT-50"/>
       </defs>
       <use xlink:href="#ArialMT-48"/>
       <use x="55.615234" xlink:href="#ArialMT-46"/>
       <use x="83.398438" xlink:href="#ArialMT-50"/>
      </g>
     </g>
    </g>
    <g id="ytick_3">
     <g id="line2d_13">
      <path clip-path="url(#pd61ecac265)" d="M 176.8 357.734531 
L 734.8 357.734531 
" style="fill:none;stroke:#b0b0b0;stroke-linecap:square;stroke-width:0.8;"/>
     </g>
     <g id="line2d_14">
      <g>
       <use style="stroke:#000000;stroke-width:7;" x="176.8" xlink:href="#mcbd075abe3" y="357.734531"/>
      </g>
     </g>
     <g id="text_8">
      <!-- 0.4 -->
      <g transform="translate(83.8 375.629062)scale(0.5 -0.5)">
       <defs>
        <path d="M 32.328125 0 
L 32.328125 17.140625 
L 1.265625 17.140625 
L 1.265625 25.203125 
L 33.9375 71.578125 
L 41.109375 71.578125 
L 41.109375 25.203125 
L 50.78125 25.203125 
L 50.78125 17.140625 
L 41.109375 17.140625 
L 41.109375 0 
z
M 32.328125 25.203125 
L 32.328125 57.46875 
L 9.90625 25.203125 
z
" id="ArialMT-52"/>
       </defs>
       <use xlink:href="#ArialMT-48"/>
       <use x="55.615234" xlink:href="#ArialMT-46"/>
       <use x="83.398438" xlink:href="#ArialMT-52"/>
      </g>
     </g>
    </g>
    <g id="ytick_4">
     <g id="line2d_15">
      <path clip-path="url(#pd61ecac265)" d="M 176.8 246.854531 
L 734.8 246.854531 
" style="fill:none;stroke:#b0b0b0;stroke-linecap:square;stroke-width:0.8;"/>
     </g>
     <g id="line2d_16">
      <g>
       <use style="stroke:#000000;stroke-width:7;" x="176.8" xlink:href="#mcbd075abe3" y="246.854531"/>
      </g>
     </g>
     <g id="text_9">
      <!-- 0.6 -->
      <g transform="translate(83.8 264.749062)scale(0.5 -0.5)">
       <defs>
        <path d="M 49.75 54.046875 
L 41.015625 53.375 
Q 39.84375 58.546875 37.703125 60.890625 
Q 34.125 64.65625 28.90625 64.65625 
Q 24.703125 64.65625 21.53125 62.3125 
Q 17.390625 59.28125 14.984375 53.46875 
Q 12.59375 47.65625 12.5 36.921875 
Q 15.671875 41.75 20.265625 44.09375 
Q 24.859375 46.4375 29.890625 46.4375 
Q 38.671875 46.4375 44.84375 39.96875 
Q 51.03125 33.5 51.03125 23.25 
Q 51.03125 16.5 48.125 10.71875 
Q 45.21875 4.9375 40.140625 1.859375 
Q 35.0625 -1.21875 28.609375 -1.21875 
Q 17.625 -1.21875 10.6875 6.859375 
Q 3.765625 14.9375 3.765625 33.5 
Q 3.765625 54.25 11.421875 63.671875 
Q 18.109375 71.875 29.4375 71.875 
Q 37.890625 71.875 43.28125 67.140625 
Q 48.6875 62.40625 49.75 54.046875 
z
M 13.875 23.1875 
Q 13.875 18.65625 15.796875 14.5 
Q 17.71875 10.359375 21.1875 8.171875 
Q 24.65625 6 28.46875 6 
Q 34.03125 6 38.03125 10.484375 
Q 42.046875 14.984375 42.046875 22.703125 
Q 42.046875 30.125 38.078125 34.390625 
Q 34.125 38.671875 28.125 38.671875 
Q 22.171875 38.671875 18.015625 34.390625 
Q 13.875 30.125 13.875 23.1875 
z
" id="ArialMT-54"/>
       </defs>
       <use xlink:href="#ArialMT-48"/>
       <use x="55.615234" xlink:href="#ArialMT-46"/>
       <use x="83.398438" xlink:href="#ArialMT-54"/>
      </g>
     </g>
    </g>
    <g id="ytick_5">
     <g id="line2d_17">
      <path clip-path="url(#pd61ecac265)" d="M 176.8 135.974531 
L 734.8 135.974531 
" style="fill:none;stroke:#b0b0b0;stroke-linecap:square;stroke-width:0.8;"/>
     </g>
     <g id="line2d_18">
      <g>
       <use style="stroke:#000000;stroke-width:7;" x="176.8" xlink:href="#mcbd075abe3" y="135.974531"/>
      </g>
     </g>
     <g id="text_10">
      <!-- 0.8 -->
      <g transform="translate(83.8 153.869062)scale(0.5 -0.5)">
       <defs>
        <path d="M 17.671875 38.8125 
Q 12.203125 40.828125 9.5625 44.53125 
Q 6.9375 48.25 6.9375 53.421875 
Q 6.9375 61.234375 12.546875 66.546875 
Q 18.171875 71.875 27.484375 71.875 
Q 36.859375 71.875 42.578125 66.421875 
Q 48.296875 60.984375 48.296875 53.171875 
Q 48.296875 48.1875 45.671875 44.5 
Q 43.0625 40.828125 37.75 38.8125 
Q 44.34375 36.671875 47.78125 31.875 
Q 51.21875 27.09375 51.21875 20.453125 
Q 51.21875 11.28125 44.71875 5.03125 
Q 38.234375 -1.21875 27.640625 -1.21875 
Q 17.046875 -1.21875 10.546875 5.046875 
Q 4.046875 11.328125 4.046875 20.703125 
Q 4.046875 27.6875 7.59375 32.390625 
Q 11.140625 37.109375 17.671875 38.8125 
z
M 15.921875 53.71875 
Q 15.921875 48.640625 19.1875 45.40625 
Q 22.46875 42.1875 27.6875 42.1875 
Q 32.765625 42.1875 36.015625 45.375 
Q 39.265625 48.578125 39.265625 53.21875 
Q 39.265625 58.0625 35.90625 61.359375 
Q 32.5625 64.65625 27.59375 64.65625 
Q 22.5625 64.65625 19.234375 61.421875 
Q 15.921875 58.203125 15.921875 53.71875 
z
M 13.09375 20.65625 
Q 13.09375 16.890625 14.875 13.375 
Q 16.65625 9.859375 20.171875 7.921875 
Q 23.6875 6 27.734375 6 
Q 34.03125 6 38.125 10.046875 
Q 42.234375 14.109375 42.234375 20.359375 
Q 42.234375 26.703125 38.015625 30.859375 
Q 33.796875 35.015625 27.4375 35.015625 
Q 21.234375 35.015625 17.15625 30.90625 
Q 13.09375 26.8125 13.09375 20.65625 
z
" id="ArialMT-56"/>
       </defs>
       <use xlink:href="#ArialMT-48"/>
       <use x="55.615234" xlink:href="#ArialMT-46"/>
       <use x="83.398438" xlink:href="#ArialMT-56"/>
      </g>
     </g>
    </g>
    <g id="ytick_6">
     <g id="line2d_19">
      <path clip-path="url(#pd61ecac265)" d="M 176.8 25.094531 
L 734.8 25.094531 
" style="fill:none;stroke:#b0b0b0;stroke-linecap:square;stroke-width:0.8;"/>
     </g>
     <g id="line2d_20">
      <g>
       <use style="stroke:#000000;stroke-width:7;" x="176.8" xlink:href="#mcbd075abe3" y="25.094531"/>
      </g>
     </g>
     <g id="text_11">
      <!-- 1.0 -->
      <g transform="translate(83.8 42.989062)scale(0.5 -0.5)">
       <use xlink:href="#ArialMT-49"/>
       <use x="55.615234" xlink:href="#ArialMT-46"/>
       <use x="83.398438" xlink:href="#ArialMT-48"/>
      </g>
     </g>
    </g>
    <g id="text_12">
     <!-- $E_f^{cell}$ -->
     <g transform="translate(63 360.494531)rotate(-90)scale(0.6 -0.6)">
      <defs>
       <path d="M 16.890625 72.90625 
L 62.984375 72.90625 
L 61.375 64.59375 
L 25.09375 64.59375 
L 20.90625 43.015625 
L 55.71875 43.015625 
L 54.109375 34.71875 
L 19.28125 34.71875 
L 14.203125 8.296875 
L 51.3125 8.296875 
L 49.703125 0 
L 2.6875 0 
z
" id="DejaVuSans-Oblique-69"/>
       <path d="M 53.609375 52.59375 
L 51.8125 43.703125 
Q 48.578125 46.046875 44.9375 47.21875 
Q 41.3125 48.390625 37.40625 48.390625 
Q 33.109375 48.390625 29.21875 46.875 
Q 25.34375 45.359375 22.703125 42.578125 
Q 18.5 38.328125 16.203125 32.609375 
Q 13.921875 26.90625 13.921875 20.796875 
Q 13.921875 13.421875 17.609375 9.8125 
Q 21.296875 6.203125 28.8125 6.203125 
Q 32.515625 6.203125 36.6875 7.328125 
Q 40.875 8.453125 45.40625 10.6875 
L 43.703125 1.8125 
Q 39.796875 0.203125 35.671875 -0.609375 
Q 31.546875 -1.421875 27.203125 -1.421875 
Q 16.3125 -1.421875 10.453125 4.015625 
Q 4.59375 9.46875 4.59375 19.578125 
Q 4.59375 28.078125 7.640625 35.234375 
Q 10.6875 42.390625 16.703125 48.09375 
Q 20.796875 52 26.3125 54 
Q 31.84375 56 38.375 56 
Q 42.1875 56 45.9375 55.140625 
Q 49.703125 54.296875 53.609375 52.59375 
z
" id="DejaVuSans-Oblique-99"/>
       <path d="M 18.3125 75.984375 
L 27.296875 75.984375 
L 12.5 0 
L 3.515625 0 
z
" id="DejaVuSans-Oblique-108"/>
       <path d="M 47.796875 75.984375 
L 46.390625 68.5 
L 37.796875 68.5 
Q 32.90625 68.5 30.6875 66.578125 
Q 28.46875 64.65625 27.390625 59.515625 
L 26.421875 54.6875 
L 41.21875 54.6875 
L 39.890625 47.703125 
L 25.09375 47.703125 
L 15.828125 0 
L 6.78125 0 
L 16.109375 47.703125 
L 7.515625 47.703125 
L 8.796875 54.6875 
L 17.390625 54.6875 
L 18.109375 58.5 
Q 19.96875 68.171875 24.625 72.078125 
Q 29.296875 75.984375 39.3125 75.984375 
z
" id="DejaVuSans-Oblique-102"/>
      </defs>
      <use transform="translate(0 0.470313)" xlink:href="#DejaVuSans-Oblique-69"/>
      <use transform="translate(70.200365 39.810938)scale(0.7)" xlink:href="#DejaVuSans-Oblique-99"/>
      <use transform="translate(108.686693 39.810938)scale(0.7)" xlink:href="#DejaVuSans-Oblique-101"/>
      <use transform="translate(151.753099 39.810938)scale(0.7)" xlink:href="#DejaVuSans-Oblique-108"/>
      <use transform="translate(171.201341 39.810938)scale(0.7)" xlink:href="#DejaVuSans-Oblique-108"/>
      <use transform="translate(63.183594 -26.873437)scale(0.7)" xlink:href="#DejaVuSans-Oblique-102"/>
     </g>
    </g>
   </g>
   <g id="LineCollection_1">
    <path clip-path="url(#pd61ecac265)" d="M 207.8 305.643276 
L 207.8 275.349383 
" style="fill:none;stroke:#ff0000;stroke-width:10;"/>
   </g>
   <g id="LineCollection_2">
    <path clip-path="url(#pd61ecac265)" d="M 207.8 348.831195 
L 207.8 252.458436 
" style="fill:none;stroke:#ff0000;stroke-width:3;"/>
   </g>
   <g id="LineCollection_3">
    <path clip-path="url(#pd61ecac265)" d="M 307 359.972729 
L 307 321.453536 
" style="fill:none;stroke:#ff0000;stroke-width:10;"/>
   </g>
   <g id="LineCollection_4">
    <path clip-path="url(#pd61ecac265)" d="M 307 381.688042 
L 307 284.037539 
" style="fill:none;stroke:#ff0000;stroke-width:3;"/>
   </g>
   <g id="LineCollection_5">
    <path clip-path="url(#pd61ecac265)" d="M 406.2 385.313447 
L 406.2 353.737443 
" style="fill:none;stroke:#ff0000;stroke-width:10;"/>
   </g>
   <g id="LineCollection_6">
    <path clip-path="url(#pd61ecac265)" d="M 406.2 402.406756 
L 406.2 316.688956 
" style="fill:none;stroke:#ff0000;stroke-width:3;"/>
   </g>
   <g id="LineCollection_7">
    <path clip-path="url(#pd61ecac265)" d="M 505.4 419.701668 
L 505.4 384.098074 
" style="fill:none;stroke:#ff0000;stroke-width:10;"/>
   </g>
   <g id="LineCollection_8">
    <path clip-path="url(#pd61ecac265)" d="M 505.4 440.063494 
L 505.4 342.969072 
" style="fill:none;stroke:#ff0000;stroke-width:3;"/>
   </g>
   <g id="LineCollection_9">
    <path clip-path="url(#pd61ecac265)" d="M 604.6 428.834917 
L 604.6 390.415176 
" style="fill:none;stroke:#ff0000;stroke-width:10;"/>
   </g>
   <g id="LineCollection_10">
    <path clip-path="url(#pd61ecac265)" d="M 604.6 447.183002 
L 604.6 342.693941 
" style="fill:none;stroke:#ff0000;stroke-width:3;"/>
   </g>
   <g id="patch_3">
    <path d="M 176.8 579.494531 
L 176.8 25.094531 
" style="fill:none;stroke:#000000;stroke-linecap:square;stroke-linejoin:miter;stroke-width:7;"/>
   </g>
   <g id="patch_4">
    <path d="M 734.8 579.494531 
L 734.8 25.094531 
" style="fill:none;stroke:#000000;stroke-linecap:square;stroke-linejoin:miter;stroke-width:7;"/>
   </g>
   <g id="patch_5">
    <path d="M 176.8 579.494531 
L 734.8 579.494531 
" style="fill:none;stroke:#000000;stroke-linecap:square;stroke-linejoin:miter;stroke-width:7;"/>
   </g>
   <g id="patch_6">
    <path d="M 176.8 25.094531 
L 734.8 25.094531 
" style="fill:none;stroke:#000000;stroke-linecap:square;stroke-linejoin:miter;stroke-width:7;"/>
   </g>
   <g id="PathCollection_1">
    <defs>
     <path d="M -4.472136 4.472136 
L 4.472136 4.472136 
L 4.472136 -4.472136 
L -4.472136 -4.472136 
z
" id="m02ce6a40f2" style="stroke:#000000;stroke-width:2;"/>
    </defs>
    <g clip-path="url(#pd61ecac265)">
     <use style="fill:#ffffff;stroke:#000000;stroke-width:2;" x="207.8" xlink:href="#m02ce6a40f2" y="289.956453"/>
    </g>
   </g>
   <g id="PathCollection_2">
    <g clip-path="url(#pd61ecac265)">
     <use style="fill:#ffffff;stroke:#000000;stroke-width:2;" x="307" xlink:href="#m02ce6a40f2" y="344.097902"/>
    </g>
   </g>
   <g id="PathCollection_3">
    <g clip-path="url(#pd61ecac265)">
     <use style="fill:#ffffff;stroke:#000000;stroke-width:2;" x="406.2" xlink:href="#m02ce6a40f2" y="371.503466"/>
    </g>
   </g>
   <g id="PathCollection_4">
    <g clip-path="url(#pd61ecac265)">
     <use style="fill:#ffffff;stroke:#000000;stroke-width:2;" x="505.4" xlink:href="#m02ce6a40f2" y="404.031679"/>
    </g>
   </g>
   <g id="PathCollection_5">
    <g clip-path="url(#pd61ecac265)">
     <use style="fill:#ffffff;stroke:#000000;stroke-width:2;" x="604.6" xlink:href="#m02ce6a40f2" y="412.207451"/>
    </g>
   </g>
   <g id="PolyCollection_6">
    <defs>
     <path d="M 207.8 -424.560844 
L 207.8 -404.297942 
L 307 -368.066101 
L 406.2 -331.83426 
L 505.4 -295.602418 
L 604.6 -259.370577 
L 827.8 -177.848934 
L 827.8 -252.889812 
L 827.8 -252.889812 
L 604.6 -314.691384 
L 505.4 -342.158749 
L 406.2 -369.626114 
L 307 -397.093479 
L 207.8 -424.560844 
z
" id="m0943e649ec" style="stroke:#5f9ea0;stroke-opacity:0.2;"/>
    </defs>
    <g clip-path="url(#pd61ecac265)">
     <use style="fill:#5f9ea0;fill-opacity:0.2;stroke:#5f9ea0;stroke-opacity:0.2;" x="0" xlink:href="#m0943e649ec" y="714.792969"/>
    </g>
   </g>
   <g id="line2d_21">
    <path clip-path="url(#pd61ecac265)" d="M 207.8 300.363576 
L 307 332.213179 
L 406.2 364.062782 
L 505.4 395.912385 
L 604.6 427.761988 
L 743 472.197322 
" style="fill:none;stroke:#5f9ea0;stroke-dasharray:18.5,8;stroke-dashoffset:0;stroke-width:5;"/>
   </g>
  </g>
 </g>
 <defs>
  <clipPath id="pd61ecac265">
   <rect height="554.4" width="558" x="176.8" y="25.094531"/>
  </clipPath>
 </defs>
</svg>
